<svg xmlns="http://www.w3.org/2000/svg" xmlns:xlink="http://www.w3.org/1999/xlink" width="600" height="400" viewBox="0 0 2400 1600">
<defs>
  <clipPath id="clip500">
    <rect x="0" y="0" width="2400" height="1600"></rect>
  </clipPath>
</defs>
<path clip-path="url(#clip500)" d="
M0 1600 L2400 1600 L2400 0 L0 0  Z
  " fill="#ffffff" fill-rule="evenodd" fill-opacity="1"></path>
<defs>
  <clipPath id="clip501">
    <rect x="480" y="0" width="1681" height="1600"></rect>
  </clipPath>
</defs>
<path clip-path="url(#clip500)" d="
M210.746 1423.18 L2352.76 1423.18 L2352.76 47.2441 L210.746 47.2441  Z
  " fill="#ffffff" fill-rule="evenodd" fill-opacity="1"></path>
<defs>
  <clipPath id="clip502">
    <rect x="210" y="47" width="2143" height="1377"></rect>
  </clipPath>
</defs>
<polyline clip-path="url(#clip502)" style="stroke:#000000; stroke-linecap:round; stroke-linejoin:round; stroke-width:2; stroke-opacity:0.1; fill:none" points="
  271.369,1423.18 271.369,47.2441 
  "></polyline>
<polyline clip-path="url(#clip502)" style="stroke:#000000; stroke-linecap:round; stroke-linejoin:round; stroke-width:2; stroke-opacity:0.1; fill:none" points="
  2292.13,1423.18 2292.13,47.2441 
  "></polyline>
<polyline clip-path="url(#clip500)" style="stroke:#000000; stroke-linecap:round; stroke-linejoin:round; stroke-width:4; stroke-opacity:1; fill:none" points="
  210.746,1423.18 2352.76,1423.18 
  "></polyline>
<polyline clip-path="url(#clip500)" style="stroke:#000000; stroke-linecap:round; stroke-linejoin:round; stroke-width:4; stroke-opacity:1; fill:none" points="
  271.369,1423.18 271.369,1404.28 
  "></polyline>
<polyline clip-path="url(#clip500)" style="stroke:#000000; stroke-linecap:round; stroke-linejoin:round; stroke-width:4; stroke-opacity:1; fill:none" points="
  2292.13,1423.18 2292.13,1404.28 
  "></polyline>
<path clip-path="url(#clip500)" d="M271.369 1454.1 Q267.758 1454.1 265.929 1457.66 Q264.124 1461.2 264.124 1468.33 Q264.124 1475.44 265.929 1479.01 Q267.758 1482.55 271.369 1482.55 Q275.003 1482.55 276.809 1479.01 Q278.637 1475.44 278.637 1468.33 Q278.637 1461.2 276.809 1457.66 Q275.003 1454.1 271.369 1454.1 M271.369 1450.39 Q277.179 1450.39 280.235 1455 Q283.313 1459.58 283.313 1468.33 Q283.313 1477.06 280.235 1481.67 Q277.179 1486.25 271.369 1486.25 Q265.559 1486.25 262.48 1481.67 Q259.424 1477.06 259.424 1468.33 Q259.424 1459.58 262.48 1455 Q265.559 1450.39 271.369 1450.39 Z" fill="#000000" fill-rule="evenodd" fill-opacity="1"></path><path clip-path="url(#clip500)" d="M2270.8 1481.64 L2287.12 1481.64 L2287.12 1485.58 L2265.18 1485.58 L2265.18 1481.64 Q2267.84 1478.89 2272.42 1474.26 Q2277.03 1469.61 2278.21 1468.27 Q2280.45 1465.74 2281.33 1464.01 Q2282.24 1462.25 2282.24 1460.56 Q2282.24 1457.8 2280.29 1456.07 Q2278.37 1454.33 2275.27 1454.33 Q2273.07 1454.33 2270.62 1455.09 Q2268.19 1455.86 2265.41 1457.41 L2265.41 1452.69 Q2268.23 1451.55 2270.69 1450.97 Q2273.14 1450.39 2275.18 1450.39 Q2280.55 1450.39 2283.74 1453.08 Q2286.94 1455.77 2286.94 1460.26 Q2286.94 1462.39 2286.13 1464.31 Q2285.34 1466.2 2283.23 1468.8 Q2282.65 1469.47 2279.55 1472.69 Q2276.45 1475.88 2270.8 1481.64 Z" fill="#000000" fill-rule="evenodd" fill-opacity="1"></path><path clip-path="url(#clip500)" d="M2293.58 1459.65 L2318.42 1459.65 L2318.42 1463.91 L2315.15 1463.91 L2315.15 1479.84 Q2315.15 1481.51 2315.71 1482.25 Q2316.29 1482.96 2317.56 1482.96 Q2317.91 1482.96 2318.42 1482.92 Q2318.93 1482.85 2319.09 1482.83 L2319.09 1485.9 Q2318.28 1486.2 2317.42 1486.34 Q2316.57 1486.48 2315.71 1486.48 Q2312.93 1486.48 2311.87 1484.98 Q2310.8 1483.45 2310.8 1479.38 L2310.8 1463.91 L2301.24 1463.91 L2301.24 1485.58 L2296.89 1485.58 L2296.89 1463.91 L2293.58 1463.91 L2293.58 1459.65 Z" fill="#000000" fill-rule="evenodd" fill-opacity="1"></path><path clip-path="url(#clip500)" d="M1298.37 1532.4 L1285.47 1549.74 L1299.03 1568.04 L1292.13 1568.04 L1281.75 1554.04 L1271.37 1568.04 L1264.47 1568.04 L1278.31 1549.39 L1265.65 1532.4 L1272.55 1532.4 L1282.01 1545.1 L1291.46 1532.4 L1298.37 1532.4 Z" fill="#000000" fill-rule="evenodd" fill-opacity="1"></path><polyline clip-path="url(#clip502)" style="stroke:#000000; stroke-linecap:round; stroke-linejoin:round; stroke-width:2; stroke-opacity:0.1; fill:none" points="
  210.746,1384.24 2352.76,1384.24 
  "></polyline>
<polyline clip-path="url(#clip502)" style="stroke:#000000; stroke-linecap:round; stroke-linejoin:round; stroke-width:2; stroke-opacity:0.1; fill:none" points="
  210.746,951.555 2352.76,951.555 
  "></polyline>
<polyline clip-path="url(#clip502)" style="stroke:#000000; stroke-linecap:round; stroke-linejoin:round; stroke-width:2; stroke-opacity:0.1; fill:none" points="
  210.746,518.87 2352.76,518.87 
  "></polyline>
<polyline clip-path="url(#clip502)" style="stroke:#000000; stroke-linecap:round; stroke-linejoin:round; stroke-width:2; stroke-opacity:0.1; fill:none" points="
  210.746,86.1857 2352.76,86.1857 
  "></polyline>
<polyline clip-path="url(#clip500)" style="stroke:#000000; stroke-linecap:round; stroke-linejoin:round; stroke-width:4; stroke-opacity:1; fill:none" points="
  210.746,1423.18 210.746,47.2441 
  "></polyline>
<polyline clip-path="url(#clip500)" style="stroke:#000000; stroke-linecap:round; stroke-linejoin:round; stroke-width:4; stroke-opacity:1; fill:none" points="
  210.746,1384.24 229.644,1384.24 
  "></polyline>
<polyline clip-path="url(#clip500)" style="stroke:#000000; stroke-linecap:round; stroke-linejoin:round; stroke-width:4; stroke-opacity:1; fill:none" points="
  210.746,951.555 229.644,951.555 
  "></polyline>
<polyline clip-path="url(#clip500)" style="stroke:#000000; stroke-linecap:round; stroke-linejoin:round; stroke-width:4; stroke-opacity:1; fill:none" points="
  210.746,518.87 229.644,518.87 
  "></polyline>
<polyline clip-path="url(#clip500)" style="stroke:#000000; stroke-linecap:round; stroke-linejoin:round; stroke-width:4; stroke-opacity:1; fill:none" points="
  210.746,86.1857 229.644,86.1857 
  "></polyline>
<path clip-path="url(#clip500)" d="M114.26 1384.69 L143.936 1384.69 L143.936 1388.63 L114.26 1388.63 L114.26 1384.69 Z" fill="#000000" fill-rule="evenodd" fill-opacity="1"></path><path clip-path="url(#clip500)" d="M154.839 1397.58 L162.477 1397.58 L162.477 1371.22 L154.167 1372.88 L154.167 1368.63 L162.431 1366.96 L167.107 1366.96 L167.107 1397.58 L174.746 1397.58 L174.746 1401.52 L154.839 1401.52 L154.839 1397.58 Z" fill="#000000" fill-rule="evenodd" fill-opacity="1"></path><path clip-path="url(#clip500)" d="M162.802 937.353 Q159.19 937.353 157.362 940.918 Q155.556 944.46 155.556 951.589 Q155.556 958.696 157.362 962.261 Q159.19 965.802 162.802 965.802 Q166.436 965.802 168.241 962.261 Q170.07 958.696 170.07 951.589 Q170.07 944.46 168.241 940.918 Q166.436 937.353 162.802 937.353 M162.802 933.65 Q168.612 933.65 171.667 938.256 Q174.746 942.839 174.746 951.589 Q174.746 960.316 171.667 964.923 Q168.612 969.506 162.802 969.506 Q156.991 969.506 153.913 964.923 Q150.857 960.316 150.857 951.589 Q150.857 942.839 153.913 938.256 Q156.991 933.65 162.802 933.65 Z" fill="#000000" fill-rule="evenodd" fill-opacity="1"></path><path clip-path="url(#clip500)" d="M154.839 532.215 L162.477 532.215 L162.477 505.849 L154.167 507.516 L154.167 503.257 L162.431 501.59 L167.107 501.59 L167.107 532.215 L174.746 532.215 L174.746 536.15 L154.839 536.15 L154.839 532.215 Z" fill="#000000" fill-rule="evenodd" fill-opacity="1"></path><path clip-path="url(#clip500)" d="M158.427 99.5305 L174.746 99.5305 L174.746 103.466 L152.802 103.466 L152.802 99.5305 Q155.464 96.7759 160.047 92.1463 Q164.653 87.4935 165.834 86.151 Q168.079 83.6278 168.959 81.8917 Q169.862 80.1325 169.862 78.4427 Q169.862 75.688 167.917 73.9519 Q165.996 72.2158 162.894 72.2158 Q160.695 72.2158 158.241 72.9797 Q155.811 73.7436 153.033 75.2945 L153.033 70.5723 Q155.857 69.4381 158.311 68.8594 Q160.765 68.2807 162.802 68.2807 Q168.172 68.2807 171.366 70.9658 Q174.561 73.651 174.561 78.1417 Q174.561 80.2714 173.751 82.1926 Q172.964 84.0908 170.857 86.6834 Q170.278 87.3546 167.177 90.5722 Q164.075 93.7667 158.427 99.5305 Z" fill="#000000" fill-rule="evenodd" fill-opacity="1"></path><path clip-path="url(#clip500)" d="M16.4842 1115.82 L16.4842 1106.24 L48.8219 1094.11 L16.4842 1081.92 L16.4842 1072.34 L64.0042 1072.34 L64.0042 1078.61 L22.277 1078.61 L54.8694 1090.86 L54.8694 1097.33 L22.277 1109.58 L64.0042 1109.58 L64.0042 1115.82 L16.4842 1115.82 Z" fill="#000000" fill-rule="evenodd" fill-opacity="1"></path><path clip-path="url(#clip500)" d="M44.7161 1029.34 L47.5806 1029.34 L47.5806 1056.27 Q53.6281 1055.88 56.8109 1052.64 Q59.9619 1049.36 59.9619 1043.53 Q59.9619 1040.16 59.1344 1037.01 Q58.3069 1033.83 56.6518 1030.71 L62.1899 1030.71 Q63.5267 1033.86 64.227 1037.17 Q64.9272 1040.48 64.9272 1043.89 Q64.9272 1052.42 59.9619 1057.41 Q54.9967 1062.38 46.5303 1062.38 Q37.7774 1062.38 32.6531 1057.67 Q27.4968 1052.92 27.4968 1044.9 Q27.4968 1037.71 32.1438 1033.54 Q36.7589 1029.34 44.7161 1029.34 M42.9973 1035.2 Q38.1912 1035.26 35.3266 1037.9 Q32.4621 1040.51 32.4621 1044.84 Q32.4621 1049.74 35.2312 1052.7 Q38.0002 1055.63 43.0292 1056.08 L42.9973 1035.2 Z" fill="#000000" fill-rule="evenodd" fill-opacity="1"></path><path clip-path="url(#clip500)" d="M18.2347 1013.93 L28.3562 1013.93 L28.3562 1001.87 L32.9077 1001.87 L32.9077 1013.93 L52.2594 1013.93 Q56.6199 1013.93 57.8613 1012.76 Q59.1026 1011.55 59.1026 1007.89 L59.1026 1001.87 L64.0042 1001.87 L64.0042 1007.89 Q64.0042 1014.67 61.4897 1017.24 Q58.9434 1019.82 52.2594 1019.82 L32.9077 1019.82 L32.9077 1024.12 L28.3562 1024.12 L28.3562 1019.82 L18.2347 1019.82 L18.2347 1013.93 Z" fill="#000000" fill-rule="evenodd" fill-opacity="1"></path><path clip-path="url(#clip500)" d="M46.0847 977.968 Q46.0847 985.066 47.7079 987.803 Q49.3312 990.54 53.2461 990.54 Q56.3653 990.54 58.2114 988.503 Q60.0256 986.435 60.0256 982.902 Q60.0256 978.032 56.5881 975.104 Q53.1188 972.144 47.3897 972.144 L46.0847 972.144 L46.0847 977.968 M43.6657 966.287 L64.0042 966.287 L64.0042 972.144 L58.5933 972.144 Q61.8398 974.149 63.3994 977.141 Q64.9272 980.133 64.9272 984.461 Q64.9272 989.936 61.8716 993.182 Q58.7843 996.397 53.6281 996.397 Q47.6125 996.397 44.5569 992.387 Q41.5014 988.344 41.5014 980.355 L41.5014 972.144 L40.9285 972.144 Q36.8862 972.144 34.6901 974.817 Q32.4621 977.459 32.4621 982.265 Q32.4621 985.321 33.1941 988.217 Q33.9262 991.113 35.3903 993.787 L29.9795 993.787 Q28.7381 990.572 28.1334 987.549 Q27.4968 984.525 27.4968 981.66 Q27.4968 973.926 31.5072 970.107 Q35.5176 966.287 43.6657 966.287 Z" fill="#000000" fill-rule="evenodd" fill-opacity="1"></path><path clip-path="url(#clip500)" d="M29.4065 931.499 L34.9447 931.499 Q33.6716 933.981 33.035 936.655 Q32.3984 939.328 32.3984 942.193 Q32.3984 946.553 33.7352 948.75 Q35.072 950.914 37.7456 950.914 Q39.7826 950.914 40.9603 949.354 Q42.1061 947.795 43.1565 943.084 L43.6021 941.079 Q44.9389 934.841 47.3897 932.231 Q49.8086 929.589 54.1691 929.589 Q59.1344 929.589 62.0308 933.536 Q64.9272 937.45 64.9272 944.325 Q64.9272 947.19 64.3543 950.309 Q63.8132 953.397 62.6992 956.834 L56.6518 956.834 Q58.3387 953.588 59.198 950.437 Q60.0256 947.285 60.0256 944.198 Q60.0256 940.06 58.6251 937.832 Q57.1929 935.604 54.6147 935.604 Q52.2276 935.604 50.9545 937.228 Q49.6813 938.819 48.5037 944.262 L48.0262 946.299 Q46.8804 951.741 44.5251 954.16 Q42.138 956.579 38.0002 956.579 Q32.9713 956.579 30.2341 953.015 Q27.4968 949.45 27.4968 942.893 Q27.4968 939.647 27.9743 936.782 Q28.4517 933.918 29.4065 931.499 Z" fill="#000000" fill-rule="evenodd" fill-opacity="1"></path><path clip-path="url(#clip500)" d="M49.9359 920.868 L28.3562 920.868 L28.3562 915.011 L49.7131 915.011 Q54.7739 915.011 57.3202 913.038 Q59.8346 911.065 59.8346 907.118 Q59.8346 902.375 56.8109 899.638 Q53.7872 896.869 48.5673 896.869 L28.3562 896.869 L28.3562 891.013 L64.0042 891.013 L64.0042 896.869 L58.5296 896.869 Q61.7762 899.002 63.3676 901.834 Q64.9272 904.635 64.9272 908.359 Q64.9272 914.502 61.1078 917.685 Q57.2883 920.868 49.9359 920.868 M27.4968 906.131 L27.4968 906.131 Z" fill="#000000" fill-rule="evenodd" fill-opacity="1"></path><path clip-path="url(#clip500)" d="M33.8307 858.293 Q33.2578 859.28 33.0032 860.457 Q32.7167 861.603 32.7167 863.004 Q32.7167 867.969 35.9632 870.642 Q39.1779 873.284 45.2253 873.284 L64.0042 873.284 L64.0042 879.172 L28.3562 879.172 L28.3562 873.284 L33.8944 873.284 Q30.6479 871.438 29.0883 868.478 Q27.4968 865.518 27.4968 861.285 Q27.4968 860.68 27.5923 859.948 Q27.656 859.216 27.8151 858.325 L33.8307 858.293 Z" fill="#000000" fill-rule="evenodd" fill-opacity="1"></path><path clip-path="url(#clip500)" d="M14.479 834.103 L19.3487 834.103 L19.3487 839.705 Q19.3487 842.856 20.6219 844.097 Q21.895 845.307 25.2052 845.307 L28.3562 845.307 L28.3562 835.663 L32.9077 835.663 L32.9077 845.307 L64.0042 845.307 L64.0042 851.195 L32.9077 851.195 L32.9077 856.797 L28.3562 856.797 L28.3562 851.195 L25.8736 851.195 Q19.9216 851.195 17.2162 848.426 Q14.479 845.657 14.479 839.641 L14.479 834.103 Z" fill="#000000" fill-rule="evenodd" fill-opacity="1"></path><path clip-path="url(#clip500)" d="M46.0847 813.001 Q46.0847 820.099 47.7079 822.836 Q49.3312 825.573 53.2461 825.573 Q56.3653 825.573 58.2114 823.536 Q60.0256 821.467 60.0256 817.934 Q60.0256 813.065 56.5881 810.136 Q53.1188 807.176 47.3897 807.176 L46.0847 807.176 L46.0847 813.001 M43.6657 801.32 L64.0042 801.32 L64.0042 807.176 L58.5933 807.176 Q61.8398 809.181 63.3994 812.173 Q64.9272 815.165 64.9272 819.494 Q64.9272 824.968 61.8716 828.215 Q58.7843 831.43 53.6281 831.43 Q47.6125 831.43 44.5569 827.419 Q41.5014 823.377 41.5014 815.388 L41.5014 807.176 L40.9285 807.176 Q36.8862 807.176 34.6901 809.85 Q32.4621 812.492 32.4621 817.298 Q32.4621 820.353 33.1941 823.25 Q33.9262 826.146 35.3903 828.82 L29.9795 828.82 Q28.7381 825.605 28.1334 822.581 Q27.4968 819.558 27.4968 816.693 Q27.4968 808.959 31.5072 805.139 Q35.5176 801.32 43.6657 801.32 Z" fill="#000000" fill-rule="evenodd" fill-opacity="1"></path><path clip-path="url(#clip500)" d="M29.7248 763.603 L35.1993 763.603 Q33.8307 766.086 33.1623 768.6 Q32.4621 771.083 32.4621 773.629 Q32.4621 779.326 36.0905 782.477 Q39.6872 785.628 46.212 785.628 Q52.7369 785.628 56.3653 782.477 Q59.9619 779.326 59.9619 773.629 Q59.9619 771.083 59.2935 768.6 Q58.5933 766.086 57.2247 763.603 L62.6355 763.603 Q63.7814 766.054 64.3543 768.696 Q64.9272 771.306 64.9272 774.266 Q64.9272 782.318 59.8664 787.061 Q54.8057 791.803 46.212 791.803 Q37.491 791.803 32.4939 787.029 Q27.4968 782.223 27.4968 773.884 Q27.4968 771.178 28.0697 768.6 Q28.6108 766.022 29.7248 763.603 Z" fill="#000000" fill-rule="evenodd" fill-opacity="1"></path><path clip-path="url(#clip500)" d="M44.7161 722.926 L47.5806 722.926 L47.5806 749.853 Q53.6281 749.471 56.8109 746.225 Q59.9619 742.946 59.9619 737.122 Q59.9619 733.748 59.1344 730.597 Q58.3069 727.414 56.6518 724.295 L62.1899 724.295 Q63.5267 727.446 64.227 730.756 Q64.9272 734.066 64.9272 737.472 Q64.9272 746.002 59.9619 750.999 Q54.9967 755.964 46.5303 755.964 Q37.7774 755.964 32.6531 751.254 Q27.4968 746.511 27.4968 738.49 Q27.4968 731.297 32.1438 727.128 Q36.7589 722.926 44.7161 722.926 M42.9973 728.783 Q38.1912 728.846 35.3266 731.488 Q32.4621 734.098 32.4621 738.427 Q32.4621 743.328 35.2312 746.288 Q38.0002 749.217 43.0292 749.662 L42.9973 728.783 Z" fill="#000000" fill-rule="evenodd" fill-opacity="1"></path><path clip-path="url(#clip500)" d="M58.657 686.928 L77.5631 686.928 L77.5631 692.816 L28.3562 692.816 L28.3562 686.928 L33.7671 686.928 Q30.5842 685.082 29.0564 682.281 Q27.4968 679.448 27.4968 675.533 Q27.4968 669.04 32.6531 664.998 Q37.8093 660.924 46.212 660.924 Q54.6147 660.924 59.771 664.998 Q64.9272 669.04 64.9272 675.533 Q64.9272 679.448 63.3994 682.281 Q61.8398 685.082 58.657 686.928 M46.212 667.003 Q39.7508 667.003 36.0905 669.677 Q32.3984 672.319 32.3984 676.966 Q32.3984 681.613 36.0905 684.286 Q39.7508 686.928 46.212 686.928 Q52.6732 686.928 56.3653 684.286 Q60.0256 681.613 60.0256 676.966 Q60.0256 672.319 56.3653 669.677 Q52.6732 667.003 46.212 667.003 Z" fill="#000000" fill-rule="evenodd" fill-opacity="1"></path><path clip-path="url(#clip500)" d="M46.0847 635.016 Q46.0847 642.114 47.7079 644.851 Q49.3312 647.588 53.2461 647.588 Q56.3653 647.588 58.2114 645.551 Q60.0256 643.482 60.0256 639.949 Q60.0256 635.079 56.5881 632.151 Q53.1188 629.191 47.3897 629.191 L46.0847 629.191 L46.0847 635.016 M43.6657 623.335 L64.0042 623.335 L64.0042 629.191 L58.5933 629.191 Q61.8398 631.196 63.3994 634.188 Q64.9272 637.18 64.9272 641.509 Q64.9272 646.983 61.8716 650.23 Q58.7843 653.444 53.6281 653.444 Q47.6125 653.444 44.5569 649.434 Q41.5014 645.392 41.5014 637.403 L41.5014 629.191 L40.9285 629.191 Q36.8862 629.191 34.6901 631.865 Q32.4621 634.506 32.4621 639.313 Q32.4621 642.368 33.1941 645.265 Q33.9262 648.161 35.3903 650.835 L29.9795 650.835 Q28.7381 647.62 28.1334 644.596 Q27.4968 641.572 27.4968 638.708 Q27.4968 630.974 31.5072 627.154 Q35.5176 623.335 43.6657 623.335 Z" fill="#000000" fill-rule="evenodd" fill-opacity="1"></path><path clip-path="url(#clip500)" d="M33.8307 590.615 Q33.2578 591.602 33.0032 592.779 Q32.7167 593.925 32.7167 595.326 Q32.7167 600.291 35.9632 602.964 Q39.1779 605.606 45.2253 605.606 L64.0042 605.606 L64.0042 611.494 L28.3562 611.494 L28.3562 605.606 L33.8944 605.606 Q30.6479 603.76 29.0883 600.8 Q27.4968 597.84 27.4968 593.607 Q27.4968 593.002 27.5923 592.27 Q27.656 591.538 27.8151 590.647 L33.8307 590.615 Z" fill="#000000" fill-rule="evenodd" fill-opacity="1"></path><path clip-path="url(#clip500)" d="M46.0847 568.271 Q46.0847 575.369 47.7079 578.106 Q49.3312 580.844 53.2461 580.844 Q56.3653 580.844 58.2114 578.807 Q60.0256 576.738 60.0256 573.205 Q60.0256 568.335 56.5881 565.407 Q53.1188 562.447 47.3897 562.447 L46.0847 562.447 L46.0847 568.271 M43.6657 556.59 L64.0042 556.59 L64.0042 562.447 L58.5933 562.447 Q61.8398 564.452 63.3994 567.444 Q64.9272 570.436 64.9272 574.764 Q64.9272 580.239 61.8716 583.485 Q58.7843 586.7 53.6281 586.7 Q47.6125 586.7 44.5569 582.69 Q41.5014 578.647 41.5014 570.658 L41.5014 562.447 L40.9285 562.447 Q36.8862 562.447 34.6901 565.12 Q32.4621 567.762 32.4621 572.568 Q32.4621 575.624 33.1941 578.52 Q33.9262 581.416 35.3903 584.09 L29.9795 584.09 Q28.7381 580.875 28.1334 577.852 Q27.4968 574.828 27.4968 571.963 Q27.4968 564.229 31.5072 560.41 Q35.5176 556.59 43.6657 556.59 Z" fill="#000000" fill-rule="evenodd" fill-opacity="1"></path><path clip-path="url(#clip500)" d="M35.1993 516.773 Q31.2526 514.577 29.3747 511.521 Q27.4968 508.465 27.4968 504.328 Q27.4968 498.758 31.4117 495.734 Q35.2948 492.71 42.4881 492.71 L64.0042 492.71 L64.0042 498.599 L42.679 498.599 Q37.5546 498.599 35.072 500.413 Q32.5894 502.227 32.5894 505.951 Q32.5894 510.503 35.6131 513.144 Q38.6368 515.786 43.8567 515.786 L64.0042 515.786 L64.0042 521.674 L42.679 521.674 Q37.5228 521.674 35.072 523.489 Q32.5894 525.303 32.5894 529.09 Q32.5894 533.578 35.6449 536.22 Q38.6686 538.862 43.8567 538.862 L64.0042 538.862 L64.0042 544.75 L28.3562 544.75 L28.3562 538.862 L33.8944 538.862 Q30.616 536.857 29.0564 534.056 Q27.4968 531.255 27.4968 527.403 Q27.4968 523.52 29.4702 520.815 Q31.4436 518.078 35.1993 516.773 Z" fill="#000000" fill-rule="evenodd" fill-opacity="1"></path><path clip-path="url(#clip500)" d="M44.7161 450.538 L47.5806 450.538 L47.5806 477.465 Q53.6281 477.083 56.8109 473.836 Q59.9619 470.558 59.9619 464.733 Q59.9619 461.359 59.1344 458.208 Q58.3069 455.025 56.6518 451.906 L62.1899 451.906 Q63.5267 455.057 64.227 458.367 Q64.9272 461.678 64.9272 465.083 Q64.9272 473.613 59.9619 478.61 Q54.9967 483.576 46.5303 483.576 Q37.7774 483.576 32.6531 478.865 Q27.4968 474.123 27.4968 466.102 Q27.4968 458.908 32.1438 454.739 Q36.7589 450.538 44.7161 450.538 M42.9973 456.394 Q38.1912 456.458 35.3266 459.099 Q32.4621 461.709 32.4621 466.038 Q32.4621 470.94 35.2312 473.9 Q38.0002 476.828 43.0292 477.274 L42.9973 456.394 Z" fill="#000000" fill-rule="evenodd" fill-opacity="1"></path><path clip-path="url(#clip500)" d="M18.2347 435.133 L28.3562 435.133 L28.3562 423.07 L32.9077 423.07 L32.9077 435.133 L52.2594 435.133 Q56.6199 435.133 57.8613 433.955 Q59.1026 432.745 59.1026 429.085 L59.1026 423.07 L64.0042 423.07 L64.0042 429.085 Q64.0042 435.865 61.4897 438.443 Q58.9434 441.021 52.2594 441.021 L32.9077 441.021 L32.9077 445.318 L28.3562 445.318 L28.3562 441.021 L18.2347 441.021 L18.2347 435.133 Z" fill="#000000" fill-rule="evenodd" fill-opacity="1"></path><path clip-path="url(#clip500)" d="M44.7161 384.875 L47.5806 384.875 L47.5806 411.802 Q53.6281 411.42 56.8109 408.174 Q59.9619 404.895 59.9619 399.071 Q59.9619 395.697 59.1344 392.546 Q58.3069 389.363 56.6518 386.244 L62.1899 386.244 Q63.5267 389.395 64.227 392.705 Q64.9272 396.015 64.9272 399.421 Q64.9272 407.951 59.9619 412.948 Q54.9967 417.913 46.5303 417.913 Q37.7774 417.913 32.6531 413.203 Q27.4968 408.46 27.4968 400.439 Q27.4968 393.246 32.1438 389.077 Q36.7589 384.875 44.7161 384.875 M42.9973 390.732 Q38.1912 390.795 35.3266 393.437 Q32.4621 396.047 32.4621 400.376 Q32.4621 405.277 35.2312 408.237 Q38.0002 411.166 43.0292 411.611 L42.9973 390.732 Z" fill="#000000" fill-rule="evenodd" fill-opacity="1"></path><path clip-path="url(#clip500)" d="M33.8307 354.606 Q33.2578 355.593 33.0032 356.771 Q32.7167 357.917 32.7167 359.317 Q32.7167 364.282 35.9632 366.956 Q39.1779 369.598 45.2253 369.598 L64.0042 369.598 L64.0042 375.486 L28.3562 375.486 L28.3562 369.598 L33.8944 369.598 Q30.6479 367.752 29.0883 364.791 Q27.4968 361.831 27.4968 357.598 Q27.4968 356.994 27.5923 356.261 Q27.656 355.529 27.8151 354.638 L33.8307 354.606 Z" fill="#000000" fill-rule="evenodd" fill-opacity="1"></path><polyline clip-path="url(#clip502)" style="stroke:#009af9; stroke-linecap:round; stroke-linejoin:round; stroke-width:4; stroke-opacity:1; fill:none" points="
  271.369,86.1857 273.898,86.1991 276.427,86.2392 278.956,86.3061 281.485,86.3997 284.014,86.5201 286.544,86.6672 289.073,86.8411 291.602,87.0416 294.131,87.2689 
  296.66,87.5228 299.189,87.8035 301.718,88.1107 304.247,88.4447 306.776,88.8052 309.306,89.1923 311.835,89.6061 314.364,90.0463 316.893,90.5131 319.422,91.0063 
  321.951,91.5261 324.48,92.0722 327.009,92.6447 329.539,93.2436 332.068,93.8688 334.597,94.5203 337.126,95.1981 339.655,95.902 342.184,96.6321 344.713,97.3883 
  347.242,98.1706 349.771,98.9789 352.301,99.8131 354.83,100.673 357.359,101.559 359.888,102.471 362.417,103.409 364.946,104.372 367.475,105.361 370.004,106.375 
  372.534,107.415 375.063,108.481 377.592,109.572 380.121,110.688 382.65,111.829 385.179,112.996 387.708,114.187 390.237,115.404 392.766,116.645 395.296,117.912 
  397.825,119.203 400.354,120.519 402.883,121.86 405.412,123.225 407.941,124.615 410.47,126.029 412.999,127.467 415.529,128.93 418.058,130.416 420.587,131.927 
  423.116,133.461 425.645,135.02 428.174,136.602 430.703,138.208 433.232,139.837 435.761,141.49 438.291,143.166 440.82,144.865 443.349,146.588 445.878,148.333 
  448.407,150.102 450.936,151.893 453.465,153.707 455.994,155.543 458.523,157.402 461.053,159.283 463.582,161.187 466.111,163.113 468.64,165.06 471.169,167.03 
  473.698,169.021 476.227,171.034 478.756,173.069 481.286,175.124 483.815,177.201 486.344,179.3 488.873,181.419 491.402,183.559 493.931,185.72 496.46,187.901 
  498.989,190.103 501.518,192.325 504.048,194.568 506.577,196.83 509.106,199.112 511.635,201.415 514.164,203.736 516.693,206.078 519.222,208.438 521.751,210.818 
  524.281,213.217 526.81,215.635 529.339,218.071 531.868,220.526 534.397,223 536.926,225.492 539.455,228.002 541.984,230.53 544.513,233.075 547.043,235.639 
  549.572,238.22 552.101,240.818 554.63,243.434 557.159,246.066 559.688,248.716 562.217,251.382 564.746,254.065 567.276,256.764 569.805,259.479 572.334,262.21 
  574.863,264.958 577.392,267.721 579.921,270.499 582.45,273.293 584.979,276.102 587.508,278.926 590.038,281.765 592.567,284.618 595.096,287.486 597.625,290.368 
  600.154,293.265 602.683,296.175 605.212,299.099 607.741,302.037 610.27,304.988 612.8,307.952 615.329,310.93 617.858,313.92 620.387,316.923 622.916,319.939 
  625.445,322.966 627.974,326.006 630.503,329.058 633.033,332.121 635.562,335.196 638.091,338.283 640.62,341.38 643.149,344.489 645.678,347.608 648.207,350.738 
  650.736,353.879 653.265,357.029 655.795,360.19 658.324,363.36 660.853,366.54 663.382,369.729 665.911,372.928 668.44,376.136 670.969,379.352 673.498,382.577 
  676.028,385.811 678.557,389.052 681.086,392.302 683.615,395.56 686.144,398.825 688.673,402.098 691.202,405.378 693.731,408.664 696.26,411.958 698.79,415.258 
  701.319,418.565 703.848,421.878 706.377,425.197 708.906,428.522 711.435,431.852 713.964,435.188 716.493,438.529 719.022,441.874 721.552,445.225 724.081,448.58 
  726.61,451.94 729.139,455.303 731.668,458.671 734.197,462.042 736.726,465.417 739.255,468.795 741.785,472.176 744.314,475.56 746.843,478.947 749.372,482.336 
  751.901,485.728 754.43,489.121 756.959,492.517 759.488,495.914 762.017,499.312 764.547,502.712 767.076,506.112 769.605,509.514 772.134,512.916 774.663,516.318 
  777.192,519.721 779.721,523.123 782.25,526.525 784.78,529.927 787.309,533.328 789.838,536.728 792.367,540.128 794.896,543.525 797.425,546.921 799.954,550.316 
  802.483,553.709 805.012,557.099 807.542,560.487 810.071,563.872 812.6,567.255 815.129,570.635 817.658,574.011 820.187,577.384 822.716,580.754 825.245,584.119 
  827.775,587.481 830.304,590.838 832.833,594.191 835.362,597.539 837.891,600.883 840.42,604.221 842.949,607.554 845.478,610.882 848.007,614.203 850.537,617.519 
  853.066,620.829 855.595,624.133 858.124,627.43 860.653,630.72 863.182,634.004 865.711,637.28 868.24,640.549 870.769,643.81 873.299,647.064 875.828,650.31 
  878.357,653.547 880.886,656.777 883.415,659.998 885.944,663.21 888.473,666.413 891.002,669.607 893.532,672.792 896.061,675.967 898.59,679.132 901.119,682.288 
  903.648,685.433 906.177,688.568 908.706,691.693 911.235,694.807 913.764,697.91 916.294,701.002 918.823,704.083 921.352,707.152 923.881,710.21 926.41,713.256 
  928.939,716.289 931.468,719.311 933.997,722.32 936.527,725.317 939.056,728.301 941.585,731.272 944.114,734.229 946.643,737.174 949.172,740.105 951.701,743.022 
  954.23,745.926 956.759,748.815 959.289,751.69 961.818,754.551 964.347,757.397 966.876,760.228 969.405,763.045 971.934,765.846 974.463,768.632 976.992,771.403 
  979.521,774.158 982.051,776.897 984.58,779.621 987.109,782.328 989.638,785.019 992.167,787.693 994.696,790.351 997.225,792.992 999.754,795.616 1002.28,798.223 
  1004.81,800.813 1007.34,803.385 1009.87,805.94 1012.4,808.477 1014.93,810.996 1017.46,813.497 1019.99,815.98 1022.52,818.444 1025.05,820.89 1027.57,823.317 
  1030.1,825.725 1032.63,828.115 1035.16,830.485 1037.69,832.836 1040.22,835.167 1042.75,837.479 1045.28,839.772 1047.81,842.044 1050.34,844.296 1052.87,846.529 
  1055.39,848.741 1057.92,850.932 1060.45,853.104 1062.98,855.254 1065.51,857.384 1068.04,859.492 1070.57,861.58 1073.1,863.647 1075.63,865.692 1078.16,867.715 
  1080.69,869.717 1083.22,871.698 1085.74,873.657 1088.27,875.593 1090.8,877.508 1093.33,879.4 1095.86,881.27 1098.39,883.118 1100.92,884.943 1103.45,886.746 
  1105.98,888.526 1108.51,890.283 1111.04,892.017 1113.56,893.728 1116.09,895.415 1118.62,897.08 1121.15,898.721 1123.68,900.338 1126.21,901.932 1128.74,903.503 
  1131.27,905.049 1133.8,906.572 1136.33,908.07 1138.86,909.545 1141.38,910.995 1143.91,912.422 1146.44,913.824 1148.97,915.201 1151.5,916.554 1154.03,917.882 
  1156.56,919.186 1159.09,920.465 1161.62,921.719 1164.15,922.948 1166.68,924.152 1169.21,925.331 1171.73,926.485 1174.26,927.614 1176.79,928.717 1179.32,929.795 
  1181.85,930.848 1184.38,931.875 1186.91,932.877 1189.44,933.853 1191.97,934.804 1194.5,935.728 1197.03,936.627 1199.55,937.5 1202.08,938.348 1204.61,939.169 
  1207.14,939.964 1209.67,940.733 1212.2,941.477 1214.73,942.194 1217.26,942.884 1219.79,943.549 1222.32,944.187 1224.85,944.799 1227.37,945.385 1229.9,945.944 
  1232.43,946.477 1234.96,946.984 1237.49,947.464 1240.02,947.917 1242.55,948.344 1245.08,948.745 1247.61,949.119 1250.14,949.466 1252.67,949.787 1255.2,950.08 
  1257.72,950.348 1260.25,950.588 1262.78,950.802 1265.31,950.99 1267.84,951.15 1270.37,951.284 1272.9,951.391 1275.43,951.471 1277.96,951.525 1280.49,951.551 
  1283.02,951.551 1285.54,951.525 1288.07,951.471 1290.6,951.391 1293.13,951.284 1295.66,951.15 1298.19,950.99 1300.72,950.802 1303.25,950.588 1305.78,950.348 
  1308.31,950.08 1310.84,949.787 1313.36,949.466 1315.89,949.119 1318.42,948.745 1320.95,948.344 1323.48,947.917 1326.01,947.464 1328.54,946.984 1331.07,946.477 
  1333.6,945.944 1336.13,945.385 1338.66,944.799 1341.19,944.187 1343.71,943.549 1346.24,942.884 1348.77,942.194 1351.3,941.477 1353.83,940.733 1356.36,939.964 
  1358.89,939.169 1361.42,938.348 1363.95,937.5 1366.48,936.627 1369.01,935.728 1371.53,934.804 1374.06,933.853 1376.59,932.877 1379.12,931.875 1381.65,930.848 
  1384.18,929.795 1386.71,928.717 1389.24,927.614 1391.77,926.485 1394.3,925.331 1396.83,924.152 1399.35,922.948 1401.88,921.719 1404.41,920.465 1406.94,919.186 
  1409.47,917.882 1412,916.554 1414.53,915.201 1417.06,913.824 1419.59,912.422 1422.12,910.995 1424.65,909.545 1427.18,908.07 1429.7,906.572 1432.23,905.049 
  1434.76,903.503 1437.29,901.932 1439.82,900.338 1442.35,898.721 1444.88,897.08 1447.41,895.415 1449.94,893.728 1452.47,892.017 1455,890.283 1457.52,888.526 
  1460.05,886.746 1462.58,884.943 1465.11,883.118 1467.64,881.27 1470.17,879.4 1472.7,877.508 1475.23,875.593 1477.76,873.657 1480.29,871.698 1482.82,869.717 
  1485.34,867.715 1487.87,865.692 1490.4,863.647 1492.93,861.58 1495.46,859.492 1497.99,857.384 1500.52,855.254 1503.05,853.104 1505.58,850.932 1508.11,848.741 
  1510.64,846.529 1513.17,844.296 1515.69,842.044 1518.22,839.772 1520.75,837.479 1523.28,835.167 1525.81,832.836 1528.34,830.485 1530.87,828.115 1533.4,825.725 
  1535.93,823.317 1538.46,820.89 1540.99,818.444 1543.51,815.98 1546.04,813.497 1548.57,810.996 1551.1,808.477 1553.63,805.94 1556.16,803.385 1558.69,800.813 
  1561.22,798.223 1563.75,795.616 1566.28,792.992 1568.81,790.351 1571.33,787.693 1573.86,785.019 1576.39,782.328 1578.92,779.621 1581.45,776.897 1583.98,774.158 
  1586.51,771.403 1589.04,768.632 1591.57,765.846 1594.1,763.045 1596.63,760.228 1599.16,757.397 1601.68,754.551 1604.21,751.69 1606.74,748.815 1609.27,745.926 
  1611.8,743.022 1614.33,740.105 1616.86,737.174 1619.39,734.229 1621.92,731.272 1624.45,728.301 1626.98,725.317 1629.5,722.32 1632.03,719.311 1634.56,716.289 
  1637.09,713.256 1639.62,710.21 1642.15,707.152 1644.68,704.083 1647.21,701.002 1649.74,697.91 1652.27,694.807 1654.8,691.693 1657.32,688.568 1659.85,685.433 
  1662.38,682.288 1664.91,679.132 1667.44,675.967 1669.97,672.792 1672.5,669.607 1675.03,666.413 1677.56,663.21 1680.09,659.998 1682.62,656.777 1685.15,653.547 
  1687.67,650.31 1690.2,647.064 1692.73,643.81 1695.26,640.549 1697.79,637.28 1700.32,634.004 1702.85,630.72 1705.38,627.43 1707.91,624.133 1710.44,620.829 
  1712.97,617.519 1715.49,614.203 1718.02,610.882 1720.55,607.554 1723.08,604.221 1725.61,600.883 1728.14,597.539 1730.67,594.191 1733.2,590.838 1735.73,587.481 
  1738.26,584.119 1740.79,580.754 1743.31,577.384 1745.84,574.011 1748.37,570.635 1750.9,567.255 1753.43,563.872 1755.96,560.487 1758.49,557.099 1761.02,553.709 
  1763.55,550.316 1766.08,546.921 1768.61,543.525 1771.13,540.128 1773.66,536.728 1776.19,533.328 1778.72,529.927 1781.25,526.525 1783.78,523.123 1786.31,519.721 
  1788.84,516.318 1791.37,512.916 1793.9,509.514 1796.43,506.112 1798.96,502.712 1801.48,499.312 1804.01,495.914 1806.54,492.517 1809.07,489.121 1811.6,485.728 
  1814.13,482.336 1816.66,478.947 1819.19,475.56 1821.72,472.176 1824.25,468.795 1826.78,465.417 1829.3,462.042 1831.83,458.671 1834.36,455.303 1836.89,451.94 
  1839.42,448.58 1841.95,445.225 1844.48,441.874 1847.01,438.529 1849.54,435.188 1852.07,431.852 1854.6,428.522 1857.12,425.197 1859.65,421.878 1862.18,418.565 
  1864.71,415.258 1867.24,411.958 1869.77,408.664 1872.3,405.378 1874.83,402.098 1877.36,398.825 1879.89,395.56 1882.42,392.302 1884.95,389.052 1887.47,385.811 
  1890,382.577 1892.53,379.352 1895.06,376.136 1897.59,372.928 1900.12,369.729 1902.65,366.54 1905.18,363.36 1907.71,360.19 1910.24,357.029 1912.77,353.879 
  1915.29,350.738 1917.82,347.608 1920.35,344.489 1922.88,341.38 1925.41,338.283 1927.94,335.196 1930.47,332.121 1933,329.058 1935.53,326.006 1938.06,322.966 
  1940.59,319.939 1943.11,316.923 1945.64,313.92 1948.17,310.93 1950.7,307.952 1953.23,304.988 1955.76,302.037 1958.29,299.099 1960.82,296.175 1963.35,293.265 
  1965.88,290.368 1968.41,287.486 1970.94,284.618 1973.46,281.765 1975.99,278.926 1978.52,276.102 1981.05,273.293 1983.58,270.499 1986.11,267.721 1988.64,264.958 
  1991.17,262.21 1993.7,259.479 1996.23,256.764 1998.76,254.065 2001.28,251.382 2003.81,248.716 2006.34,246.066 2008.87,243.434 2011.4,240.818 2013.93,238.22 
  2016.46,235.639 2018.99,233.075 2021.52,230.53 2024.05,228.002 2026.58,225.492 2029.1,223 2031.63,220.526 2034.16,218.071 2036.69,215.635 2039.22,213.217 
  2041.75,210.818 2044.28,208.438 2046.81,206.078 2049.34,203.736 2051.87,201.415 2054.4,199.112 2056.93,196.83 2059.45,194.568 2061.98,192.325 2064.51,190.103 
  2067.04,187.901 2069.57,185.72 2072.1,183.559 2074.63,181.419 2077.16,179.3 2079.69,177.201 2082.22,175.124 2084.75,173.069 2087.27,171.034 2089.8,169.021 
  2092.33,167.03 2094.86,165.06 2097.39,163.113 2099.92,161.187 2102.45,159.283 2104.98,157.402 2107.51,155.543 2110.04,153.707 2112.57,151.893 2115.09,150.102 
  2117.62,148.333 2120.15,146.588 2122.68,144.865 2125.21,143.166 2127.74,141.49 2130.27,139.837 2132.8,138.208 2135.33,136.602 2137.86,135.02 2140.39,133.461 
  2142.92,131.927 2145.44,130.416 2147.97,128.93 2150.5,127.467 2153.03,126.029 2155.56,124.615 2158.09,123.225 2160.62,121.86 2163.15,120.519 2165.68,119.203 
  2168.21,117.912 2170.74,116.645 2173.26,115.404 2175.79,114.187 2178.32,112.996 2180.85,111.829 2183.38,110.688 2185.91,109.572 2188.44,108.481 2190.97,107.415 
  2193.5,106.375 2196.03,105.361 2198.56,104.372 2201.08,103.409 2203.61,102.471 2206.14,101.559 2208.67,100.673 2211.2,99.8131 2213.73,98.9789 2216.26,98.1706 
  2218.79,97.3883 2221.32,96.6321 2223.85,95.902 2226.38,95.1981 2228.91,94.5203 2231.43,93.8688 2233.96,93.2436 2236.49,92.6447 2239.02,92.0722 2241.55,91.5261 
  2244.08,91.0063 2246.61,90.5131 2249.14,90.0463 2251.67,89.6061 2254.2,89.1923 2256.73,88.8052 2259.25,88.4447 2261.78,88.1107 2264.31,87.8035 2266.84,87.5228 
  2269.37,87.2689 2271.9,87.0416 2274.43,86.8411 2276.96,86.6672 2279.49,86.5201 2282.02,86.3997 2284.55,86.3061 2287.07,86.2392 2289.6,86.1991 2292.13,86.1857 
  
  "></polyline>
<polyline clip-path="url(#clip502)" style="stroke:#e26f46; stroke-linecap:round; stroke-linejoin:round; stroke-width:4; stroke-opacity:1; fill:none" stroke-dasharray="16, 10" points="
  271.369,951.555 273.898,948.152 276.427,944.75 278.956,941.348 281.485,937.947 284.014,934.546 286.544,931.147 289.073,927.749 291.602,924.352 294.131,920.957 
  296.66,917.564 299.189,914.173 301.718,910.785 304.247,907.398 306.776,904.015 309.306,900.635 311.835,897.257 314.364,893.883 316.893,890.513 319.422,887.146 
  321.951,883.784 324.48,880.425 327.009,877.071 329.539,873.722 332.068,870.377 334.597,867.038 337.126,863.703 339.655,860.375 342.184,857.051 344.713,853.734 
  347.242,850.422 349.771,847.117 352.301,843.819 354.83,840.527 357.359,837.241 359.888,833.963 362.417,830.692 364.946,827.429 367.475,824.173 370.004,820.926 
  372.534,817.686 375.063,814.455 377.592,811.232 380.121,808.017 382.65,804.812 385.179,801.616 387.708,798.429 390.237,795.251 392.766,792.083 395.296,788.925 
  397.825,785.777 400.354,782.639 402.883,779.512 405.412,776.395 407.941,773.289 410.47,770.195 412.999,767.111 415.529,764.039 418.058,760.978 420.587,757.929 
  423.116,754.893 425.645,751.868 428.174,748.856 430.703,745.856 433.232,742.869 435.761,739.895 438.291,736.934 440.82,733.986 443.349,731.051 445.878,728.131 
  448.407,725.224 450.936,722.331 453.465,719.452 455.994,716.588 458.523,713.738 461.053,710.903 463.582,708.083 466.111,705.277 468.64,702.487 471.169,699.713 
  473.698,696.954 476.227,694.211 478.756,691.483 481.286,688.772 483.815,686.077 486.344,683.398 488.873,680.736 491.402,678.091 493.931,675.463 496.46,672.852 
  498.989,670.258 501.518,667.681 504.048,665.122 506.577,662.58 509.106,660.057 511.635,657.552 514.164,655.064 516.693,652.595 519.222,650.145 521.751,647.713 
  524.281,645.3 526.81,642.906 529.339,640.531 531.868,638.175 534.397,635.839 536.926,633.522 539.455,631.224 541.984,628.947 544.513,626.69 547.043,624.452 
  549.572,622.235 552.101,620.038 554.63,617.862 557.159,615.706 559.688,613.572 562.217,611.458 564.746,609.365 567.276,607.293 569.805,605.242 572.334,603.213 
  574.863,601.206 577.392,599.22 579.921,597.256 582.45,595.314 584.979,593.394 587.508,591.496 590.038,589.62 592.567,587.766 595.096,585.936 597.625,584.127 
  600.154,582.342 602.683,580.579 605.212,578.839 607.741,577.123 610.27,575.429 612.8,573.759 615.329,572.112 617.858,570.489 620.387,568.889 622.916,567.312 
  625.445,565.76 627.974,564.231 630.503,562.727 633.033,561.246 635.562,559.79 638.091,558.357 640.62,556.949 643.149,555.566 645.678,554.207 648.207,552.872 
  650.736,551.563 653.265,550.278 655.795,549.017 658.324,547.782 660.853,546.571 663.382,545.386 665.911,544.226 668.44,543.091 670.969,541.981 673.498,540.897 
  676.028,539.837 678.557,538.804 681.086,537.796 683.615,536.813 686.144,535.856 688.673,534.925 691.202,534.02 693.731,533.14 696.26,532.287 698.79,531.459 
  701.319,530.657 703.848,529.881 706.377,529.132 708.906,528.408 711.435,527.711 713.964,527.039 716.493,526.395 719.022,525.776 721.552,525.184 724.081,524.618 
  726.61,524.078 729.139,523.565 731.668,523.078 734.197,522.618 736.726,522.185 739.255,521.778 741.785,521.397 744.314,521.043 746.843,520.716 749.372,520.415 
  751.901,520.141 754.43,519.894 756.959,519.673 759.488,519.48 762.017,519.312 764.547,519.172 767.076,519.058 769.605,518.971 772.134,518.911 774.663,518.878 
  777.192,518.871 779.721,518.891 782.25,518.938 784.78,519.011 787.309,519.112 789.838,519.239 792.367,519.393 794.896,519.573 797.425,519.78 799.954,520.014 
  802.483,520.275 805.012,520.562 807.542,520.876 810.071,521.217 812.6,521.584 815.129,521.978 817.658,522.398 820.187,522.845 822.716,523.318 825.245,523.818 
  827.775,524.345 830.304,524.897 832.833,525.476 835.362,526.082 837.891,526.714 840.42,527.372 842.949,528.056 845.478,528.767 848.007,529.503 850.537,530.266 
  853.066,531.055 855.595,531.869 858.124,532.71 860.653,533.577 863.182,534.469 865.711,535.388 868.24,536.332 870.769,537.301 873.299,538.297 875.828,539.317 
  878.357,540.364 880.886,541.436 883.415,542.533 885.944,543.655 888.473,544.803 891.002,545.976 893.532,547.174 896.061,548.396 898.59,549.644 901.119,550.917 
  903.648,552.214 906.177,553.537 908.706,554.883 911.235,556.255 913.764,557.65 916.294,559.07 918.823,560.515 921.352,561.983 923.881,563.476 926.41,564.993 
  928.939,566.533 931.468,568.098 933.997,569.686 936.527,571.297 939.056,572.933 941.585,574.591 944.114,576.273 946.643,577.978 949.172,579.706 951.701,581.458 
  954.23,583.232 956.759,585.029 959.289,586.848 961.818,588.69 964.347,590.555 966.876,592.442 969.405,594.351 971.934,596.282 974.463,598.235 976.992,600.21 
  979.521,602.207 982.051,604.225 984.58,606.265 987.109,608.326 989.638,610.408 992.167,612.512 994.696,614.636 997.225,616.782 999.754,618.948 1002.28,621.134 
  1004.81,623.341 1007.34,625.568 1009.87,627.816 1012.4,630.083 1014.93,632.371 1017.46,634.678 1019.99,637.004 1022.52,639.35 1025.05,641.716 1027.57,644.1 
  1030.1,646.504 1032.63,648.927 1035.16,651.368 1037.69,653.827 1040.22,656.306 1042.75,658.802 1045.28,661.316 1047.81,663.849 1050.34,666.399 1052.87,668.967 
  1055.39,671.552 1057.92,674.155 1060.45,676.775 1062.98,679.412 1065.51,682.065 1068.04,684.736 1070.57,687.423 1073.1,690.126 1075.63,692.845 1078.16,695.58 
  1080.69,698.331 1083.22,701.098 1085.74,703.881 1088.27,706.678 1090.8,709.491 1093.33,712.319 1095.86,715.161 1098.39,718.018 1100.92,720.89 1103.45,723.776 
  1105.98,726.676 1108.51,729.589 1111.04,732.517 1113.56,735.458 1116.09,738.412 1118.62,741.38 1121.15,744.361 1123.68,747.354 1126.21,750.36 1128.74,753.379 
  1131.27,756.41 1133.8,759.452 1136.33,762.507 1138.86,765.574 1141.38,768.651 1143.91,771.741 1146.44,774.841 1148.97,777.952 1151.5,781.074 1154.03,784.207 
  1156.56,787.35 1159.09,790.503 1161.62,793.666 1164.15,796.839 1166.68,800.021 1169.21,803.213 1171.73,806.413 1174.26,809.623 1176.79,812.842 1179.32,816.069 
  1181.85,819.305 1184.38,822.549 1186.91,825.8 1189.44,829.06 1191.97,832.327 1194.5,835.601 1197.03,838.883 1199.55,842.172 1202.08,845.467 1204.61,848.769 
  1207.14,852.077 1209.67,855.392 1212.2,858.712 1214.73,862.038 1217.26,865.37 1219.79,868.707 1222.32,872.049 1224.85,875.396 1227.37,878.748 1229.9,882.104 
  1232.43,885.465 1234.96,888.829 1237.49,892.198 1240.02,895.57 1242.55,898.946 1245.08,902.325 1247.61,905.706 1250.14,909.091 1252.67,912.479 1255.2,915.868 
  1257.72,919.26 1260.25,922.654 1262.78,926.05 1265.31,929.448 1267.84,932.846 1270.37,936.246 1272.9,939.647 1275.43,943.049 1277.96,946.451 1280.49,949.853 
  1283.02,953.256 1285.54,956.658 1288.07,960.06 1290.6,963.462 1293.13,966.863 1295.66,970.263 1298.19,973.662 1300.72,977.059 1303.25,980.455 1305.78,983.849 
  1308.31,987.241 1310.84,990.631 1313.36,994.018 1315.89,997.403 1318.42,1000.78 1320.95,1004.16 1323.48,1007.54 1326.01,1010.91 1328.54,1014.28 1331.07,1017.64 
  1333.6,1021.01 1336.13,1024.36 1338.66,1027.71 1341.19,1031.06 1343.71,1034.4 1346.24,1037.74 1348.77,1041.07 1351.3,1044.4 1353.83,1047.72 1356.36,1051.03 
  1358.89,1054.34 1361.42,1057.64 1363.95,1060.94 1366.48,1064.23 1369.01,1067.51 1371.53,1070.78 1374.06,1074.05 1376.59,1077.31 1379.12,1080.56 1381.65,1083.8 
  1384.18,1087.04 1386.71,1090.27 1389.24,1093.49 1391.77,1096.7 1394.3,1099.9 1396.83,1103.09 1399.35,1106.27 1401.88,1109.44 1404.41,1112.61 1406.94,1115.76 
  1409.47,1118.9 1412,1122.03 1414.53,1125.16 1417.06,1128.27 1419.59,1131.37 1422.12,1134.46 1424.65,1137.54 1427.18,1140.6 1429.7,1143.66 1432.23,1146.7 
  1434.76,1149.73 1437.29,1152.75 1439.82,1155.76 1442.35,1158.75 1444.88,1161.73 1447.41,1164.7 1449.94,1167.65 1452.47,1170.59 1455,1173.52 1457.52,1176.43 
  1460.05,1179.33 1462.58,1182.22 1465.11,1185.09 1467.64,1187.95 1470.17,1190.79 1472.7,1193.62 1475.23,1196.43 1477.76,1199.23 1480.29,1202.01 1482.82,1204.78 
  1485.34,1207.53 1487.87,1210.26 1490.4,1212.98 1492.93,1215.69 1495.46,1218.37 1497.99,1221.04 1500.52,1223.7 1503.05,1226.33 1505.58,1228.95 1508.11,1231.56 
  1510.64,1234.14 1513.17,1236.71 1515.69,1239.26 1518.22,1241.79 1520.75,1244.31 1523.28,1246.8 1525.81,1249.28 1528.34,1251.74 1530.87,1254.18 1533.4,1256.61 
  1535.93,1259.01 1538.46,1261.39 1540.99,1263.76 1543.51,1266.1 1546.04,1268.43 1548.57,1270.74 1551.1,1273.03 1553.63,1275.29 1556.16,1277.54 1558.69,1279.77 
  1561.22,1281.98 1563.75,1284.16 1566.28,1286.33 1568.81,1288.47 1571.33,1290.6 1573.86,1292.7 1576.39,1294.78 1578.92,1296.84 1581.45,1298.88 1583.98,1300.9 
  1586.51,1302.9 1589.04,1304.87 1591.57,1306.83 1594.1,1308.76 1596.63,1310.67 1599.16,1312.55 1601.68,1314.42 1604.21,1316.26 1606.74,1318.08 1609.27,1319.88 
  1611.8,1321.65 1614.33,1323.4 1616.86,1325.13 1619.39,1326.84 1621.92,1328.52 1624.45,1330.18 1626.98,1331.81 1629.5,1333.42 1632.03,1335.01 1634.56,1336.58 
  1637.09,1338.12 1639.62,1339.63 1642.15,1341.13 1644.68,1342.59 1647.21,1344.04 1649.74,1345.46 1652.27,1346.85 1654.8,1348.23 1657.32,1349.57 1659.85,1350.89 
  1662.38,1352.19 1664.91,1353.46 1667.44,1354.71 1669.97,1355.94 1672.5,1357.13 1675.03,1358.31 1677.56,1359.45 1680.09,1360.58 1682.62,1361.67 1685.15,1362.75 
  1687.67,1363.79 1690.2,1364.81 1692.73,1365.81 1695.26,1366.78 1697.79,1367.72 1700.32,1368.64 1702.85,1369.53 1705.38,1370.4 1707.91,1371.24 1710.44,1372.05 
  1712.97,1372.84 1715.49,1373.61 1718.02,1374.34 1720.55,1375.05 1723.08,1375.74 1725.61,1376.4 1728.14,1377.03 1730.67,1377.63 1733.2,1378.21 1735.73,1378.76 
  1738.26,1379.29 1740.79,1379.79 1743.31,1380.26 1745.84,1380.71 1748.37,1381.13 1750.9,1381.53 1753.43,1381.89 1755.96,1382.23 1758.49,1382.55 1761.02,1382.83 
  1763.55,1383.09 1766.08,1383.33 1768.61,1383.54 1771.13,1383.72 1773.66,1383.87 1776.19,1384 1778.72,1384.1 1781.25,1384.17 1783.78,1384.22 1786.31,1384.24 
  1788.84,1384.23 1791.37,1384.2 1793.9,1384.14 1796.43,1384.05 1798.96,1383.94 1801.48,1383.8 1804.01,1383.63 1806.54,1383.44 1809.07,1383.22 1811.6,1382.97 
  1814.13,1382.69 1816.66,1382.39 1819.19,1382.07 1821.72,1381.71 1824.25,1381.33 1826.78,1380.92 1829.3,1380.49 1831.83,1380.03 1834.36,1379.54 1836.89,1379.03 
  1839.42,1378.49 1841.95,1377.93 1844.48,1377.33 1847.01,1376.71 1849.54,1376.07 1852.07,1375.4 1854.6,1374.7 1857.12,1373.98 1859.65,1373.23 1862.18,1372.45 
  1864.71,1371.65 1867.24,1370.82 1869.77,1369.97 1872.3,1369.09 1874.83,1368.18 1877.36,1367.25 1879.89,1366.3 1882.42,1365.31 1884.95,1364.31 1887.47,1363.27 
  1890,1362.21 1892.53,1361.13 1895.06,1360.02 1897.59,1358.88 1900.12,1357.72 1902.65,1356.54 1905.18,1355.33 1907.71,1354.09 1910.24,1352.83 1912.77,1351.55 
  1915.29,1350.24 1917.82,1348.9 1920.35,1347.54 1922.88,1346.16 1925.41,1344.75 1927.94,1343.32 1930.47,1341.86 1933,1340.38 1935.53,1338.88 1938.06,1337.35 
  1940.59,1335.8 1943.11,1334.22 1945.64,1332.62 1948.17,1331 1950.7,1329.35 1953.23,1327.68 1955.76,1325.99 1958.29,1324.27 1960.82,1322.53 1963.35,1320.77 
  1965.88,1318.98 1968.41,1317.17 1970.94,1315.34 1973.46,1313.49 1975.99,1311.61 1978.52,1309.72 1981.05,1307.8 1983.58,1305.85 1986.11,1303.89 1988.64,1301.9 
  1991.17,1299.9 1993.7,1297.87 1996.23,1295.82 1998.76,1293.74 2001.28,1291.65 2003.81,1289.54 2006.34,1287.4 2008.87,1285.25 2011.4,1283.07 2013.93,1280.87 
  2016.46,1278.66 2018.99,1276.42 2021.52,1274.16 2024.05,1271.88 2026.58,1269.59 2029.1,1267.27 2031.63,1264.93 2034.16,1262.58 2036.69,1260.2 2039.22,1257.81 
  2041.75,1255.4 2044.28,1252.96 2046.81,1250.51 2049.34,1248.05 2051.87,1245.56 2054.4,1243.05 2056.93,1240.53 2059.45,1237.99 2061.98,1235.43 2064.51,1232.85 
  2067.04,1230.26 2069.57,1227.65 2072.1,1225.02 2074.63,1222.37 2077.16,1219.71 2079.69,1217.03 2082.22,1214.34 2084.75,1211.63 2087.27,1208.9 2089.8,1206.16 
  2092.33,1203.4 2094.86,1200.62 2097.39,1197.83 2099.92,1195.03 2102.45,1192.21 2104.98,1189.37 2107.51,1186.52 2110.04,1183.66 2112.57,1180.78 2115.09,1177.89 
  2117.62,1174.98 2120.15,1172.06 2122.68,1169.12 2125.21,1166.18 2127.74,1163.21 2130.27,1160.24 2132.8,1157.25 2135.33,1154.25 2137.86,1151.24 2140.39,1148.22 
  2142.92,1145.18 2145.44,1142.13 2147.97,1139.07 2150.5,1136 2153.03,1132.91 2155.56,1129.82 2158.09,1126.71 2160.62,1123.6 2163.15,1120.47 2165.68,1117.33 
  2168.21,1114.18 2170.74,1111.03 2173.26,1107.86 2175.79,1104.68 2178.32,1101.49 2180.85,1098.3 2183.38,1095.09 2185.91,1091.88 2188.44,1088.65 2190.97,1085.42 
  2193.5,1082.18 2196.03,1078.94 2198.56,1075.68 2201.08,1072.42 2203.61,1069.15 2206.14,1065.87 2208.67,1062.58 2211.2,1059.29 2213.73,1055.99 2216.26,1052.69 
  2218.79,1049.38 2221.32,1046.06 2223.85,1042.73 2226.38,1039.41 2228.91,1036.07 2231.43,1032.73 2233.96,1029.39 2236.49,1026.04 2239.02,1022.68 2241.55,1019.33 
  2244.08,1015.96 2246.61,1012.6 2249.14,1009.23 2251.67,1005.85 2254.2,1002.47 2256.73,999.094 2259.25,995.711 2261.78,992.325 2264.31,988.936 2266.84,985.545 
  2269.37,982.152 2271.9,978.757 2274.43,975.36 2276.96,971.962 2279.49,968.563 2282.02,965.163 2284.55,961.761 2287.07,958.359 2289.6,954.957 2292.13,951.555 
  
  "></polyline>
<polyline clip-path="url(#clip502)" style="stroke:#3da44d; stroke-linecap:round; stroke-linejoin:round; stroke-width:4; stroke-opacity:1; fill:none" points="
  271.369,951.555 273.898,951.541 276.427,951.501 278.956,951.434 281.485,951.341 284.014,951.22 286.544,951.073 289.073,950.899 291.602,950.699 294.131,950.471 
  296.66,950.217 299.189,949.937 301.718,949.63 304.247,949.296 306.776,948.935 309.306,948.548 311.835,948.134 314.364,947.694 316.893,947.227 319.422,946.734 
  321.951,946.214 324.48,945.668 327.009,945.096 329.539,944.497 332.068,943.871 334.597,943.22 337.126,942.542 339.655,941.838 342.184,941.108 344.713,940.352 
  347.242,939.57 349.771,938.761 352.301,937.927 354.83,937.067 357.359,936.181 359.888,935.269 362.417,934.332 364.946,933.368 367.475,932.379 370.004,931.365 
  372.534,930.325 375.063,929.26 377.592,928.169 380.121,927.053 382.65,925.911 385.179,924.745 387.708,923.553 390.237,922.336 392.766,921.095 395.296,919.828 
  397.825,918.537 400.354,917.221 402.883,915.88 405.412,914.515 407.941,913.126 410.47,911.712 412.999,910.273 415.529,908.811 418.058,907.324 420.587,905.813 
  423.116,904.279 425.645,902.721 428.174,901.138 430.703,899.533 433.232,897.903 435.761,896.25 438.291,894.574 440.82,892.875 443.349,891.153 445.878,889.407 
  448.407,887.639 450.936,885.847 453.465,884.034 455.994,882.197 458.523,880.338 461.053,878.457 463.582,876.553 466.111,874.628 468.64,872.68 471.169,870.71 
  473.698,868.719 476.227,866.706 478.756,864.672 481.286,862.616 483.815,860.539 486.344,858.441 488.873,856.321 491.402,854.181 493.931,852.021 496.46,849.839 
  498.989,847.637 501.518,845.415 504.048,843.173 506.577,840.91 509.106,838.628 511.635,836.326 514.164,834.004 516.693,831.663 519.222,829.302 521.751,826.922 
  524.281,824.523 526.81,822.106 529.339,819.669 531.868,817.214 534.397,814.74 536.926,812.249 539.455,809.739 541.984,807.211 544.513,804.665 547.043,802.101 
  549.572,799.52 552.101,796.922 554.63,794.306 557.159,791.674 559.688,789.024 562.217,786.358 564.746,783.676 567.276,780.976 569.805,778.261 572.334,775.53 
  574.863,772.783 577.392,770.02 579.921,767.241 582.45,764.447 584.979,761.639 587.508,758.815 590.038,755.976 592.567,753.122 595.096,750.254 597.625,747.372 
  600.154,744.476 602.683,741.565 605.212,738.641 607.741,735.703 610.27,732.752 612.8,729.788 615.329,726.81 617.858,723.82 620.387,720.817 622.916,717.802 
  625.445,714.774 627.974,711.734 630.503,708.682 633.033,705.619 635.562,702.544 638.091,699.457 640.62,696.36 643.149,693.251 645.678,690.132 648.207,687.002 
  650.736,683.862 653.265,680.711 655.795,677.551 658.324,674.38 660.853,671.2 663.382,668.011 665.911,664.812 668.44,661.605 670.969,658.388 673.498,655.163 
  676.028,651.93 678.557,648.688 681.086,645.438 683.615,642.181 686.144,638.915 688.673,635.643 691.202,632.363 693.731,629.076 696.26,625.782 698.79,622.482 
  701.319,619.175 703.848,615.862 706.377,612.543 708.906,609.219 711.435,605.888 713.964,602.553 716.493,599.212 719.022,595.866 721.552,592.515 724.081,589.16 
  726.61,585.801 729.139,582.437 731.668,579.069 734.197,575.698 736.726,572.323 739.255,568.945 741.785,565.564 744.314,562.18 746.843,558.793 749.372,555.404 
  751.901,552.013 754.43,548.619 756.959,545.224 759.488,541.827 762.017,538.428 764.547,535.028 767.076,531.628 769.605,528.226 772.134,524.824 774.663,521.422 
  777.192,518.02 779.721,514.617 782.25,511.215 784.78,507.813 787.309,504.412 789.838,501.012 792.367,497.613 794.896,494.215 797.425,490.819 799.954,487.424 
  802.483,484.032 805.012,480.641 807.542,477.253 810.071,473.868 812.6,470.485 815.129,467.106 817.658,463.729 820.187,460.356 822.716,456.987 825.245,453.621 
  827.775,450.259 830.304,446.902 832.833,443.549 835.362,440.201 837.891,436.858 840.42,433.519 842.949,430.186 845.478,426.859 848.007,423.537 850.537,420.221 
  853.066,416.911 855.595,413.607 858.124,410.31 860.653,407.02 863.182,403.737 865.711,400.46 868.24,397.191 870.769,393.93 873.299,390.676 875.828,387.431 
  878.357,384.193 880.886,380.964 883.415,377.743 885.944,374.531 888.473,371.328 891.002,368.133 893.532,364.949 896.061,361.774 898.59,358.608 901.119,355.453 
  903.648,352.307 906.177,349.172 908.706,346.047 911.235,342.933 913.764,339.83 916.294,336.738 918.823,333.657 921.352,330.588 923.881,327.53 926.41,324.485 
  928.939,321.451 931.468,318.429 933.997,315.42 936.527,312.423 939.056,309.44 941.585,306.469 944.114,303.511 946.643,300.566 949.172,297.635 951.701,294.718 
  954.23,291.815 956.759,288.925 959.289,286.05 961.818,283.19 964.347,280.343 966.876,277.512 969.405,274.695 971.934,271.894 974.463,269.108 976.992,266.337 
  979.521,263.582 982.051,260.843 984.58,258.119 987.109,255.412 989.638,252.721 992.167,250.047 994.696,247.389 997.225,244.748 999.754,242.124 1002.28,239.517 
  1004.81,236.927 1007.34,234.355 1009.87,231.8 1012.4,229.263 1014.93,226.744 1017.46,224.243 1019.99,221.761 1022.52,219.296 1025.05,216.851 1027.57,214.423 
  1030.1,212.015 1032.63,209.626 1035.16,207.256 1037.69,204.905 1040.22,202.573 1042.75,200.261 1045.28,197.969 1047.81,195.696 1050.34,193.444 1052.87,191.212 
  1055.39,189 1057.92,186.808 1060.45,184.637 1062.98,182.486 1065.51,180.357 1068.04,178.248 1070.57,176.16 1073.1,174.094 1075.63,172.049 1078.16,170.025 
  1080.69,168.023 1083.22,166.042 1085.74,164.084 1088.27,162.147 1090.8,160.232 1093.33,158.34 1095.86,156.47 1098.39,154.622 1100.92,152.797 1103.45,150.994 
  1105.98,149.215 1108.51,147.458 1111.04,145.724 1113.56,144.013 1116.09,142.325 1118.62,140.661 1121.15,139.019 1123.68,137.402 1126.21,135.808 1128.74,134.238 
  1131.27,132.691 1133.8,131.168 1136.33,129.67 1138.86,128.195 1141.38,126.745 1143.91,125.319 1146.44,123.917 1148.97,122.539 1151.5,121.186 1154.03,119.858 
  1156.56,118.555 1159.09,117.276 1161.62,116.022 1164.15,114.792 1166.68,113.588 1169.21,112.409 1171.73,111.255 1174.26,110.126 1176.79,109.023 1179.32,107.945 
  1181.85,106.892 1184.38,105.865 1186.91,104.863 1189.44,103.887 1191.97,102.937 1194.5,102.012 1197.03,101.113 1199.55,100.24 1202.08,99.3928 1204.61,98.5715 
  1207.14,97.7762 1209.67,97.007 1212.2,96.2638 1214.73,95.5468 1217.26,94.8559 1219.79,94.1913 1222.32,93.5529 1224.85,92.9409 1227.37,92.3552 1229.9,91.7958 
  1232.43,91.2629 1234.96,90.7564 1237.49,90.2764 1240.02,89.8229 1242.55,89.3959 1245.08,88.9955 1247.61,88.6216 1250.14,88.2744 1252.67,87.9538 1255.2,87.6598 
  1257.72,87.3925 1260.25,87.1519 1262.78,86.938 1265.31,86.7508 1267.84,86.5903 1270.37,86.4566 1272.9,86.3495 1275.43,86.2693 1277.96,86.2158 1280.49,86.189 
  1283.02,86.189 1285.54,86.2158 1288.07,86.2693 1290.6,86.3495 1293.13,86.4566 1295.66,86.5903 1298.19,86.7508 1300.72,86.938 1303.25,87.1519 1305.78,87.3925 
  1308.31,87.6598 1310.84,87.9538 1313.36,88.2744 1315.89,88.6216 1318.42,88.9955 1320.95,89.3959 1323.48,89.8229 1326.01,90.2764 1328.54,90.7564 1331.07,91.2629 
  1333.6,91.7958 1336.13,92.3552 1338.66,92.9409 1341.19,93.5529 1343.71,94.1913 1346.24,94.8559 1348.77,95.5468 1351.3,96.2638 1353.83,97.007 1356.36,97.7762 
  1358.89,98.5715 1361.42,99.3928 1363.95,100.24 1366.48,101.113 1369.01,102.012 1371.53,102.937 1374.06,103.887 1376.59,104.863 1379.12,105.865 1381.65,106.892 
  1384.18,107.945 1386.71,109.023 1389.24,110.126 1391.77,111.255 1394.3,112.409 1396.83,113.588 1399.35,114.792 1401.88,116.022 1404.41,117.276 1406.94,118.555 
  1409.47,119.858 1412,121.186 1414.53,122.539 1417.06,123.917 1419.59,125.319 1422.12,126.745 1424.65,128.195 1427.18,129.67 1429.7,131.168 1432.23,132.691 
  1434.76,134.238 1437.29,135.808 1439.82,137.402 1442.35,139.019 1444.88,140.661 1447.41,142.325 1449.94,144.013 1452.47,145.724 1455,147.458 1457.52,149.215 
  1460.05,150.994 1462.58,152.797 1465.11,154.622 1467.64,156.47 1470.17,158.34 1472.7,160.232 1475.23,162.147 1477.76,164.084 1480.29,166.042 1482.82,168.023 
  1485.34,170.025 1487.87,172.049 1490.4,174.094 1492.93,176.16 1495.46,178.248 1497.99,180.357 1500.52,182.486 1503.05,184.637 1505.58,186.808 1508.11,189 
  1510.64,191.212 1513.17,193.444 1515.69,195.696 1518.22,197.969 1520.75,200.261 1523.28,202.573 1525.81,204.905 1528.34,207.256 1530.87,209.626 1533.4,212.015 
  1535.93,214.423 1538.46,216.851 1540.99,219.296 1543.51,221.761 1546.04,224.243 1548.57,226.744 1551.1,229.263 1553.63,231.8 1556.16,234.355 1558.69,236.927 
  1561.22,239.517 1563.75,242.124 1566.28,244.748 1568.81,247.389 1571.33,250.047 1573.86,252.721 1576.39,255.412 1578.92,258.119 1581.45,260.843 1583.98,263.582 
  1586.51,266.337 1589.04,269.108 1591.57,271.894 1594.1,274.695 1596.63,277.512 1599.16,280.343 1601.68,283.19 1604.21,286.05 1606.74,288.925 1609.27,291.815 
  1611.8,294.718 1614.33,297.635 1616.86,300.566 1619.39,303.511 1621.92,306.469 1624.45,309.44 1626.98,312.423 1629.5,315.42 1632.03,318.429 1634.56,321.451 
  1637.09,324.485 1639.62,327.53 1642.15,330.588 1644.68,333.657 1647.21,336.738 1649.74,339.83 1652.27,342.933 1654.8,346.047 1657.32,349.172 1659.85,352.307 
  1662.38,355.453 1664.91,358.608 1667.44,361.774 1669.97,364.949 1672.5,368.133 1675.03,371.328 1677.56,374.531 1680.09,377.743 1682.62,380.964 1685.15,384.193 
  1687.67,387.431 1690.2,390.676 1692.73,393.93 1695.26,397.191 1697.79,400.46 1700.32,403.737 1702.85,407.02 1705.38,410.31 1707.91,413.607 1710.44,416.911 
  1712.97,420.221 1715.49,423.537 1718.02,426.859 1720.55,430.186 1723.08,433.519 1725.61,436.858 1728.14,440.201 1730.67,443.549 1733.2,446.902 1735.73,450.259 
  1738.26,453.621 1740.79,456.987 1743.31,460.356 1745.84,463.729 1748.37,467.106 1750.9,470.485 1753.43,473.868 1755.96,477.253 1758.49,480.641 1761.02,484.032 
  1763.55,487.424 1766.08,490.819 1768.61,494.215 1771.13,497.613 1773.66,501.012 1776.19,504.412 1778.72,507.813 1781.25,511.215 1783.78,514.617 1786.31,518.02 
  1788.84,521.422 1791.37,524.824 1793.9,528.226 1796.43,531.628 1798.96,535.028 1801.48,538.428 1804.01,541.827 1806.54,545.224 1809.07,548.619 1811.6,552.013 
  1814.13,555.404 1816.66,558.793 1819.19,562.18 1821.72,565.564 1824.25,568.945 1826.78,572.323 1829.3,575.698 1831.83,579.069 1834.36,582.437 1836.89,585.801 
  1839.42,589.16 1841.95,592.515 1844.48,595.866 1847.01,599.212 1849.54,602.553 1852.07,605.888 1854.6,609.219 1857.12,612.543 1859.65,615.862 1862.18,619.175 
  1864.71,622.482 1867.24,625.782 1869.77,629.076 1872.3,632.363 1874.83,635.643 1877.36,638.915 1879.89,642.181 1882.42,645.438 1884.95,648.688 1887.47,651.93 
  1890,655.163 1892.53,658.388 1895.06,661.605 1897.59,664.812 1900.12,668.011 1902.65,671.2 1905.18,674.38 1907.71,677.551 1910.24,680.711 1912.77,683.862 
  1915.29,687.002 1917.82,690.132 1920.35,693.251 1922.88,696.36 1925.41,699.457 1927.94,702.544 1930.47,705.619 1933,708.682 1935.53,711.734 1938.06,714.774 
  1940.59,717.802 1943.11,720.817 1945.64,723.82 1948.17,726.81 1950.7,729.788 1953.23,732.752 1955.76,735.703 1958.29,738.641 1960.82,741.565 1963.35,744.476 
  1965.88,747.372 1968.41,750.254 1970.94,753.122 1973.46,755.976 1975.99,758.815 1978.52,761.639 1981.05,764.447 1983.58,767.241 1986.11,770.02 1988.64,772.783 
  1991.17,775.53 1993.7,778.261 1996.23,780.976 1998.76,783.676 2001.28,786.358 2003.81,789.024 2006.34,791.674 2008.87,794.306 2011.4,796.922 2013.93,799.52 
  2016.46,802.101 2018.99,804.665 2021.52,807.211 2024.05,809.739 2026.58,812.249 2029.1,814.74 2031.63,817.214 2034.16,819.669 2036.69,822.106 2039.22,824.523 
  2041.75,826.922 2044.28,829.302 2046.81,831.663 2049.34,834.004 2051.87,836.326 2054.4,838.628 2056.93,840.91 2059.45,843.173 2061.98,845.415 2064.51,847.637 
  2067.04,849.839 2069.57,852.021 2072.1,854.181 2074.63,856.321 2077.16,858.441 2079.69,860.539 2082.22,862.616 2084.75,864.672 2087.27,866.706 2089.8,868.719 
  2092.33,870.71 2094.86,872.68 2097.39,874.628 2099.92,876.553 2102.45,878.457 2104.98,880.338 2107.51,882.197 2110.04,884.034 2112.57,885.847 2115.09,887.639 
  2117.62,889.407 2120.15,891.153 2122.68,892.875 2125.21,894.574 2127.74,896.25 2130.27,897.903 2132.8,899.533 2135.33,901.138 2137.86,902.721 2140.39,904.279 
  2142.92,905.813 2145.44,907.324 2147.97,908.811 2150.5,910.273 2153.03,911.712 2155.56,913.126 2158.09,914.515 2160.62,915.88 2163.15,917.221 2165.68,918.537 
  2168.21,919.828 2170.74,921.095 2173.26,922.336 2175.79,923.553 2178.32,924.745 2180.85,925.911 2183.38,927.053 2185.91,928.169 2188.44,929.26 2190.97,930.325 
  2193.5,931.365 2196.03,932.379 2198.56,933.368 2201.08,934.332 2203.61,935.269 2206.14,936.181 2208.67,937.067 2211.2,937.927 2213.73,938.761 2216.26,939.57 
  2218.79,940.352 2221.32,941.108 2223.85,941.838 2226.38,942.542 2228.91,943.22 2231.43,943.871 2233.96,944.497 2236.49,945.096 2239.02,945.668 2241.55,946.214 
  2244.08,946.734 2246.61,947.227 2249.14,947.694 2251.67,948.134 2254.2,948.548 2256.73,948.935 2259.25,949.296 2261.78,949.63 2264.31,949.937 2266.84,950.217 
  2269.37,950.471 2271.9,950.699 2274.43,950.899 2276.96,951.073 2279.49,951.22 2282.02,951.341 2284.55,951.434 2287.07,951.501 2289.6,951.541 2292.13,951.555 
  
  "></polyline>
<polyline clip-path="url(#clip502)" style="stroke:#c271d2; stroke-linecap:round; stroke-linejoin:round; stroke-width:4; stroke-opacity:1; fill:none" stroke-dasharray="16, 10" points="
  271.369,951.555 273.898,954.957 276.427,958.359 278.956,961.761 281.485,965.163 284.014,968.563 286.544,971.962 289.073,975.36 291.602,978.757 294.131,982.152 
  296.66,985.545 299.189,988.936 301.718,992.325 304.247,995.711 306.776,999.094 309.306,1002.47 311.835,1005.85 314.364,1009.23 316.893,1012.6 319.422,1015.96 
  321.951,1019.33 324.48,1022.68 327.009,1026.04 329.539,1029.39 332.068,1032.73 334.597,1036.07 337.126,1039.41 339.655,1042.73 342.184,1046.06 344.713,1049.38 
  347.242,1052.69 349.771,1055.99 352.301,1059.29 354.83,1062.58 357.359,1065.87 359.888,1069.15 362.417,1072.42 364.946,1075.68 367.475,1078.94 370.004,1082.18 
  372.534,1085.42 375.063,1088.65 377.592,1091.88 380.121,1095.09 382.65,1098.3 385.179,1101.49 387.708,1104.68 390.237,1107.86 392.766,1111.03 395.296,1114.18 
  397.825,1117.33 400.354,1120.47 402.883,1123.6 405.412,1126.71 407.941,1129.82 410.47,1132.91 412.999,1136 415.529,1139.07 418.058,1142.13 420.587,1145.18 
  423.116,1148.22 425.645,1151.24 428.174,1154.25 430.703,1157.25 433.232,1160.24 435.761,1163.21 438.291,1166.18 440.82,1169.12 443.349,1172.06 445.878,1174.98 
  448.407,1177.89 450.936,1180.78 453.465,1183.66 455.994,1186.52 458.523,1189.37 461.053,1192.21 463.582,1195.03 466.111,1197.83 468.64,1200.62 471.169,1203.4 
  473.698,1206.16 476.227,1208.9 478.756,1211.63 481.286,1214.34 483.815,1217.03 486.344,1219.71 488.873,1222.37 491.402,1225.02 493.931,1227.65 496.46,1230.26 
  498.989,1232.85 501.518,1235.43 504.048,1237.99 506.577,1240.53 509.106,1243.05 511.635,1245.56 514.164,1248.05 516.693,1250.51 519.222,1252.96 521.751,1255.4 
  524.281,1257.81 526.81,1260.2 529.339,1262.58 531.868,1264.93 534.397,1267.27 536.926,1269.59 539.455,1271.88 541.984,1274.16 544.513,1276.42 547.043,1278.66 
  549.572,1280.87 552.101,1283.07 554.63,1285.25 557.159,1287.4 559.688,1289.54 562.217,1291.65 564.746,1293.74 567.276,1295.82 569.805,1297.87 572.334,1299.9 
  574.863,1301.9 577.392,1303.89 579.921,1305.85 582.45,1307.8 584.979,1309.72 587.508,1311.61 590.038,1313.49 592.567,1315.34 595.096,1317.17 597.625,1318.98 
  600.154,1320.77 602.683,1322.53 605.212,1324.27 607.741,1325.99 610.27,1327.68 612.8,1329.35 615.329,1331 617.858,1332.62 620.387,1334.22 622.916,1335.8 
  625.445,1337.35 627.974,1338.88 630.503,1340.38 633.033,1341.86 635.562,1343.32 638.091,1344.75 640.62,1346.16 643.149,1347.54 645.678,1348.9 648.207,1350.24 
  650.736,1351.55 653.265,1352.83 655.795,1354.09 658.324,1355.33 660.853,1356.54 663.382,1357.72 665.911,1358.88 668.44,1360.02 670.969,1361.13 673.498,1362.21 
  676.028,1363.27 678.557,1364.31 681.086,1365.31 683.615,1366.3 686.144,1367.25 688.673,1368.18 691.202,1369.09 693.731,1369.97 696.26,1370.82 698.79,1371.65 
  701.319,1372.45 703.848,1373.23 706.377,1373.98 708.906,1374.7 711.435,1375.4 713.964,1376.07 716.493,1376.71 719.022,1377.33 721.552,1377.93 724.081,1378.49 
  726.61,1379.03 729.139,1379.54 731.668,1380.03 734.197,1380.49 736.726,1380.92 739.255,1381.33 741.785,1381.71 744.314,1382.07 746.843,1382.39 749.372,1382.69 
  751.901,1382.97 754.43,1383.22 756.959,1383.44 759.488,1383.63 762.017,1383.8 764.547,1383.94 767.076,1384.05 769.605,1384.14 772.134,1384.2 774.663,1384.23 
  777.192,1384.24 779.721,1384.22 782.25,1384.17 784.78,1384.1 787.309,1384 789.838,1383.87 792.367,1383.72 794.896,1383.54 797.425,1383.33 799.954,1383.09 
  802.483,1382.83 805.012,1382.55 807.542,1382.23 810.071,1381.89 812.6,1381.53 815.129,1381.13 817.658,1380.71 820.187,1380.26 822.716,1379.79 825.245,1379.29 
  827.775,1378.76 830.304,1378.21 832.833,1377.63 835.362,1377.03 837.891,1376.4 840.42,1375.74 842.949,1375.05 845.478,1374.34 848.007,1373.61 850.537,1372.84 
  853.066,1372.05 855.595,1371.24 858.124,1370.4 860.653,1369.53 863.182,1368.64 865.711,1367.72 868.24,1366.78 870.769,1365.81 873.299,1364.81 875.828,1363.79 
  878.357,1362.75 880.886,1361.67 883.415,1360.58 885.944,1359.45 888.473,1358.31 891.002,1357.13 893.532,1355.94 896.061,1354.71 898.59,1353.46 901.119,1352.19 
  903.648,1350.89 906.177,1349.57 908.706,1348.23 911.235,1346.85 913.764,1345.46 916.294,1344.04 918.823,1342.59 921.352,1341.13 923.881,1339.63 926.41,1338.12 
  928.939,1336.58 931.468,1335.01 933.997,1333.42 936.527,1331.81 939.056,1330.18 941.585,1328.52 944.114,1326.84 946.643,1325.13 949.172,1323.4 951.701,1321.65 
  954.23,1319.88 956.759,1318.08 959.289,1316.26 961.818,1314.42 964.347,1312.55 966.876,1310.67 969.405,1308.76 971.934,1306.83 974.463,1304.87 976.992,1302.9 
  979.521,1300.9 982.051,1298.88 984.58,1296.84 987.109,1294.78 989.638,1292.7 992.167,1290.6 994.696,1288.47 997.225,1286.33 999.754,1284.16 1002.28,1281.98 
  1004.81,1279.77 1007.34,1277.54 1009.87,1275.29 1012.4,1273.03 1014.93,1270.74 1017.46,1268.43 1019.99,1266.1 1022.52,1263.76 1025.05,1261.39 1027.57,1259.01 
  1030.1,1256.61 1032.63,1254.18 1035.16,1251.74 1037.69,1249.28 1040.22,1246.8 1042.75,1244.31 1045.28,1241.79 1047.81,1239.26 1050.34,1236.71 1052.87,1234.14 
  1055.39,1231.56 1057.92,1228.95 1060.45,1226.33 1062.98,1223.7 1065.51,1221.04 1068.04,1218.37 1070.57,1215.69 1073.1,1212.98 1075.63,1210.26 1078.16,1207.53 
  1080.69,1204.78 1083.22,1202.01 1085.74,1199.23 1088.27,1196.43 1090.8,1193.62 1093.33,1190.79 1095.86,1187.95 1098.39,1185.09 1100.92,1182.22 1103.45,1179.33 
  1105.98,1176.43 1108.51,1173.52 1111.04,1170.59 1113.56,1167.65 1116.09,1164.7 1118.62,1161.73 1121.15,1158.75 1123.68,1155.76 1126.21,1152.75 1128.74,1149.73 
  1131.27,1146.7 1133.8,1143.66 1136.33,1140.6 1138.86,1137.54 1141.38,1134.46 1143.91,1131.37 1146.44,1128.27 1148.97,1125.16 1151.5,1122.03 1154.03,1118.9 
  1156.56,1115.76 1159.09,1112.61 1161.62,1109.44 1164.15,1106.27 1166.68,1103.09 1169.21,1099.9 1171.73,1096.7 1174.26,1093.49 1176.79,1090.27 1179.32,1087.04 
  1181.85,1083.8 1184.38,1080.56 1186.91,1077.31 1189.44,1074.05 1191.97,1070.78 1194.5,1067.51 1197.03,1064.23 1199.55,1060.94 1202.08,1057.64 1204.61,1054.34 
  1207.14,1051.03 1209.67,1047.72 1212.2,1044.4 1214.73,1041.07 1217.26,1037.74 1219.79,1034.4 1222.32,1031.06 1224.85,1027.71 1227.37,1024.36 1229.9,1021.01 
  1232.43,1017.64 1234.96,1014.28 1237.49,1010.91 1240.02,1007.54 1242.55,1004.16 1245.08,1000.78 1247.61,997.403 1250.14,994.018 1252.67,990.631 1255.2,987.241 
  1257.72,983.849 1260.25,980.455 1262.78,977.059 1265.31,973.662 1267.84,970.263 1270.37,966.863 1272.9,963.462 1275.43,960.06 1277.96,956.658 1280.49,953.256 
  1283.02,949.853 1285.54,946.451 1288.07,943.049 1290.6,939.647 1293.13,936.246 1295.66,932.846 1298.19,929.448 1300.72,926.05 1303.25,922.654 1305.78,919.26 
  1308.31,915.868 1310.84,912.479 1313.36,909.091 1315.89,905.706 1318.42,902.325 1320.95,898.946 1323.48,895.57 1326.01,892.198 1328.54,888.829 1331.07,885.465 
  1333.6,882.104 1336.13,878.748 1338.66,875.396 1341.19,872.049 1343.71,868.707 1346.24,865.37 1348.77,862.038 1351.3,858.712 1353.83,855.392 1356.36,852.077 
  1358.89,848.769 1361.42,845.467 1363.95,842.172 1366.48,838.883 1369.01,835.601 1371.53,832.327 1374.06,829.06 1376.59,825.8 1379.12,822.549 1381.65,819.305 
  1384.18,816.069 1386.71,812.842 1389.24,809.623 1391.77,806.413 1394.3,803.213 1396.83,800.021 1399.35,796.839 1401.88,793.666 1404.41,790.503 1406.94,787.35 
  1409.47,784.207 1412,781.074 1414.53,777.952 1417.06,774.841 1419.59,771.741 1422.12,768.651 1424.65,765.574 1427.18,762.507 1429.7,759.452 1432.23,756.41 
  1434.76,753.379 1437.29,750.36 1439.82,747.354 1442.35,744.361 1444.88,741.38 1447.41,738.412 1449.94,735.458 1452.47,732.517 1455,729.589 1457.52,726.676 
  1460.05,723.776 1462.58,720.89 1465.11,718.018 1467.64,715.161 1470.17,712.319 1472.7,709.491 1475.23,706.678 1477.76,703.881 1480.29,701.098 1482.82,698.331 
  1485.34,695.58 1487.87,692.845 1490.4,690.126 1492.93,687.423 1495.46,684.736 1497.99,682.065 1500.52,679.412 1503.05,676.775 1505.58,674.155 1508.11,671.552 
  1510.64,668.967 1513.17,666.399 1515.69,663.849 1518.22,661.316 1520.75,658.802 1523.28,656.306 1525.81,653.827 1528.34,651.368 1530.87,648.927 1533.4,646.504 
  1535.93,644.1 1538.46,641.716 1540.99,639.35 1543.51,637.004 1546.04,634.678 1548.57,632.371 1551.1,630.083 1553.63,627.816 1556.16,625.568 1558.69,623.341 
  1561.22,621.134 1563.75,618.948 1566.28,616.782 1568.81,614.636 1571.33,612.512 1573.86,610.408 1576.39,608.326 1578.92,606.265 1581.45,604.225 1583.98,602.207 
  1586.51,600.21 1589.04,598.235 1591.57,596.282 1594.1,594.351 1596.63,592.442 1599.16,590.555 1601.68,588.69 1604.21,586.848 1606.74,585.029 1609.27,583.232 
  1611.8,581.458 1614.33,579.706 1616.86,577.978 1619.39,576.273 1621.92,574.591 1624.45,572.933 1626.98,571.297 1629.5,569.686 1632.03,568.098 1634.56,566.533 
  1637.09,564.993 1639.62,563.476 1642.15,561.983 1644.68,560.515 1647.21,559.07 1649.74,557.65 1652.27,556.255 1654.8,554.883 1657.32,553.537 1659.85,552.214 
  1662.38,550.917 1664.91,549.644 1667.44,548.396 1669.97,547.174 1672.5,545.976 1675.03,544.803 1677.56,543.655 1680.09,542.533 1682.62,541.436 1685.15,540.364 
  1687.67,539.317 1690.2,538.297 1692.73,537.301 1695.26,536.332 1697.79,535.388 1700.32,534.469 1702.85,533.577 1705.38,532.71 1707.91,531.869 1710.44,531.055 
  1712.97,530.266 1715.49,529.503 1718.02,528.767 1720.55,528.056 1723.08,527.372 1725.61,526.714 1728.14,526.082 1730.67,525.476 1733.2,524.897 1735.73,524.345 
  1738.26,523.818 1740.79,523.318 1743.31,522.845 1745.84,522.398 1748.37,521.978 1750.9,521.584 1753.43,521.217 1755.96,520.876 1758.49,520.562 1761.02,520.275 
  1763.55,520.014 1766.08,519.78 1768.61,519.573 1771.13,519.393 1773.66,519.239 1776.19,519.112 1778.72,519.011 1781.25,518.938 1783.78,518.891 1786.31,518.871 
  1788.84,518.878 1791.37,518.911 1793.9,518.971 1796.43,519.058 1798.96,519.172 1801.48,519.312 1804.01,519.48 1806.54,519.673 1809.07,519.894 1811.6,520.141 
  1814.13,520.415 1816.66,520.716 1819.19,521.043 1821.72,521.397 1824.25,521.778 1826.78,522.185 1829.3,522.618 1831.83,523.078 1834.36,523.565 1836.89,524.078 
  1839.42,524.618 1841.95,525.184 1844.48,525.776 1847.01,526.395 1849.54,527.039 1852.07,527.711 1854.6,528.408 1857.12,529.132 1859.65,529.881 1862.18,530.657 
  1864.71,531.459 1867.24,532.287 1869.77,533.14 1872.3,534.02 1874.83,534.925 1877.36,535.856 1879.89,536.813 1882.42,537.796 1884.95,538.804 1887.47,539.837 
  1890,540.897 1892.53,541.981 1895.06,543.091 1897.59,544.226 1900.12,545.386 1902.65,546.571 1905.18,547.782 1907.71,549.017 1910.24,550.278 1912.77,551.563 
  1915.29,552.872 1917.82,554.207 1920.35,555.566 1922.88,556.949 1925.41,558.357 1927.94,559.79 1930.47,561.246 1933,562.727 1935.53,564.231 1938.06,565.76 
  1940.59,567.312 1943.11,568.889 1945.64,570.489 1948.17,572.112 1950.7,573.759 1953.23,575.429 1955.76,577.123 1958.29,578.839 1960.82,580.579 1963.35,582.342 
  1965.88,584.127 1968.41,585.936 1970.94,587.766 1973.46,589.62 1975.99,591.496 1978.52,593.394 1981.05,595.314 1983.58,597.256 1986.11,599.22 1988.64,601.206 
  1991.17,603.213 1993.7,605.242 1996.23,607.293 1998.76,609.365 2001.28,611.458 2003.81,613.572 2006.34,615.706 2008.87,617.862 2011.4,620.038 2013.93,622.235 
  2016.46,624.452 2018.99,626.69 2021.52,628.947 2024.05,631.224 2026.58,633.522 2029.1,635.839 2031.63,638.175 2034.16,640.531 2036.69,642.906 2039.22,645.3 
  2041.75,647.713 2044.28,650.145 2046.81,652.595 2049.34,655.064 2051.87,657.552 2054.4,660.057 2056.93,662.58 2059.45,665.122 2061.98,667.681 2064.51,670.258 
  2067.04,672.852 2069.57,675.463 2072.1,678.091 2074.63,680.736 2077.16,683.398 2079.69,686.077 2082.22,688.772 2084.75,691.483 2087.27,694.211 2089.8,696.954 
  2092.33,699.713 2094.86,702.487 2097.39,705.277 2099.92,708.083 2102.45,710.903 2104.98,713.738 2107.51,716.588 2110.04,719.452 2112.57,722.331 2115.09,725.224 
  2117.62,728.131 2120.15,731.051 2122.68,733.986 2125.21,736.934 2127.74,739.895 2130.27,742.869 2132.8,745.856 2135.33,748.856 2137.86,751.868 2140.39,754.893 
  2142.92,757.929 2145.44,760.978 2147.97,764.039 2150.5,767.111 2153.03,770.195 2155.56,773.289 2158.09,776.395 2160.62,779.512 2163.15,782.639 2165.68,785.777 
  2168.21,788.925 2170.74,792.083 2173.26,795.251 2175.79,798.429 2178.32,801.616 2180.85,804.812 2183.38,808.017 2185.91,811.232 2188.44,814.455 2190.97,817.686 
  2193.5,820.926 2196.03,824.173 2198.56,827.429 2201.08,830.692 2203.61,833.963 2206.14,837.241 2208.67,840.527 2211.2,843.819 2213.73,847.117 2216.26,850.422 
  2218.79,853.734 2221.32,857.051 2223.85,860.375 2226.38,863.703 2228.91,867.038 2231.43,870.377 2233.96,873.722 2236.49,877.071 2239.02,880.425 2241.55,883.784 
  2244.08,887.146 2246.61,890.513 2249.14,893.883 2251.67,897.257 2254.2,900.635 2256.73,904.015 2259.25,907.398 2261.78,910.785 2264.31,914.173 2266.84,917.564 
  2269.37,920.957 2271.9,924.352 2274.43,927.749 2276.96,931.147 2279.49,934.546 2282.02,937.947 2284.55,941.348 2287.07,944.75 2289.6,948.152 2292.13,951.555 
  
  "></polyline>
<path clip-path="url(#clip500)" d="
M1948.1 1377.32 L2281.36 1377.32 L2281.36 1118.12 L1948.1 1118.12  Z
  " fill="#ffffff" fill-rule="evenodd" fill-opacity="1"></path>
<polyline clip-path="url(#clip500)" style="stroke:#000000; stroke-linecap:round; stroke-linejoin:round; stroke-width:4; stroke-opacity:1; fill:none" points="
  1948.1,1377.32 2281.36,1377.32 2281.36,1118.12 1948.1,1118.12 1948.1,1377.32 
  "></polyline>
<polyline clip-path="url(#clip500)" style="stroke:#009af9; stroke-linecap:round; stroke-linejoin:round; stroke-width:4; stroke-opacity:1; fill:none" points="
  1971.9,1169.96 2114.71,1169.96 
  "></polyline>
<path clip-path="url(#clip500)" d="M2153.69 1165.29 Q2152.97 1164.87 2152.12 1164.69 Q2151.28 1164.48 2150.26 1164.48 Q2146.65 1164.48 2144.71 1166.84 Q2142.79 1169.18 2142.79 1173.58 L2142.79 1187.24 L2138.51 1187.24 L2138.51 1161.31 L2142.79 1161.31 L2142.79 1165.34 Q2144.13 1162.98 2146.28 1161.84 Q2148.44 1160.68 2151.51 1160.68 Q2151.95 1160.68 2152.49 1160.75 Q2153.02 1160.8 2153.67 1160.92 L2153.69 1165.29 Z" fill="#000000" fill-rule="evenodd" fill-opacity="1"></path><path clip-path="url(#clip500)" d="M2179.29 1173.21 L2179.29 1175.29 L2159.71 1175.29 Q2159.99 1179.69 2162.35 1182 Q2164.73 1184.3 2168.97 1184.3 Q2171.42 1184.3 2173.71 1183.69 Q2176.03 1183.09 2178.3 1181.89 L2178.3 1185.92 Q2176 1186.89 2173.6 1187.4 Q2171.19 1187.91 2168.71 1187.91 Q2162.51 1187.91 2158.88 1184.3 Q2155.26 1180.68 2155.26 1174.53 Q2155.26 1168.16 2158.69 1164.43 Q2162.14 1160.68 2167.97 1160.68 Q2173.2 1160.68 2176.24 1164.06 Q2179.29 1167.42 2179.29 1173.21 M2175.03 1171.96 Q2174.99 1168.46 2173.07 1166.38 Q2171.17 1164.3 2168.02 1164.3 Q2164.45 1164.3 2162.3 1166.31 Q2160.17 1168.32 2159.85 1171.98 L2175.03 1171.96 Z" fill="#000000" fill-rule="evenodd" fill-opacity="1"></path><path clip-path="url(#clip500)" d="M2196.51 1151.26 Q2193.41 1156.59 2191.91 1161.8 Q2190.4 1167 2190.4 1172.35 Q2190.4 1177.7 2191.91 1182.95 Q2193.44 1188.18 2196.51 1193.49 L2192.81 1193.49 Q2189.34 1188.05 2187.6 1182.79 Q2185.89 1177.54 2185.89 1172.35 Q2185.89 1167.19 2187.6 1161.96 Q2189.32 1156.73 2192.81 1151.26 L2196.51 1151.26 Z" fill="#000000" fill-rule="evenodd" fill-opacity="1"></path><path clip-path="url(#clip500)" d="M2219.89 1175.18 L2218.88 1169.83 Q2217.83 1164.34 2213.71 1164.34 Q2210.61 1164.34 2209.2 1166.89 Q2207.42 1170.08 2207.42 1174.3 Q2207.42 1179.39 2209.15 1181.82 Q2210.91 1184.3 2213.71 1184.3 Q2216.81 1184.3 2218.48 1179.36 L2219.89 1175.18 M2222.28 1168.09 L2224.57 1161.31 L2228.37 1161.31 L2223.62 1175.36 L2224.55 1180.43 Q2224.75 1181.56 2225.56 1182.51 Q2226.51 1183.62 2227.25 1183.62 L2229.29 1183.62 L2229.29 1187.24 L2226.75 1187.24 Q2224.57 1187.24 2222.63 1185.29 Q2221.68 1184.32 2221.28 1182.28 Q2220.22 1184.85 2218.04 1186.86 Q2217.02 1187.81 2213.71 1187.81 Q2208.27 1187.81 2205.63 1184.3 Q2202.93 1180.66 2202.93 1174.3 Q2202.93 1167.49 2205.87 1164.3 Q2209.13 1160.73 2213.71 1160.73 Q2220.91 1160.73 2222.28 1168.09 Z" fill="#000000" fill-rule="evenodd" fill-opacity="1"></path><path clip-path="url(#clip500)" d="M2235.36 1151.26 L2239.06 1151.26 Q2242.53 1156.73 2244.25 1161.96 Q2245.98 1167.19 2245.98 1172.35 Q2245.98 1177.54 2244.25 1182.79 Q2242.53 1188.05 2239.06 1193.49 L2235.36 1193.49 Q2238.44 1188.18 2239.94 1182.95 Q2241.47 1177.7 2241.47 1172.35 Q2241.47 1167 2239.94 1161.8 Q2238.44 1156.59 2235.36 1151.26 Z" fill="#000000" fill-rule="evenodd" fill-opacity="1"></path><polyline clip-path="url(#clip500)" style="stroke:#e26f46; stroke-linecap:round; stroke-linejoin:round; stroke-width:4; stroke-opacity:1; fill:none" stroke-dasharray="16, 10" points="
  1971.9,1221.8 2114.71,1221.8 
  "></polyline>
<path clip-path="url(#clip500)" d="M2138.51 1213.15 L2142.76 1213.15 L2142.76 1239.08 L2138.51 1239.08 L2138.51 1213.15 M2138.51 1203.06 L2142.76 1203.06 L2142.76 1208.45 L2138.51 1208.45 L2138.51 1203.06 Z" fill="#000000" fill-rule="evenodd" fill-opacity="1"></path><path clip-path="url(#clip500)" d="M2171.86 1218.13 Q2173.46 1215.26 2175.68 1213.89 Q2177.9 1212.52 2180.91 1212.52 Q2184.96 1212.52 2187.16 1215.37 Q2189.36 1218.2 2189.36 1223.43 L2189.36 1239.08 L2185.08 1239.08 L2185.08 1223.57 Q2185.08 1219.84 2183.76 1218.03 Q2182.44 1216.23 2179.73 1216.23 Q2176.42 1216.23 2174.5 1218.43 Q2172.58 1220.63 2172.58 1224.42 L2172.58 1239.08 L2168.3 1239.08 L2168.3 1223.57 Q2168.3 1219.82 2166.98 1218.03 Q2165.66 1216.23 2162.9 1216.23 Q2159.64 1216.23 2157.72 1218.45 Q2155.8 1220.65 2155.8 1224.42 L2155.8 1239.08 L2151.51 1239.08 L2151.51 1213.15 L2155.8 1213.15 L2155.8 1217.18 Q2157.26 1214.79 2159.29 1213.66 Q2161.33 1212.52 2164.13 1212.52 Q2166.95 1212.52 2168.92 1213.96 Q2170.91 1215.39 2171.86 1218.13 Z" fill="#000000" fill-rule="evenodd" fill-opacity="1"></path><path clip-path="url(#clip500)" d="M2208.09 1203.1 Q2204.99 1208.43 2203.48 1213.64 Q2201.98 1218.84 2201.98 1224.19 Q2201.98 1229.54 2203.48 1234.79 Q2205.01 1240.02 2208.09 1245.33 L2204.38 1245.33 Q2200.91 1239.89 2199.18 1234.63 Q2197.46 1229.38 2197.46 1224.19 Q2197.46 1219.03 2199.18 1213.8 Q2200.89 1208.57 2204.38 1203.1 L2208.09 1203.1 Z" fill="#000000" fill-rule="evenodd" fill-opacity="1"></path><path clip-path="url(#clip500)" d="M2231.47 1227.02 L2230.45 1221.67 Q2229.41 1216.18 2225.29 1216.18 Q2222.19 1216.18 2220.77 1218.73 Q2218.99 1221.92 2218.99 1226.14 Q2218.99 1231.23 2220.73 1233.66 Q2222.49 1236.14 2225.29 1236.14 Q2228.39 1236.14 2230.06 1231.2 L2231.47 1227.02 M2233.85 1219.93 L2236.14 1213.15 L2239.94 1213.15 L2235.19 1227.2 L2236.12 1232.27 Q2236.33 1233.4 2237.14 1234.35 Q2238.09 1235.46 2238.83 1235.46 L2240.87 1235.46 L2240.87 1239.08 L2238.32 1239.08 Q2236.14 1239.08 2234.2 1237.13 Q2233.25 1236.16 2232.86 1234.12 Q2231.79 1236.69 2229.62 1238.7 Q2228.6 1239.65 2225.29 1239.65 Q2219.85 1239.65 2217.21 1236.14 Q2214.5 1232.5 2214.5 1226.14 Q2214.5 1219.33 2217.44 1216.14 Q2220.7 1212.57 2225.29 1212.57 Q2232.49 1212.57 2233.85 1219.93 Z" fill="#000000" fill-rule="evenodd" fill-opacity="1"></path><path clip-path="url(#clip500)" d="M2246.93 1203.1 L2250.63 1203.1 Q2254.11 1208.57 2255.82 1213.8 Q2257.56 1219.03 2257.56 1224.19 Q2257.56 1229.38 2255.82 1234.63 Q2254.11 1239.89 2250.63 1245.33 L2246.93 1245.33 Q2250.01 1240.02 2251.51 1234.79 Q2253.04 1229.54 2253.04 1224.19 Q2253.04 1218.84 2251.51 1213.64 Q2250.01 1208.43 2246.93 1203.1 Z" fill="#000000" fill-rule="evenodd" fill-opacity="1"></path><polyline clip-path="url(#clip500)" style="stroke:#3da44d; stroke-linecap:round; stroke-linejoin:round; stroke-width:4; stroke-opacity:1; fill:none" points="
  1971.9,1273.64 2114.71,1273.64 
  "></polyline>
<path clip-path="url(#clip500)" d="M2153.69 1268.97 Q2152.97 1268.55 2152.12 1268.37 Q2151.28 1268.16 2150.26 1268.16 Q2146.65 1268.16 2144.71 1270.52 Q2142.79 1272.86 2142.79 1277.26 L2142.79 1290.92 L2138.51 1290.92 L2138.51 1264.99 L2142.79 1264.99 L2142.79 1269.02 Q2144.13 1266.66 2146.28 1265.52 Q2148.44 1264.36 2151.51 1264.36 Q2151.95 1264.36 2152.49 1264.43 Q2153.02 1264.48 2153.67 1264.6 L2153.69 1268.97 Z" fill="#000000" fill-rule="evenodd" fill-opacity="1"></path><path clip-path="url(#clip500)" d="M2179.29 1276.89 L2179.29 1278.97 L2159.71 1278.97 Q2159.99 1283.37 2162.35 1285.68 Q2164.73 1287.98 2168.97 1287.98 Q2171.42 1287.98 2173.71 1287.37 Q2176.03 1286.77 2178.3 1285.57 L2178.3 1289.6 Q2176 1290.57 2173.6 1291.08 Q2171.19 1291.59 2168.71 1291.59 Q2162.51 1291.59 2158.88 1287.98 Q2155.26 1284.36 2155.26 1278.21 Q2155.26 1271.84 2158.69 1268.11 Q2162.14 1264.36 2167.97 1264.36 Q2173.2 1264.36 2176.24 1267.74 Q2179.29 1271.1 2179.29 1276.89 M2175.03 1275.64 Q2174.99 1272.14 2173.07 1270.06 Q2171.17 1267.98 2168.02 1267.98 Q2164.45 1267.98 2162.3 1269.99 Q2160.17 1272 2159.85 1275.66 L2175.03 1275.64 Z" fill="#000000" fill-rule="evenodd" fill-opacity="1"></path><path clip-path="url(#clip500)" d="M2196.51 1254.94 Q2193.41 1260.27 2191.91 1265.48 Q2190.4 1270.68 2190.4 1276.03 Q2190.4 1281.38 2191.91 1286.63 Q2193.44 1291.86 2196.51 1297.17 L2192.81 1297.17 Q2189.34 1291.73 2187.6 1286.47 Q2185.89 1281.22 2185.89 1276.03 Q2185.89 1270.87 2187.6 1265.64 Q2189.32 1260.41 2192.81 1254.94 L2196.51 1254.94 Z" fill="#000000" fill-rule="evenodd" fill-opacity="1"></path><path clip-path="url(#clip500)" d="M2209.04 1289.32 L2209.04 1300.78 L2204.75 1300.78 L2204.75 1265.15 Q2204.75 1254.6 2214.62 1254.6 Q2224.66 1254.6 2224.66 1263.51 Q2224.66 1269.85 2220.68 1272.17 Q2227.16 1274.25 2227.16 1280.43 Q2227.16 1291.4 2216 1291.4 Q2211.1 1291.4 2209.04 1289.32 M2209.04 1283.76 Q2211.61 1287.77 2216.17 1287.77 Q2222.83 1287.77 2222.83 1280.5 Q2222.83 1273.97 2212.09 1274.48 L2212.09 1270.55 Q2220.5 1270.55 2220.5 1263.14 Q2220.5 1258.07 2215.08 1258.07 Q2209.04 1258.07 2209.04 1265.29 L2209.04 1283.76 Z" fill="#000000" fill-rule="evenodd" fill-opacity="1"></path><path clip-path="url(#clip500)" d="M2234.36 1254.94 L2238.06 1254.94 Q2241.54 1260.41 2243.25 1265.64 Q2244.99 1270.87 2244.99 1276.03 Q2244.99 1281.22 2243.25 1286.47 Q2241.54 1291.73 2238.06 1297.17 L2234.36 1297.17 Q2237.44 1291.86 2238.94 1286.63 Q2240.47 1281.38 2240.47 1276.03 Q2240.47 1270.68 2238.94 1265.48 Q2237.44 1260.27 2234.36 1254.94 Z" fill="#000000" fill-rule="evenodd" fill-opacity="1"></path><polyline clip-path="url(#clip500)" style="stroke:#c271d2; stroke-linecap:round; stroke-linejoin:round; stroke-width:4; stroke-opacity:1; fill:none" stroke-dasharray="16, 10" points="
  1971.9,1325.48 2114.71,1325.48 
  "></polyline>
<path clip-path="url(#clip500)" d="M2138.51 1316.83 L2142.76 1316.83 L2142.76 1342.76 L2138.51 1342.76 L2138.51 1316.83 M2138.51 1306.74 L2142.76 1306.74 L2142.76 1312.13 L2138.51 1312.13 L2138.51 1306.74 Z" fill="#000000" fill-rule="evenodd" fill-opacity="1"></path><path clip-path="url(#clip500)" d="M2171.86 1321.81 Q2173.46 1318.94 2175.68 1317.57 Q2177.9 1316.2 2180.91 1316.2 Q2184.96 1316.2 2187.16 1319.05 Q2189.36 1321.88 2189.36 1327.11 L2189.36 1342.76 L2185.08 1342.76 L2185.08 1327.25 Q2185.08 1323.52 2183.76 1321.71 Q2182.44 1319.91 2179.73 1319.91 Q2176.42 1319.91 2174.5 1322.11 Q2172.58 1324.31 2172.58 1328.1 L2172.58 1342.76 L2168.3 1342.76 L2168.3 1327.25 Q2168.3 1323.5 2166.98 1321.71 Q2165.66 1319.91 2162.9 1319.91 Q2159.64 1319.91 2157.72 1322.13 Q2155.8 1324.33 2155.8 1328.1 L2155.8 1342.76 L2151.51 1342.76 L2151.51 1316.83 L2155.8 1316.83 L2155.8 1320.86 Q2157.26 1318.47 2159.29 1317.34 Q2161.33 1316.2 2164.13 1316.2 Q2166.95 1316.2 2168.92 1317.64 Q2170.91 1319.07 2171.86 1321.81 Z" fill="#000000" fill-rule="evenodd" fill-opacity="1"></path><path clip-path="url(#clip500)" d="M2208.09 1306.78 Q2204.99 1312.11 2203.48 1317.32 Q2201.98 1322.52 2201.98 1327.87 Q2201.98 1333.22 2203.48 1338.47 Q2205.01 1343.7 2208.09 1349.01 L2204.38 1349.01 Q2200.91 1343.57 2199.18 1338.31 Q2197.46 1333.06 2197.46 1327.87 Q2197.46 1322.71 2199.18 1317.48 Q2200.89 1312.25 2204.38 1306.78 L2208.09 1306.78 Z" fill="#000000" fill-rule="evenodd" fill-opacity="1"></path><path clip-path="url(#clip500)" d="M2220.61 1341.16 L2220.61 1352.62 L2216.33 1352.62 L2216.33 1316.99 Q2216.33 1306.44 2226.19 1306.44 Q2236.24 1306.44 2236.24 1315.35 Q2236.24 1321.69 2232.25 1324.01 Q2238.74 1326.09 2238.74 1332.27 Q2238.74 1343.24 2227.58 1343.24 Q2222.67 1343.24 2220.61 1341.16 M2220.61 1335.6 Q2223.18 1339.61 2227.74 1339.61 Q2234.41 1339.61 2234.41 1332.34 Q2234.41 1325.81 2223.67 1326.32 L2223.67 1322.39 Q2232.07 1322.39 2232.07 1314.98 Q2232.07 1309.91 2226.65 1309.91 Q2220.61 1309.91 2220.61 1317.13 L2220.61 1335.6 Z" fill="#000000" fill-rule="evenodd" fill-opacity="1"></path><path clip-path="url(#clip500)" d="M2245.94 1306.78 L2249.64 1306.78 Q2253.11 1312.25 2254.82 1317.48 Q2256.56 1322.71 2256.56 1327.87 Q2256.56 1333.06 2254.82 1338.31 Q2253.11 1343.57 2249.64 1349.01 L2245.94 1349.01 Q2249.01 1343.7 2250.52 1338.47 Q2252.05 1333.22 2252.05 1327.87 Q2252.05 1322.52 2250.52 1317.32 Q2249.01 1312.11 2245.94 1306.78 Z" fill="#000000" fill-rule="evenodd" fill-opacity="1"></path></svg>