<svg xmlns="http://www.w3.org/2000/svg" xmlns:xlink="http://www.w3.org/1999/xlink" width="600" height="400" viewBox="0 0 2400 1600">
<defs>
  <clipPath id="clip200">
    <rect x="0" y="0" width="2400" height="1600"></rect>
  </clipPath>
</defs>
<path clip-path="url(#clip200)" d="
M0 1600 L2400 1600 L2400 0 L0 0  Z
  " fill="#ffffff" fill-rule="evenodd" fill-opacity="1"></path>
<defs>
  <clipPath id="clip201">
    <rect x="480" y="0" width="1681" height="1600"></rect>
  </clipPath>
</defs>
<path clip-path="url(#clip200)" d="
M247.459 1423.18 L2352.76 1423.18 L2352.76 47.2441 L247.459 47.2441  Z
  " fill="#ffffff" fill-rule="evenodd" fill-opacity="1"></path>
<defs>
  <clipPath id="clip202">
    <rect x="247" y="47" width="2106" height="1377"></rect>
  </clipPath>
</defs>
<polyline clip-path="url(#clip202)" style="stroke:#000000; stroke-linecap:round; stroke-linejoin:round; stroke-width:2; stroke-opacity:0.1; fill:none" points="
  307.043,1423.18 307.043,47.2441 
  "></polyline>
<polyline clip-path="url(#clip202)" style="stroke:#000000; stroke-linecap:round; stroke-linejoin:round; stroke-width:2; stroke-opacity:0.1; fill:none" points="
  2293.17,1423.18 2293.17,47.2441 
  "></polyline>
<polyline clip-path="url(#clip200)" style="stroke:#000000; stroke-linecap:round; stroke-linejoin:round; stroke-width:4; stroke-opacity:1; fill:none" points="
  247.459,1423.18 2352.76,1423.18 
  "></polyline>
<polyline clip-path="url(#clip200)" style="stroke:#000000; stroke-linecap:round; stroke-linejoin:round; stroke-width:4; stroke-opacity:1; fill:none" points="
  307.043,1423.18 307.043,1404.28 
  "></polyline>
<polyline clip-path="url(#clip200)" style="stroke:#000000; stroke-linecap:round; stroke-linejoin:round; stroke-width:4; stroke-opacity:1; fill:none" points="
  2293.17,1423.18 2293.17,1404.28 
  "></polyline>
<path clip-path="url(#clip200)" d="M307.043 1454.1 Q303.432 1454.1 301.603 1457.66 Q299.797 1461.2 299.797 1468.33 Q299.797 1475.44 301.603 1479.01 Q303.432 1482.55 307.043 1482.55 Q310.677 1482.55 312.482 1479.01 Q314.311 1475.44 314.311 1468.33 Q314.311 1461.2 312.482 1457.66 Q310.677 1454.1 307.043 1454.1 M307.043 1450.39 Q312.853 1450.39 315.908 1455 Q318.987 1459.58 318.987 1468.33 Q318.987 1477.06 315.908 1481.67 Q312.853 1486.25 307.043 1486.25 Q301.232 1486.25 298.154 1481.67 Q295.098 1477.06 295.098 1468.33 Q295.098 1459.58 298.154 1455 Q301.232 1450.39 307.043 1450.39 Z" fill="#000000" fill-rule="evenodd" fill-opacity="1"></path><path clip-path="url(#clip200)" d="M2271.84 1481.64 L2288.16 1481.64 L2288.16 1485.58 L2266.22 1485.58 L2266.22 1481.64 Q2268.88 1478.89 2273.46 1474.26 Q2278.07 1469.61 2279.25 1468.27 Q2281.49 1465.74 2282.37 1464.01 Q2283.28 1462.25 2283.28 1460.56 Q2283.28 1457.8 2281.33 1456.07 Q2279.41 1454.33 2276.31 1454.33 Q2274.11 1454.33 2271.66 1455.09 Q2269.23 1455.86 2266.45 1457.41 L2266.45 1452.69 Q2269.27 1451.55 2271.73 1450.97 Q2274.18 1450.39 2276.22 1450.39 Q2281.59 1450.39 2284.78 1453.08 Q2287.98 1455.77 2287.98 1460.26 Q2287.98 1462.39 2287.17 1464.31 Q2286.38 1466.2 2284.27 1468.8 Q2283.69 1469.47 2280.59 1472.69 Q2277.49 1475.88 2271.84 1481.64 Z" fill="#000000" fill-rule="evenodd" fill-opacity="1"></path><path clip-path="url(#clip200)" d="M2294.62 1459.65 L2319.46 1459.65 L2319.46 1463.91 L2316.19 1463.91 L2316.19 1479.84 Q2316.19 1481.51 2316.75 1482.25 Q2317.33 1482.96 2318.6 1482.96 Q2318.95 1482.96 2319.46 1482.92 Q2319.97 1482.85 2320.13 1482.83 L2320.13 1485.9 Q2319.32 1486.2 2318.46 1486.34 Q2317.6 1486.48 2316.75 1486.48 Q2313.97 1486.48 2312.91 1484.98 Q2311.84 1483.45 2311.84 1479.38 L2311.84 1463.91 L2302.28 1463.91 L2302.28 1485.58 L2297.93 1485.58 L2297.93 1463.91 L2294.62 1463.91 L2294.62 1459.65 Z" fill="#000000" fill-rule="evenodd" fill-opacity="1"></path><path clip-path="url(#clip200)" d="M1316.72 1532.4 L1303.83 1549.74 L1317.39 1568.04 L1310.48 1568.04 L1300.11 1554.04 L1289.73 1568.04 L1282.82 1568.04 L1296.67 1549.39 L1284 1532.4 L1290.91 1532.4 L1300.36 1545.1 L1309.82 1532.4 L1316.72 1532.4 Z" fill="#000000" fill-rule="evenodd" fill-opacity="1"></path><polyline clip-path="url(#clip202)" style="stroke:#000000; stroke-linecap:round; stroke-linejoin:round; stroke-width:2; stroke-opacity:0.1; fill:none" points="
  247.459,1384.24 2352.76,1384.24 
  "></polyline>
<polyline clip-path="url(#clip202)" style="stroke:#000000; stroke-linecap:round; stroke-linejoin:round; stroke-width:2; stroke-opacity:0.1; fill:none" points="
  247.459,1113.81 2352.76,1113.81 
  "></polyline>
<polyline clip-path="url(#clip202)" style="stroke:#000000; stroke-linecap:round; stroke-linejoin:round; stroke-width:2; stroke-opacity:0.1; fill:none" points="
  247.459,843.383 2352.76,843.383 
  "></polyline>
<polyline clip-path="url(#clip202)" style="stroke:#000000; stroke-linecap:round; stroke-linejoin:round; stroke-width:2; stroke-opacity:0.1; fill:none" points="
  247.459,572.955 2352.76,572.955 
  "></polyline>
<polyline clip-path="url(#clip202)" style="stroke:#000000; stroke-linecap:round; stroke-linejoin:round; stroke-width:2; stroke-opacity:0.1; fill:none" points="
  247.459,302.528 2352.76,302.528 
  "></polyline>
<polyline clip-path="url(#clip200)" style="stroke:#000000; stroke-linecap:round; stroke-linejoin:round; stroke-width:4; stroke-opacity:1; fill:none" points="
  247.459,1423.18 247.459,47.2441 
  "></polyline>
<polyline clip-path="url(#clip200)" style="stroke:#000000; stroke-linecap:round; stroke-linejoin:round; stroke-width:4; stroke-opacity:1; fill:none" points="
  247.459,1384.24 266.356,1384.24 
  "></polyline>
<polyline clip-path="url(#clip200)" style="stroke:#000000; stroke-linecap:round; stroke-linejoin:round; stroke-width:4; stroke-opacity:1; fill:none" points="
  247.459,1113.81 266.356,1113.81 
  "></polyline>
<polyline clip-path="url(#clip200)" style="stroke:#000000; stroke-linecap:round; stroke-linejoin:round; stroke-width:4; stroke-opacity:1; fill:none" points="
  247.459,843.383 266.356,843.383 
  "></polyline>
<polyline clip-path="url(#clip200)" style="stroke:#000000; stroke-linecap:round; stroke-linejoin:round; stroke-width:4; stroke-opacity:1; fill:none" points="
  247.459,572.955 266.356,572.955 
  "></polyline>
<polyline clip-path="url(#clip200)" style="stroke:#000000; stroke-linecap:round; stroke-linejoin:round; stroke-width:4; stroke-opacity:1; fill:none" points="
  247.459,302.528 266.356,302.528 
  "></polyline>
<path clip-path="url(#clip200)" d="M144.329 1366.96 L162.686 1366.96 L162.686 1370.89 L148.612 1370.89 L148.612 1379.37 Q149.63 1379.02 150.649 1378.86 Q151.667 1378.67 152.686 1378.67 Q158.473 1378.67 161.852 1381.84 Q165.232 1385.01 165.232 1390.43 Q165.232 1396.01 161.76 1399.11 Q158.288 1402.19 151.968 1402.19 Q149.792 1402.19 147.524 1401.82 Q145.279 1401.45 142.871 1400.71 L142.871 1396.01 Q144.954 1397.14 147.177 1397.7 Q149.399 1398.25 151.876 1398.25 Q155.88 1398.25 158.218 1396.15 Q160.556 1394.04 160.556 1390.43 Q160.556 1386.82 158.218 1384.71 Q155.88 1382.61 151.876 1382.61 Q150.001 1382.61 148.126 1383.02 Q146.274 1383.44 144.329 1384.32 L144.329 1366.96 Z" fill="#000000" fill-rule="evenodd" fill-opacity="1"></path><path clip-path="url(#clip200)" d="M174.445 1395.64 L179.329 1395.64 L179.329 1401.52 L174.445 1401.52 L174.445 1395.64 Z" fill="#000000" fill-rule="evenodd" fill-opacity="1"></path><path clip-path="url(#clip200)" d="M199.514 1370.04 Q195.903 1370.04 194.075 1373.6 Q192.269 1377.14 192.269 1384.27 Q192.269 1391.38 194.075 1394.94 Q195.903 1398.49 199.514 1398.49 Q203.149 1398.49 204.954 1394.94 Q206.783 1391.38 206.783 1384.27 Q206.783 1377.14 204.954 1373.6 Q203.149 1370.04 199.514 1370.04 M199.514 1366.33 Q205.324 1366.33 208.38 1370.94 Q211.459 1375.52 211.459 1384.27 Q211.459 1393 208.38 1397.61 Q205.324 1402.19 199.514 1402.19 Q193.704 1402.19 190.625 1397.61 Q187.57 1393 187.57 1384.27 Q187.57 1375.52 190.625 1370.94 Q193.704 1366.33 199.514 1366.33 Z" fill="#000000" fill-rule="evenodd" fill-opacity="1"></path><path clip-path="url(#clip200)" d="M144.098 1096.53 L166.32 1096.53 L166.32 1098.52 L153.774 1131.09 L148.89 1131.09 L160.695 1100.47 L144.098 1100.47 L144.098 1096.53 Z" fill="#000000" fill-rule="evenodd" fill-opacity="1"></path><path clip-path="url(#clip200)" d="M175.44 1125.21 L180.325 1125.21 L180.325 1131.09 L175.44 1131.09 L175.44 1125.21 Z" fill="#000000" fill-rule="evenodd" fill-opacity="1"></path><path clip-path="url(#clip200)" d="M190.556 1096.53 L208.912 1096.53 L208.912 1100.47 L194.838 1100.47 L194.838 1108.94 Q195.857 1108.59 196.875 1108.43 Q197.894 1108.24 198.912 1108.24 Q204.699 1108.24 208.079 1111.41 Q211.459 1114.59 211.459 1120 Q211.459 1125.58 207.987 1128.68 Q204.514 1131.76 198.195 1131.76 Q196.019 1131.76 193.75 1131.39 Q191.505 1131.02 189.098 1130.28 L189.098 1125.58 Q191.181 1126.72 193.403 1127.27 Q195.625 1127.83 198.102 1127.83 Q202.107 1127.83 204.445 1125.72 Q206.783 1123.61 206.783 1120 Q206.783 1116.39 204.445 1114.29 Q202.107 1112.18 198.102 1112.18 Q196.227 1112.18 194.352 1112.6 Q192.5 1113.01 190.556 1113.89 L190.556 1096.53 Z" fill="#000000" fill-rule="evenodd" fill-opacity="1"></path><path clip-path="url(#clip200)" d="M114.931 856.728 L122.57 856.728 L122.57 830.362 L114.26 832.029 L114.26 827.77 L122.524 826.103 L127.2 826.103 L127.2 856.728 L134.839 856.728 L134.839 860.663 L114.931 860.663 L114.931 856.728 Z" fill="#000000" fill-rule="evenodd" fill-opacity="1"></path><path clip-path="url(#clip200)" d="M154.283 829.182 Q150.672 829.182 148.843 832.747 Q147.038 836.288 147.038 843.418 Q147.038 850.524 148.843 854.089 Q150.672 857.631 154.283 857.631 Q157.917 857.631 159.723 854.089 Q161.552 850.524 161.552 843.418 Q161.552 836.288 159.723 832.747 Q157.917 829.182 154.283 829.182 M154.283 825.478 Q160.093 825.478 163.149 830.084 Q166.227 834.668 166.227 843.418 Q166.227 852.145 163.149 856.751 Q160.093 861.334 154.283 861.334 Q148.473 861.334 145.394 856.751 Q142.339 852.145 142.339 843.418 Q142.339 834.668 145.394 830.084 Q148.473 825.478 154.283 825.478 Z" fill="#000000" fill-rule="evenodd" fill-opacity="1"></path><path clip-path="url(#clip200)" d="M174.445 854.783 L179.329 854.783 L179.329 860.663 L174.445 860.663 L174.445 854.783 Z" fill="#000000" fill-rule="evenodd" fill-opacity="1"></path><path clip-path="url(#clip200)" d="M199.514 829.182 Q195.903 829.182 194.075 832.747 Q192.269 836.288 192.269 843.418 Q192.269 850.524 194.075 854.089 Q195.903 857.631 199.514 857.631 Q203.149 857.631 204.954 854.089 Q206.783 850.524 206.783 843.418 Q206.783 836.288 204.954 832.747 Q203.149 829.182 199.514 829.182 M199.514 825.478 Q205.324 825.478 208.38 830.084 Q211.459 834.668 211.459 843.418 Q211.459 852.145 208.38 856.751 Q205.324 861.334 199.514 861.334 Q193.704 861.334 190.625 856.751 Q187.57 852.145 187.57 843.418 Q187.57 834.668 190.625 830.084 Q193.704 825.478 199.514 825.478 Z" fill="#000000" fill-rule="evenodd" fill-opacity="1"></path><path clip-path="url(#clip200)" d="M115.927 586.3 L123.566 586.3 L123.566 559.935 L115.256 561.601 L115.256 557.342 L123.519 555.675 L128.195 555.675 L128.195 586.3 L135.834 586.3 L135.834 590.235 L115.927 590.235 L115.927 586.3 Z" fill="#000000" fill-rule="evenodd" fill-opacity="1"></path><path clip-path="url(#clip200)" d="M149.306 586.3 L165.626 586.3 L165.626 590.235 L143.681 590.235 L143.681 586.3 Q146.343 583.546 150.927 578.916 Q155.533 574.263 156.714 572.921 Q158.959 570.398 159.839 568.661 Q160.741 566.902 160.741 565.212 Q160.741 562.458 158.797 560.722 Q156.876 558.986 153.774 558.986 Q151.575 558.986 149.121 559.749 Q146.691 560.513 143.913 562.064 L143.913 557.342 Q146.737 556.208 149.191 555.629 Q151.644 555.05 153.681 555.05 Q159.052 555.05 162.246 557.736 Q165.44 560.421 165.44 564.911 Q165.44 567.041 164.63 568.962 Q163.843 570.86 161.737 573.453 Q161.158 574.124 158.056 577.342 Q154.954 580.536 149.306 586.3 Z" fill="#000000" fill-rule="evenodd" fill-opacity="1"></path><path clip-path="url(#clip200)" d="M175.44 584.356 L180.325 584.356 L180.325 590.235 L175.44 590.235 L175.44 584.356 Z" fill="#000000" fill-rule="evenodd" fill-opacity="1"></path><path clip-path="url(#clip200)" d="M190.556 555.675 L208.912 555.675 L208.912 559.611 L194.838 559.611 L194.838 568.083 Q195.857 567.736 196.875 567.573 Q197.894 567.388 198.912 567.388 Q204.699 567.388 208.079 570.56 Q211.459 573.731 211.459 579.147 Q211.459 584.726 207.987 587.828 Q204.514 590.907 198.195 590.907 Q196.019 590.907 193.75 590.536 Q191.505 590.166 189.098 589.425 L189.098 584.726 Q191.181 585.86 193.403 586.416 Q195.625 586.972 198.102 586.972 Q202.107 586.972 204.445 584.865 Q206.783 582.759 206.783 579.147 Q206.783 575.536 204.445 573.43 Q202.107 571.323 198.102 571.323 Q196.227 571.323 194.352 571.74 Q192.5 572.157 190.556 573.036 L190.556 555.675 Z" fill="#000000" fill-rule="evenodd" fill-opacity="1"></path><path clip-path="url(#clip200)" d="M114.931 315.873 L122.57 315.873 L122.57 289.507 L114.26 291.174 L114.26 286.914 L122.524 285.248 L127.2 285.248 L127.2 315.873 L134.839 315.873 L134.839 319.808 L114.931 319.808 L114.931 315.873 Z" fill="#000000" fill-rule="evenodd" fill-opacity="1"></path><path clip-path="url(#clip200)" d="M144.329 285.248 L162.686 285.248 L162.686 289.183 L148.612 289.183 L148.612 297.655 Q149.63 297.308 150.649 297.146 Q151.667 296.961 152.686 296.961 Q158.473 296.961 161.852 300.132 Q165.232 303.303 165.232 308.72 Q165.232 314.299 161.76 317.4 Q158.288 320.479 151.968 320.479 Q149.792 320.479 147.524 320.109 Q145.279 319.738 142.871 318.998 L142.871 314.299 Q144.954 315.433 147.177 315.988 Q149.399 316.544 151.876 316.544 Q155.88 316.544 158.218 314.437 Q160.556 312.331 160.556 308.72 Q160.556 305.109 158.218 303.002 Q155.88 300.896 151.876 300.896 Q150.001 300.896 148.126 301.312 Q146.274 301.729 144.329 302.609 L144.329 285.248 Z" fill="#000000" fill-rule="evenodd" fill-opacity="1"></path><path clip-path="url(#clip200)" d="M174.445 313.928 L179.329 313.928 L179.329 319.808 L174.445 319.808 L174.445 313.928 Z" fill="#000000" fill-rule="evenodd" fill-opacity="1"></path><path clip-path="url(#clip200)" d="M199.514 288.326 Q195.903 288.326 194.075 291.891 Q192.269 295.433 192.269 302.562 Q192.269 309.669 194.075 313.234 Q195.903 316.775 199.514 316.775 Q203.149 316.775 204.954 313.234 Q206.783 309.669 206.783 302.562 Q206.783 295.433 204.954 291.891 Q203.149 288.326 199.514 288.326 M199.514 284.623 Q205.324 284.623 208.38 289.229 Q211.459 293.813 211.459 302.562 Q211.459 311.289 208.38 315.896 Q205.324 320.479 199.514 320.479 Q193.704 320.479 190.625 315.896 Q187.57 311.289 187.57 302.562 Q187.57 293.813 190.625 289.229 Q193.704 284.623 199.514 284.623 Z" fill="#000000" fill-rule="evenodd" fill-opacity="1"></path><path clip-path="url(#clip200)" d="M33.8307 917.478 Q33.2578 918.465 33.0032 919.642 Q32.7167 920.788 32.7167 922.189 Q32.7167 927.154 35.9632 929.828 Q39.1779 932.469 45.2253 932.469 L64.0042 932.469 L64.0042 938.358 L28.3562 938.358 L28.3562 932.469 L33.8944 932.469 Q30.6479 930.623 29.0883 927.663 Q27.4968 924.703 27.4968 920.47 Q27.4968 919.865 27.5923 919.133 Q27.656 918.401 27.8151 917.51 L33.8307 917.478 Z" fill="#000000" fill-rule="evenodd" fill-opacity="1"></path><path clip-path="url(#clip200)" d="M44.7161 882.276 L47.5806 882.276 L47.5806 909.203 Q53.6281 908.821 56.8109 905.574 Q59.9619 902.296 59.9619 896.471 Q59.9619 893.097 59.1344 889.946 Q58.3069 886.764 56.6518 883.644 L62.1899 883.644 Q63.5267 886.795 64.227 890.106 Q64.9272 893.416 64.9272 896.821 Q64.9272 905.351 59.9619 910.348 Q54.9967 915.314 46.5303 915.314 Q37.7774 915.314 32.6531 910.603 Q27.4968 905.861 27.4968 897.84 Q27.4968 890.647 32.1438 886.477 Q36.7589 882.276 44.7161 882.276 M42.9973 888.132 Q38.1912 888.196 35.3266 890.838 Q32.4621 893.448 32.4621 897.776 Q32.4621 902.678 35.2312 905.638 Q38.0002 908.566 43.0292 909.012 L42.9973 888.132 Z" fill="#000000" fill-rule="evenodd" fill-opacity="1"></path><path clip-path="url(#clip200)" d="M14.479 872.663 L14.479 866.807 L64.0042 866.807 L64.0042 872.663 L14.479 872.663 Z" fill="#000000" fill-rule="evenodd" fill-opacity="1"></path><path clip-path="url(#clip200)" d="M46.0847 838.352 Q46.0847 845.45 47.7079 848.187 Q49.3312 850.925 53.2461 850.925 Q56.3653 850.925 58.2114 848.888 Q60.0256 846.819 60.0256 843.286 Q60.0256 838.416 56.5881 835.488 Q53.1188 832.528 47.3897 832.528 L46.0847 832.528 L46.0847 838.352 M43.6657 826.671 L64.0042 826.671 L64.0042 832.528 L58.5933 832.528 Q61.8398 834.533 63.3994 837.525 Q64.9272 840.517 64.9272 844.845 Q64.9272 850.32 61.8716 853.566 Q58.7843 856.781 53.6281 856.781 Q47.6125 856.781 44.5569 852.771 Q41.5014 848.728 41.5014 840.739 L41.5014 832.528 L40.9285 832.528 Q36.8862 832.528 34.6901 835.201 Q32.4621 837.843 32.4621 842.649 Q32.4621 845.705 33.1941 848.601 Q33.9262 851.498 35.3903 854.171 L29.9795 854.171 Q28.7381 850.956 28.1334 847.933 Q27.4968 844.909 27.4968 842.044 Q27.4968 834.31 31.5072 830.491 Q35.5176 826.671 43.6657 826.671 Z" fill="#000000" fill-rule="evenodd" fill-opacity="1"></path><path clip-path="url(#clip200)" d="M18.2347 808.815 L28.3562 808.815 L28.3562 796.752 L32.9077 796.752 L32.9077 808.815 L52.2594 808.815 Q56.6199 808.815 57.8613 807.638 Q59.1026 806.428 59.1026 802.768 L59.1026 796.752 L64.0042 796.752 L64.0042 802.768 Q64.0042 809.548 61.4897 812.126 Q58.9434 814.704 52.2594 814.704 L32.9077 814.704 L32.9077 819.001 L28.3562 819.001 L28.3562 814.704 L18.2347 814.704 L18.2347 808.815 Z" fill="#000000" fill-rule="evenodd" fill-opacity="1"></path><path clip-path="url(#clip200)" d="M28.3562 789.05 L28.3562 783.193 L64.0042 783.193 L64.0042 789.05 L28.3562 789.05 M14.479 789.05 L14.479 783.193 L21.895 783.193 L21.895 789.05 L14.479 789.05 Z" fill="#000000" fill-rule="evenodd" fill-opacity="1"></path><path clip-path="url(#clip200)" d="M28.3562 775.141 L28.3562 768.934 L58.275 757.794 L28.3562 746.654 L28.3562 740.448 L64.0042 753.816 L64.0042 761.773 L28.3562 775.141 Z" fill="#000000" fill-rule="evenodd" fill-opacity="1"></path><path clip-path="url(#clip200)" d="M44.7161 701.872 L47.5806 701.872 L47.5806 728.799 Q53.6281 728.417 56.8109 725.17 Q59.9619 721.892 59.9619 716.067 Q59.9619 712.693 59.1344 709.542 Q58.3069 706.359 56.6518 703.24 L62.1899 703.24 Q63.5267 706.391 64.227 709.701 Q64.9272 713.012 64.9272 716.417 Q64.9272 724.947 59.9619 729.944 Q54.9967 734.91 46.5303 734.91 Q37.7774 734.91 32.6531 730.199 Q27.4968 725.457 27.4968 717.436 Q27.4968 710.242 32.1438 706.073 Q36.7589 701.872 44.7161 701.872 M42.9973 707.728 Q38.1912 707.792 35.3266 710.433 Q32.4621 713.043 32.4621 717.372 Q32.4621 722.274 35.2312 725.234 Q38.0002 728.162 43.0292 728.608 L42.9973 707.728 Z" fill="#000000" fill-rule="evenodd" fill-opacity="1"></path><path clip-path="url(#clip200)" d="M33.8307 650.882 Q33.2578 651.869 33.0032 653.047 Q32.7167 654.192 32.7167 655.593 Q32.7167 660.558 35.9632 663.232 Q39.1779 665.874 45.2253 665.874 L64.0042 665.874 L64.0042 671.762 L28.3562 671.762 L28.3562 665.874 L33.8944 665.874 Q30.6479 664.027 29.0883 661.067 Q27.4968 658.107 27.4968 653.874 Q27.4968 653.269 27.5923 652.537 Q27.656 651.805 27.8151 650.914 L33.8307 650.882 Z" fill="#000000" fill-rule="evenodd" fill-opacity="1"></path><path clip-path="url(#clip200)" d="M46.0847 628.539 Q46.0847 635.636 47.7079 638.374 Q49.3312 641.111 53.2461 641.111 Q56.3653 641.111 58.2114 639.074 Q60.0256 637.005 60.0256 633.472 Q60.0256 628.602 56.5881 625.674 Q53.1188 622.714 47.3897 622.714 L46.0847 622.714 L46.0847 628.539 M43.6657 616.858 L64.0042 616.858 L64.0042 622.714 L58.5933 622.714 Q61.8398 624.719 63.3994 627.711 Q64.9272 630.703 64.9272 635.032 Q64.9272 640.506 61.8716 643.753 Q58.7843 646.967 53.6281 646.967 Q47.6125 646.967 44.5569 642.957 Q41.5014 638.915 41.5014 630.926 L41.5014 622.714 L40.9285 622.714 Q36.8862 622.714 34.6901 625.388 Q32.4621 628.029 32.4621 632.835 Q32.4621 635.891 33.1941 638.787 Q33.9262 641.684 35.3903 644.357 L29.9795 644.357 Q28.7381 641.143 28.1334 638.119 Q27.4968 635.095 27.4968 632.231 Q27.4968 624.496 31.5072 620.677 Q35.5176 616.858 43.6657 616.858 Z" fill="#000000" fill-rule="evenodd" fill-opacity="1"></path><path clip-path="url(#clip200)" d="M42.4881 575.162 L64.0042 575.162 L64.0042 581.019 L42.679 581.019 Q37.6183 581.019 35.1038 582.992 Q32.5894 584.965 32.5894 588.912 Q32.5894 593.655 35.6131 596.392 Q38.6368 599.129 43.8567 599.129 L64.0042 599.129 L64.0042 605.017 L28.3562 605.017 L28.3562 599.129 L33.8944 599.129 Q30.6797 597.028 29.0883 594.196 Q27.4968 591.331 27.4968 587.607 Q27.4968 581.464 31.3163 578.313 Q35.1038 575.162 42.4881 575.162 Z" fill="#000000" fill-rule="evenodd" fill-opacity="1"></path><path clip-path="url(#clip200)" d="M14.479 563.704 L14.479 557.816 L43.7294 557.816 L28.3562 540.342 L28.3562 532.862 L45.0344 551.768 L64.0042 532.066 L64.0042 539.705 L46.5939 557.816 L64.0042 557.816 L64.0042 563.704 L14.479 563.704 Z" fill="#000000" fill-rule="evenodd" fill-opacity="1"></path><polyline clip-path="url(#clip202)" style="stroke:#009af9; stroke-linecap:round; stroke-linejoin:round; stroke-width:4; stroke-opacity:1; fill:none" points="
  307.043,194.357 411.576,1276.07 516.109,1384.24 620.642,1384.24 725.175,1384.24 829.708,1384.24 934.241,1384.24 1038.77,1384.24 1143.31,1384.24 1247.84,1384.24 
  1352.37,1384.24 1456.91,1384.24 1561.44,1384.24 1665.97,1384.24 1770.51,1384.24 1875.04,1384.24 1979.57,1384.24 2084.11,1384.24 2188.64,1167.9 2293.17,194.357 
  
  "></polyline>
<polyline clip-path="url(#clip202)" style="stroke:#e26f46; stroke-linecap:round; stroke-linejoin:round; stroke-width:4; stroke-opacity:1; fill:none" points="
  307.043,86.1857 411.576,1167.9 516.109,1276.07 620.642,1276.07 725.175,1384.24 829.708,1384.24 934.241,1384.24 1038.77,1384.24 1143.31,1384.24 1247.84,1384.24 
  1352.37,1384.24 1456.91,1384.24 1561.44,1384.24 1665.97,1384.24 1770.51,1384.24 1875.04,1384.24 1979.57,1276.07 2084.11,1276.07 2188.64,1059.73 2293.17,86.1857 
  
  "></polyline>
<polyline clip-path="url(#clip202)" style="stroke:#3da44d; stroke-linecap:round; stroke-linejoin:round; stroke-width:4; stroke-opacity:1; fill:none" points="
  307.043,86.1857 411.576,1167.9 516.109,1276.07 620.642,1384.24 725.175,1384.24 829.708,1384.24 934.241,1384.24 1038.77,1384.24 1143.31,1384.24 1247.84,1384.24 
  1352.37,1384.24 1456.91,1384.24 1561.44,1384.24 1665.97,1384.24 1770.51,1384.24 1875.04,1384.24 1979.57,1384.24 2084.11,1276.07 2188.64,1059.73 2293.17,86.1857 
  
  "></polyline>
<path clip-path="url(#clip200)" d="
M1846.45 300.469 L2282.58 300.469 L2282.58 93.1086 L1846.45 93.1086  Z
  " fill="#ffffff" fill-rule="evenodd" fill-opacity="1"></path>
<polyline clip-path="url(#clip200)" style="stroke:#000000; stroke-linecap:round; stroke-linejoin:round; stroke-width:4; stroke-opacity:1; fill:none" points="
  1846.45,300.469 2282.58,300.469 2282.58,93.1086 1846.45,93.1086 1846.45,300.469 
  "></polyline>
<polyline clip-path="url(#clip200)" style="stroke:#009af9; stroke-linecap:round; stroke-linejoin:round; stroke-width:4; stroke-opacity:1; fill:none" points="
  1869.84,144.949 2010.19,144.949 
  "></polyline>
<path clip-path="url(#clip200)" d="M2033.59 126.21 L2037.87 126.21 L2037.87 147.483 L2050.58 136.303 L2056.02 136.303 L2042.27 148.432 L2056.6 162.229 L2051.04 162.229 L2037.87 149.567 L2037.87 162.229 L2033.59 162.229 L2033.59 126.21 Z" fill="#000000" fill-rule="evenodd" fill-opacity="1"></path><path clip-path="url(#clip200)" d="M2061.76 140.701 L2091.43 140.701 L2091.43 144.59 L2061.76 144.59 L2061.76 140.701 M2061.76 150.145 L2091.43 150.145 L2091.43 154.081 L2061.76 154.081 L2061.76 150.145 Z" fill="#000000" fill-rule="evenodd" fill-opacity="1"></path><path clip-path="url(#clip200)" d="M2102.34 158.293 L2109.97 158.293 L2109.97 131.928 L2101.66 133.595 L2101.66 129.335 L2109.93 127.669 L2114.6 127.669 L2114.6 158.293 L2122.24 158.293 L2122.24 162.229 L2102.34 162.229 L2102.34 158.293 Z" fill="#000000" fill-rule="evenodd" fill-opacity="1"></path><path clip-path="url(#clip200)" d="M2141.69 130.747 Q2138.08 130.747 2136.25 134.312 Q2134.44 137.854 2134.44 144.983 Q2134.44 152.09 2136.25 155.655 Q2138.08 159.196 2141.69 159.196 Q2145.32 159.196 2147.13 155.655 Q2148.96 152.09 2148.96 144.983 Q2148.96 137.854 2147.13 134.312 Q2145.32 130.747 2141.69 130.747 M2141.69 127.044 Q2147.5 127.044 2150.55 131.65 Q2153.63 136.233 2153.63 144.983 Q2153.63 153.71 2150.55 158.317 Q2147.5 162.9 2141.69 162.9 Q2135.88 162.9 2132.8 158.317 Q2129.74 153.71 2129.74 144.983 Q2129.74 136.233 2132.8 131.65 Q2135.88 127.044 2141.69 127.044 Z" fill="#000000" fill-rule="evenodd" fill-opacity="1"></path><path clip-path="url(#clip200)" d="M2161.85 156.349 L2166.73 156.349 L2166.73 162.229 L2161.85 162.229 L2161.85 156.349 Z" fill="#000000" fill-rule="evenodd" fill-opacity="1"></path><path clip-path="url(#clip200)" d="M2186.92 130.747 Q2183.31 130.747 2181.48 134.312 Q2179.67 137.854 2179.67 144.983 Q2179.67 152.09 2181.48 155.655 Q2183.31 159.196 2186.92 159.196 Q2190.55 159.196 2192.36 155.655 Q2194.19 152.09 2194.19 144.983 Q2194.19 137.854 2192.36 134.312 Q2190.55 130.747 2186.92 130.747 M2186.92 127.044 Q2192.73 127.044 2195.78 131.65 Q2198.86 136.233 2198.86 144.983 Q2198.86 153.71 2195.78 158.317 Q2192.73 162.9 2186.92 162.9 Q2181.11 162.9 2178.03 158.317 Q2174.97 153.71 2174.97 144.983 Q2174.97 136.233 2178.03 131.65 Q2181.11 127.044 2186.92 127.044 Z" fill="#000000" fill-rule="evenodd" fill-opacity="1"></path><polyline clip-path="url(#clip200)" style="stroke:#e26f46; stroke-linecap:round; stroke-linejoin:round; stroke-width:4; stroke-opacity:1; fill:none" points="
  1869.84,196.789 2010.19,196.789 
  "></polyline>
<path clip-path="url(#clip200)" d="M2033.59 178.05 L2037.87 178.05 L2037.87 199.323 L2050.58 188.143 L2056.02 188.143 L2042.27 200.272 L2056.6 214.069 L2051.04 214.069 L2037.87 201.407 L2037.87 214.069 L2033.59 214.069 L2033.59 178.05 Z" fill="#000000" fill-rule="evenodd" fill-opacity="1"></path><path clip-path="url(#clip200)" d="M2061.76 192.541 L2091.43 192.541 L2091.43 196.43 L2061.76 196.43 L2061.76 192.541 M2061.76 201.985 L2091.43 201.985 L2091.43 205.921 L2061.76 205.921 L2061.76 201.985 Z" fill="#000000" fill-rule="evenodd" fill-opacity="1"></path><path clip-path="url(#clip200)" d="M2102.34 210.133 L2109.97 210.133 L2109.97 183.768 L2101.66 185.435 L2101.66 181.175 L2109.93 179.509 L2114.6 179.509 L2114.6 210.133 L2122.24 210.133 L2122.24 214.069 L2102.34 214.069 L2102.34 210.133 Z" fill="#000000" fill-rule="evenodd" fill-opacity="1"></path><path clip-path="url(#clip200)" d="M2141.69 182.587 Q2138.08 182.587 2136.25 186.152 Q2134.44 189.694 2134.44 196.823 Q2134.44 203.93 2136.25 207.495 Q2138.08 211.036 2141.69 211.036 Q2145.32 211.036 2147.13 207.495 Q2148.96 203.93 2148.96 196.823 Q2148.96 189.694 2147.13 186.152 Q2145.32 182.587 2141.69 182.587 M2141.69 178.884 Q2147.5 178.884 2150.55 183.49 Q2153.63 188.073 2153.63 196.823 Q2153.63 205.55 2150.55 210.157 Q2147.5 214.74 2141.69 214.74 Q2135.88 214.74 2132.8 210.157 Q2129.74 205.55 2129.74 196.823 Q2129.74 188.073 2132.8 183.49 Q2135.88 178.884 2141.69 178.884 Z" fill="#000000" fill-rule="evenodd" fill-opacity="1"></path><path clip-path="url(#clip200)" d="M2171.85 182.587 Q2168.24 182.587 2166.41 186.152 Q2164.6 189.694 2164.6 196.823 Q2164.6 203.93 2166.41 207.495 Q2168.24 211.036 2171.85 211.036 Q2175.48 211.036 2177.29 207.495 Q2179.12 203.93 2179.12 196.823 Q2179.12 189.694 2177.29 186.152 Q2175.48 182.587 2171.85 182.587 M2171.85 178.884 Q2177.66 178.884 2180.72 183.49 Q2183.79 188.073 2183.79 196.823 Q2183.79 205.55 2180.72 210.157 Q2177.66 214.74 2171.85 214.74 Q2166.04 214.74 2162.96 210.157 Q2159.91 205.55 2159.91 196.823 Q2159.91 188.073 2162.96 183.49 Q2166.04 178.884 2171.85 178.884 Z" fill="#000000" fill-rule="evenodd" fill-opacity="1"></path><path clip-path="url(#clip200)" d="M2192.01 208.189 L2196.9 208.189 L2196.9 214.069 L2192.01 214.069 L2192.01 208.189 Z" fill="#000000" fill-rule="evenodd" fill-opacity="1"></path><path clip-path="url(#clip200)" d="M2217.08 182.587 Q2213.47 182.587 2211.64 186.152 Q2209.84 189.694 2209.84 196.823 Q2209.84 203.93 2211.64 207.495 Q2213.47 211.036 2217.08 211.036 Q2220.72 211.036 2222.52 207.495 Q2224.35 203.93 2224.35 196.823 Q2224.35 189.694 2222.52 186.152 Q2220.72 182.587 2217.08 182.587 M2217.08 178.884 Q2222.89 178.884 2225.95 183.49 Q2229.03 188.073 2229.03 196.823 Q2229.03 205.55 2225.95 210.157 Q2222.89 214.74 2217.08 214.74 Q2211.27 214.74 2208.19 210.157 Q2205.14 205.55 2205.14 196.823 Q2205.14 188.073 2208.19 183.49 Q2211.27 178.884 2217.08 178.884 Z" fill="#000000" fill-rule="evenodd" fill-opacity="1"></path><polyline clip-path="url(#clip200)" style="stroke:#3da44d; stroke-linecap:round; stroke-linejoin:round; stroke-width:4; stroke-opacity:1; fill:none" points="
  1869.84,248.629 2010.19,248.629 
  "></polyline>
<path clip-path="url(#clip200)" d="M2033.59 229.89 L2037.87 229.89 L2037.87 251.163 L2050.58 239.983 L2056.02 239.983 L2042.27 252.112 L2056.6 265.909 L2051.04 265.909 L2037.87 253.247 L2037.87 265.909 L2033.59 265.909 L2033.59 229.89 Z" fill="#000000" fill-rule="evenodd" fill-opacity="1"></path><path clip-path="url(#clip200)" d="M2061.76 244.381 L2091.43 244.381 L2091.43 248.27 L2061.76 248.27 L2061.76 244.381 M2061.76 253.825 L2091.43 253.825 L2091.43 257.761 L2061.76 257.761 L2061.76 253.825 Z" fill="#000000" fill-rule="evenodd" fill-opacity="1"></path><path clip-path="url(#clip200)" d="M2102.34 261.973 L2109.97 261.973 L2109.97 235.608 L2101.66 237.275 L2101.66 233.015 L2109.93 231.349 L2114.6 231.349 L2114.6 261.973 L2122.24 261.973 L2122.24 265.909 L2102.34 265.909 L2102.34 261.973 Z" fill="#000000" fill-rule="evenodd" fill-opacity="1"></path><path clip-path="url(#clip200)" d="M2141.69 234.427 Q2138.08 234.427 2136.25 237.992 Q2134.44 241.534 2134.44 248.663 Q2134.44 255.77 2136.25 259.335 Q2138.08 262.876 2141.69 262.876 Q2145.32 262.876 2147.13 259.335 Q2148.96 255.77 2148.96 248.663 Q2148.96 241.534 2147.13 237.992 Q2145.32 234.427 2141.69 234.427 M2141.69 230.724 Q2147.5 230.724 2150.55 235.33 Q2153.63 239.913 2153.63 248.663 Q2153.63 257.39 2150.55 261.997 Q2147.5 266.58 2141.69 266.58 Q2135.88 266.58 2132.8 261.997 Q2129.74 257.39 2129.74 248.663 Q2129.74 239.913 2132.8 235.33 Q2135.88 230.724 2141.69 230.724 Z" fill="#000000" fill-rule="evenodd" fill-opacity="1"></path><path clip-path="url(#clip200)" d="M2171.85 234.427 Q2168.24 234.427 2166.41 237.992 Q2164.6 241.534 2164.6 248.663 Q2164.6 255.77 2166.41 259.335 Q2168.24 262.876 2171.85 262.876 Q2175.48 262.876 2177.29 259.335 Q2179.12 255.77 2179.12 248.663 Q2179.12 241.534 2177.29 237.992 Q2175.48 234.427 2171.85 234.427 M2171.85 230.724 Q2177.66 230.724 2180.72 235.33 Q2183.79 239.913 2183.79 248.663 Q2183.79 257.39 2180.72 261.997 Q2177.66 266.58 2171.85 266.58 Q2166.04 266.58 2162.96 261.997 Q2159.91 257.39 2159.91 248.663 Q2159.91 239.913 2162.96 235.33 Q2166.04 230.724 2171.85 230.724 Z" fill="#000000" fill-rule="evenodd" fill-opacity="1"></path><path clip-path="url(#clip200)" d="M2202.01 234.427 Q2198.4 234.427 2196.57 237.992 Q2194.77 241.534 2194.77 248.663 Q2194.77 255.77 2196.57 259.335 Q2198.4 262.876 2202.01 262.876 Q2205.65 262.876 2207.45 259.335 Q2209.28 255.77 2209.28 248.663 Q2209.28 241.534 2207.45 237.992 Q2205.65 234.427 2202.01 234.427 M2202.01 230.724 Q2207.82 230.724 2210.88 235.33 Q2213.96 239.913 2213.96 248.663 Q2213.96 257.39 2210.88 261.997 Q2207.82 266.58 2202.01 266.58 Q2196.2 266.58 2193.12 261.997 Q2190.07 257.39 2190.07 248.663 Q2190.07 239.913 2193.12 235.33 Q2196.2 230.724 2202.01 230.724 Z" fill="#000000" fill-rule="evenodd" fill-opacity="1"></path><path clip-path="url(#clip200)" d="M2222.17 260.029 L2227.06 260.029 L2227.06 265.909 L2222.17 265.909 L2222.17 260.029 Z" fill="#000000" fill-rule="evenodd" fill-opacity="1"></path><path clip-path="url(#clip200)" d="M2247.24 234.427 Q2243.63 234.427 2241.8 237.992 Q2240 241.534 2240 248.663 Q2240 255.77 2241.8 259.335 Q2243.63 262.876 2247.24 262.876 Q2250.88 262.876 2252.68 259.335 Q2254.51 255.77 2254.51 248.663 Q2254.51 241.534 2252.68 237.992 Q2250.88 234.427 2247.24 234.427 M2247.24 230.724 Q2253.05 230.724 2256.11 235.33 Q2259.19 239.913 2259.19 248.663 Q2259.19 257.39 2256.11 261.997 Q2253.05 266.58 2247.24 266.58 Q2241.43 266.58 2238.35 261.997 Q2235.3 257.39 2235.3 248.663 Q2235.3 239.913 2238.35 235.33 Q2241.43 230.724 2247.24 230.724 Z" fill="#000000" fill-rule="evenodd" fill-opacity="1"></path></svg>