<svg xmlns="http://www.w3.org/2000/svg" xmlns:xlink="http://www.w3.org/1999/xlink" width="600" height="400" viewBox="0 0 2400 1600">
<defs>
  <clipPath id="clip560">
    <rect x="0" y="0" width="2400" height="1600"></rect>
  </clipPath>
</defs>
<path clip-path="url(#clip560)" d="
M0 1600 L2400 1600 L2400 0 L0 0  Z
  " fill="#ffffff" fill-rule="evenodd" fill-opacity="1"></path>
<defs>
  <clipPath id="clip561">
    <rect x="480" y="0" width="1681" height="1600"></rect>
  </clipPath>
</defs>
<path clip-path="url(#clip560)" d="
M242.135 1423.18 L2352.76 1423.18 L2352.76 47.2441 L242.135 47.2441  Z
  " fill="#ffffff" fill-rule="evenodd" fill-opacity="1"></path>
<defs>
  <clipPath id="clip562">
    <rect x="242" y="47" width="2112" height="1377"></rect>
  </clipPath>
</defs>
<polyline clip-path="url(#clip562)" style="stroke:#000000; stroke-linecap:round; stroke-linejoin:round; stroke-width:2; stroke-opacity:0.1; fill:none" points="
  301.869,1423.18 301.869,47.2441 
  "></polyline>
<polyline clip-path="url(#clip562)" style="stroke:#000000; stroke-linecap:round; stroke-linejoin:round; stroke-width:2; stroke-opacity:0.1; fill:none" points="
  2293.02,1423.18 2293.02,47.2441 
  "></polyline>
<polyline clip-path="url(#clip560)" style="stroke:#000000; stroke-linecap:round; stroke-linejoin:round; stroke-width:4; stroke-opacity:1; fill:none" points="
  242.135,1423.18 2352.76,1423.18 
  "></polyline>
<polyline clip-path="url(#clip560)" style="stroke:#000000; stroke-linecap:round; stroke-linejoin:round; stroke-width:4; stroke-opacity:1; fill:none" points="
  301.869,1423.18 301.869,1404.28 
  "></polyline>
<polyline clip-path="url(#clip560)" style="stroke:#000000; stroke-linecap:round; stroke-linejoin:round; stroke-width:4; stroke-opacity:1; fill:none" points="
  2293.02,1423.18 2293.02,1404.28 
  "></polyline>
<path clip-path="url(#clip560)" d="M301.869 1454.1 Q298.258 1454.1 296.429 1457.66 Q294.624 1461.2 294.624 1468.33 Q294.624 1475.44 296.429 1479.01 Q298.258 1482.55 301.869 1482.55 Q305.503 1482.55 307.309 1479.01 Q309.138 1475.44 309.138 1468.33 Q309.138 1461.2 307.309 1457.66 Q305.503 1454.1 301.869 1454.1 M301.869 1450.39 Q307.679 1450.39 310.735 1455 Q313.814 1459.58 313.814 1468.33 Q313.814 1477.06 310.735 1481.67 Q307.679 1486.25 301.869 1486.25 Q296.059 1486.25 292.98 1481.67 Q289.925 1477.06 289.925 1468.33 Q289.925 1459.58 292.98 1455 Q296.059 1450.39 301.869 1450.39 Z" fill="#000000" fill-rule="evenodd" fill-opacity="1"></path><path clip-path="url(#clip560)" d="M2271.69 1481.64 L2288.01 1481.64 L2288.01 1485.58 L2266.07 1485.58 L2266.07 1481.64 Q2268.73 1478.89 2273.31 1474.26 Q2277.92 1469.61 2279.1 1468.27 Q2281.34 1465.74 2282.22 1464.01 Q2283.13 1462.25 2283.13 1460.56 Q2283.13 1457.8 2281.18 1456.07 Q2279.26 1454.33 2276.16 1454.33 Q2273.96 1454.33 2271.51 1455.09 Q2269.07 1455.86 2266.3 1457.41 L2266.3 1452.69 Q2269.12 1451.55 2271.57 1450.97 Q2274.03 1450.39 2276.07 1450.39 Q2281.44 1450.39 2284.63 1453.08 Q2287.82 1455.77 2287.82 1460.26 Q2287.82 1462.39 2287.01 1464.31 Q2286.23 1466.2 2284.12 1468.8 Q2283.54 1469.47 2280.44 1472.69 Q2277.34 1475.88 2271.69 1481.64 Z" fill="#000000" fill-rule="evenodd" fill-opacity="1"></path><path clip-path="url(#clip560)" d="M2294.47 1459.65 L2319.31 1459.65 L2319.31 1463.91 L2316.04 1463.91 L2316.04 1479.84 Q2316.04 1481.51 2316.6 1482.25 Q2317.18 1482.96 2318.45 1482.96 Q2318.8 1482.96 2319.31 1482.92 Q2319.82 1482.85 2319.98 1482.83 L2319.98 1485.9 Q2319.17 1486.2 2318.31 1486.34 Q2317.45 1486.48 2316.6 1486.48 Q2313.82 1486.48 2312.76 1484.98 Q2311.69 1483.45 2311.69 1479.38 L2311.69 1463.91 L2302.13 1463.91 L2302.13 1485.58 L2297.78 1485.58 L2297.78 1463.91 L2294.47 1463.91 L2294.47 1459.65 Z" fill="#000000" fill-rule="evenodd" fill-opacity="1"></path><path clip-path="url(#clip560)" d="M1314.06 1532.4 L1301.17 1549.74 L1314.73 1568.04 L1307.82 1568.04 L1297.45 1554.04 L1287.07 1568.04 L1280.16 1568.04 L1294.01 1549.39 L1281.34 1532.4 L1288.25 1532.4 L1297.7 1545.1 L1307.15 1532.4 L1314.06 1532.4 Z" fill="#000000" fill-rule="evenodd" fill-opacity="1"></path><polyline clip-path="url(#clip562)" style="stroke:#000000; stroke-linecap:round; stroke-linejoin:round; stroke-width:2; stroke-opacity:0.1; fill:none" points="
  242.135,1255.15 2352.76,1255.15 
  "></polyline>
<polyline clip-path="url(#clip562)" style="stroke:#000000; stroke-linecap:round; stroke-linejoin:round; stroke-width:2; stroke-opacity:0.1; fill:none" points="
  242.135,985.06 2352.76,985.06 
  "></polyline>
<polyline clip-path="url(#clip562)" style="stroke:#000000; stroke-linecap:round; stroke-linejoin:round; stroke-width:2; stroke-opacity:0.1; fill:none" points="
  242.135,714.968 2352.76,714.968 
  "></polyline>
<polyline clip-path="url(#clip562)" style="stroke:#000000; stroke-linecap:round; stroke-linejoin:round; stroke-width:2; stroke-opacity:0.1; fill:none" points="
  242.135,444.876 2352.76,444.876 
  "></polyline>
<polyline clip-path="url(#clip562)" style="stroke:#000000; stroke-linecap:round; stroke-linejoin:round; stroke-width:2; stroke-opacity:0.1; fill:none" points="
  242.135,174.784 2352.76,174.784 
  "></polyline>
<polyline clip-path="url(#clip560)" style="stroke:#000000; stroke-linecap:round; stroke-linejoin:round; stroke-width:4; stroke-opacity:1; fill:none" points="
  242.135,1423.18 242.135,47.2441 
  "></polyline>
<polyline clip-path="url(#clip560)" style="stroke:#000000; stroke-linecap:round; stroke-linejoin:round; stroke-width:4; stroke-opacity:1; fill:none" points="
  242.135,1255.15 261.032,1255.15 
  "></polyline>
<polyline clip-path="url(#clip560)" style="stroke:#000000; stroke-linecap:round; stroke-linejoin:round; stroke-width:4; stroke-opacity:1; fill:none" points="
  242.135,985.06 261.032,985.06 
  "></polyline>
<polyline clip-path="url(#clip560)" style="stroke:#000000; stroke-linecap:round; stroke-linejoin:round; stroke-width:4; stroke-opacity:1; fill:none" points="
  242.135,714.968 261.032,714.968 
  "></polyline>
<polyline clip-path="url(#clip560)" style="stroke:#000000; stroke-linecap:round; stroke-linejoin:round; stroke-width:4; stroke-opacity:1; fill:none" points="
  242.135,444.876 261.032,444.876 
  "></polyline>
<polyline clip-path="url(#clip560)" style="stroke:#000000; stroke-linecap:round; stroke-linejoin:round; stroke-width:4; stroke-opacity:1; fill:none" points="
  242.135,174.784 261.032,174.784 
  "></polyline>
<path clip-path="url(#clip560)" d="M114.26 1255.6 L143.936 1255.6 L143.936 1259.54 L114.26 1259.54 L114.26 1255.6 Z" fill="#000000" fill-rule="evenodd" fill-opacity="1"></path><path clip-path="url(#clip560)" d="M158.056 1268.5 L174.376 1268.5 L174.376 1272.43 L152.431 1272.43 L152.431 1268.5 Q155.093 1265.74 159.677 1261.11 Q164.283 1256.46 165.464 1255.12 Q167.709 1252.59 168.589 1250.86 Q169.491 1249.1 169.491 1247.41 Q169.491 1244.65 167.547 1242.92 Q165.626 1241.18 162.524 1241.18 Q160.325 1241.18 157.871 1241.95 Q155.44 1242.71 152.663 1244.26 L152.663 1239.54 Q155.487 1238.4 157.94 1237.83 Q160.394 1237.25 162.431 1237.25 Q167.802 1237.25 170.996 1239.93 Q174.19 1242.62 174.19 1247.11 Q174.19 1249.24 173.38 1251.16 Q172.593 1253.06 170.487 1255.65 Q169.908 1256.32 166.806 1259.54 Q163.704 1262.73 158.056 1268.5 Z" fill="#000000" fill-rule="evenodd" fill-opacity="1"></path><path clip-path="url(#clip560)" d="M194.19 1240.95 Q190.579 1240.95 188.75 1244.52 Q186.945 1248.06 186.945 1255.19 Q186.945 1262.29 188.75 1265.86 Q190.579 1269.4 194.19 1269.4 Q197.825 1269.4 199.63 1265.86 Q201.459 1262.29 201.459 1255.19 Q201.459 1248.06 199.63 1244.52 Q197.825 1240.95 194.19 1240.95 M194.19 1237.25 Q200 1237.25 203.056 1241.85 Q206.135 1246.44 206.135 1255.19 Q206.135 1263.91 203.056 1268.52 Q200 1273.1 194.19 1273.1 Q188.38 1273.1 185.301 1268.52 Q182.246 1263.91 182.246 1255.19 Q182.246 1246.44 185.301 1241.85 Q188.38 1237.25 194.19 1237.25 Z" fill="#000000" fill-rule="evenodd" fill-opacity="1"></path><path clip-path="url(#clip560)" d="M114.26 985.511 L143.936 985.511 L143.936 989.446 L114.26 989.446 L114.26 985.511 Z" fill="#000000" fill-rule="evenodd" fill-opacity="1"></path><path clip-path="url(#clip560)" d="M154.839 998.405 L162.477 998.405 L162.477 972.039 L154.167 973.706 L154.167 969.447 L162.431 967.78 L167.107 967.78 L167.107 998.405 L174.746 998.405 L174.746 1002.34 L154.839 1002.34 L154.839 998.405 Z" fill="#000000" fill-rule="evenodd" fill-opacity="1"></path><path clip-path="url(#clip560)" d="M194.19 970.859 Q190.579 970.859 188.75 974.423 Q186.945 977.965 186.945 985.095 Q186.945 992.201 188.75 995.766 Q190.579 999.308 194.19 999.308 Q197.825 999.308 199.63 995.766 Q201.459 992.201 201.459 985.095 Q201.459 977.965 199.63 974.423 Q197.825 970.859 194.19 970.859 M194.19 967.155 Q200 967.155 203.056 971.761 Q206.135 976.345 206.135 985.095 Q206.135 993.821 203.056 998.428 Q200 1003.01 194.19 1003.01 Q188.38 1003.01 185.301 998.428 Q182.246 993.821 182.246 985.095 Q182.246 976.345 185.301 971.761 Q188.38 967.155 194.19 967.155 Z" fill="#000000" fill-rule="evenodd" fill-opacity="1"></path><path clip-path="url(#clip560)" d="M194.19 700.767 Q190.579 700.767 188.75 704.331 Q186.945 707.873 186.945 715.003 Q186.945 722.109 188.75 725.674 Q190.579 729.216 194.19 729.216 Q197.825 729.216 199.63 725.674 Q201.459 722.109 201.459 715.003 Q201.459 707.873 199.63 704.331 Q197.825 700.767 194.19 700.767 M194.19 697.063 Q200 697.063 203.056 701.669 Q206.135 706.253 206.135 715.003 Q206.135 723.73 203.056 728.336 Q200 732.919 194.19 732.919 Q188.38 732.919 185.301 728.336 Q182.246 723.73 182.246 715.003 Q182.246 706.253 185.301 701.669 Q188.38 697.063 194.19 697.063 Z" fill="#000000" fill-rule="evenodd" fill-opacity="1"></path><path clip-path="url(#clip560)" d="M154.839 458.221 L162.477 458.221 L162.477 431.855 L154.167 433.522 L154.167 429.263 L162.431 427.596 L167.107 427.596 L167.107 458.221 L174.746 458.221 L174.746 462.156 L154.839 462.156 L154.839 458.221 Z" fill="#000000" fill-rule="evenodd" fill-opacity="1"></path><path clip-path="url(#clip560)" d="M194.19 430.675 Q190.579 430.675 188.75 434.24 Q186.945 437.781 186.945 444.911 Q186.945 452.017 188.75 455.582 Q190.579 459.124 194.19 459.124 Q197.825 459.124 199.63 455.582 Q201.459 452.017 201.459 444.911 Q201.459 437.781 199.63 434.24 Q197.825 430.675 194.19 430.675 M194.19 426.971 Q200 426.971 203.056 431.578 Q206.135 436.161 206.135 444.911 Q206.135 453.638 203.056 458.244 Q200 462.827 194.19 462.827 Q188.38 462.827 185.301 458.244 Q182.246 453.638 182.246 444.911 Q182.246 436.161 185.301 431.578 Q188.38 426.971 194.19 426.971 Z" fill="#000000" fill-rule="evenodd" fill-opacity="1"></path><path clip-path="url(#clip560)" d="M158.056 188.129 L174.376 188.129 L174.376 192.064 L152.431 192.064 L152.431 188.129 Q155.093 185.374 159.677 180.745 Q164.283 176.092 165.464 174.75 Q167.709 172.226 168.589 170.49 Q169.491 168.731 169.491 167.041 Q169.491 164.287 167.547 162.551 Q165.626 160.814 162.524 160.814 Q160.325 160.814 157.871 161.578 Q155.44 162.342 152.663 163.893 L152.663 159.171 Q155.487 158.037 157.94 157.458 Q160.394 156.879 162.431 156.879 Q167.802 156.879 170.996 159.564 Q174.19 162.25 174.19 166.74 Q174.19 168.87 173.38 170.791 Q172.593 172.689 170.487 175.282 Q169.908 175.953 166.806 179.171 Q163.704 182.365 158.056 188.129 Z" fill="#000000" fill-rule="evenodd" fill-opacity="1"></path><path clip-path="url(#clip560)" d="M194.19 160.583 Q190.579 160.583 188.75 164.148 Q186.945 167.689 186.945 174.819 Q186.945 181.925 188.75 185.49 Q190.579 189.032 194.19 189.032 Q197.825 189.032 199.63 185.49 Q201.459 181.925 201.459 174.819 Q201.459 167.689 199.63 164.148 Q197.825 160.583 194.19 160.583 M194.19 156.879 Q200 156.879 203.056 161.486 Q206.135 166.069 206.135 174.819 Q206.135 183.546 203.056 188.152 Q200 192.736 194.19 192.736 Q188.38 192.736 185.301 188.152 Q182.246 183.546 182.246 174.819 Q182.246 166.069 185.301 161.486 Q188.38 156.879 194.19 156.879 Z" fill="#000000" fill-rule="evenodd" fill-opacity="1"></path><path clip-path="url(#clip560)" d="M18.0438 955.529 L24.314 955.529 Q22.5634 959.189 21.704 962.436 Q20.8447 965.682 20.8447 968.706 Q20.8447 973.958 22.8817 976.822 Q24.9187 979.655 28.6745 979.655 Q31.8255 979.655 33.4488 977.777 Q35.0402 975.868 36.0269 970.584 L36.8226 966.701 Q38.1912 959.508 41.6605 956.102 Q45.098 952.665 50.8908 952.665 Q57.7976 952.665 61.3624 957.311 Q64.9272 961.927 64.9272 970.87 Q64.9272 974.244 64.1633 978.064 Q63.3994 981.851 61.9035 985.925 L55.2831 985.925 Q57.4793 982.01 58.5933 978.255 Q59.7073 974.499 59.7073 970.87 Q59.7073 965.364 57.543 962.372 Q55.3786 959.38 51.3682 959.38 Q47.8671 959.38 45.8937 961.545 Q43.9204 963.677 42.9337 968.579 L42.1698 972.494 Q40.7375 979.687 37.682 982.902 Q34.6264 986.116 29.1837 986.116 Q22.8817 986.116 19.2532 981.692 Q15.6248 977.236 15.6248 969.438 Q15.6248 966.096 16.2295 962.627 Q16.8343 959.158 18.0438 955.529 Z" fill="#000000" fill-rule="evenodd" fill-opacity="1"></path><path clip-path="url(#clip560)" d="M49.9359 943.498 L28.3562 943.498 L28.3562 937.641 L49.7131 937.641 Q54.7739 937.641 57.3202 935.668 Q59.8346 933.695 59.8346 929.748 Q59.8346 925.006 56.8109 922.268 Q53.7872 919.499 48.5673 919.499 L28.3562 919.499 L28.3562 913.643 L64.0042 913.643 L64.0042 919.499 L58.5296 919.499 Q61.7762 921.632 63.3676 924.464 Q64.9272 927.265 64.9272 930.989 Q64.9272 937.132 61.1078 940.315 Q57.2883 943.498 49.9359 943.498 M27.4968 928.761 L27.4968 928.761 Z" fill="#000000" fill-rule="evenodd" fill-opacity="1"></path><path clip-path="url(#clip560)" d="M33.8307 880.923 Q33.2578 881.91 33.0032 883.087 Q32.7167 884.233 32.7167 885.634 Q32.7167 890.599 35.9632 893.272 Q39.1779 895.914 45.2253 895.914 L64.0042 895.914 L64.0042 901.803 L28.3562 901.803 L28.3562 895.914 L33.8944 895.914 Q30.6479 894.068 29.0883 891.108 Q27.4968 888.148 27.4968 883.915 Q27.4968 883.31 27.5923 882.578 Q27.656 881.846 27.8151 880.955 L33.8307 880.923 Z" fill="#000000" fill-rule="evenodd" fill-opacity="1"></path><path clip-path="url(#clip560)" d="M14.479 856.733 L19.3487 856.733 L19.3487 862.335 Q19.3487 865.486 20.6219 866.727 Q21.895 867.937 25.2052 867.937 L28.3562 867.937 L28.3562 858.293 L32.9077 858.293 L32.9077 867.937 L64.0042 867.937 L64.0042 873.825 L32.9077 873.825 L32.9077 879.427 L28.3562 879.427 L28.3562 873.825 L25.8736 873.825 Q19.9216 873.825 17.2162 871.056 Q14.479 868.287 14.479 862.271 L14.479 856.733 Z" fill="#000000" fill-rule="evenodd" fill-opacity="1"></path><path clip-path="url(#clip560)" d="M46.0847 835.631 Q46.0847 842.729 47.7079 845.466 Q49.3312 848.203 53.2461 848.203 Q56.3653 848.203 58.2114 846.166 Q60.0256 844.097 60.0256 840.564 Q60.0256 835.695 56.5881 832.766 Q53.1188 829.806 47.3897 829.806 L46.0847 829.806 L46.0847 835.631 M43.6657 823.95 L64.0042 823.95 L64.0042 829.806 L58.5933 829.806 Q61.8398 831.812 63.3994 834.803 Q64.9272 837.795 64.9272 842.124 Q64.9272 847.599 61.8716 850.845 Q58.7843 854.06 53.6281 854.06 Q47.6125 854.06 44.5569 850.049 Q41.5014 846.007 41.5014 838.018 L41.5014 829.806 L40.9285 829.806 Q36.8862 829.806 34.6901 832.48 Q32.4621 835.122 32.4621 839.928 Q32.4621 842.983 33.1941 845.88 Q33.9262 848.776 35.3903 851.45 L29.9795 851.45 Q28.7381 848.235 28.1334 845.211 Q27.4968 842.188 27.4968 839.323 Q27.4968 831.589 31.5072 827.769 Q35.5176 823.95 43.6657 823.95 Z" fill="#000000" fill-rule="evenodd" fill-opacity="1"></path><path clip-path="url(#clip560)" d="M29.7248 786.233 L35.1993 786.233 Q33.8307 788.716 33.1623 791.23 Q32.4621 793.713 32.4621 796.259 Q32.4621 801.956 36.0905 805.107 Q39.6872 808.258 46.212 808.258 Q52.7369 808.258 56.3653 805.107 Q59.9619 801.956 59.9619 796.259 Q59.9619 793.713 59.2935 791.23 Q58.5933 788.716 57.2247 786.233 L62.6355 786.233 Q63.7814 788.684 64.3543 791.326 Q64.9272 793.936 64.9272 796.896 Q64.9272 804.948 59.8664 809.691 Q54.8057 814.433 46.212 814.433 Q37.491 814.433 32.4939 809.659 Q27.4968 804.853 27.4968 796.514 Q27.4968 793.808 28.0697 791.23 Q28.6108 788.652 29.7248 786.233 Z" fill="#000000" fill-rule="evenodd" fill-opacity="1"></path><path clip-path="url(#clip560)" d="M44.7161 745.556 L47.5806 745.556 L47.5806 772.483 Q53.6281 772.101 56.8109 768.855 Q59.9619 765.576 59.9619 759.752 Q59.9619 756.378 59.1344 753.227 Q58.3069 750.044 56.6518 746.925 L62.1899 746.925 Q63.5267 750.076 64.227 753.386 Q64.9272 756.696 64.9272 760.102 Q64.9272 768.632 59.9619 773.629 Q54.9967 778.594 46.5303 778.594 Q37.7774 778.594 32.6531 773.884 Q27.4968 769.141 27.4968 761.12 Q27.4968 753.927 32.1438 749.758 Q36.7589 745.556 44.7161 745.556 M42.9973 751.413 Q38.1912 751.476 35.3266 754.118 Q32.4621 756.728 32.4621 761.057 Q32.4621 765.958 35.2312 768.918 Q38.0002 771.847 43.0292 772.292 L42.9973 751.413 Z" fill="#000000" fill-rule="evenodd" fill-opacity="1"></path><path clip-path="url(#clip560)" d="M33.7671 691.766 L14.479 691.766 L14.479 685.91 L64.0042 685.91 L64.0042 691.766 L58.657 691.766 Q61.8398 693.612 63.3994 696.445 Q64.9272 699.246 64.9272 703.192 Q64.9272 709.654 59.771 713.728 Q54.6147 717.77 46.212 717.77 Q37.8093 717.77 32.6531 713.728 Q27.4968 709.654 27.4968 703.192 Q27.4968 699.246 29.0564 696.445 Q30.5842 693.612 33.7671 691.766 M46.212 711.723 Q52.6732 711.723 56.3653 709.081 Q60.0256 706.407 60.0256 701.76 Q60.0256 697.113 56.3653 694.44 Q52.6732 691.766 46.212 691.766 Q39.7508 691.766 36.0905 694.44 Q32.3984 697.113 32.3984 701.76 Q32.3984 706.407 36.0905 709.081 Q39.7508 711.723 46.212 711.723 Z" fill="#000000" fill-rule="evenodd" fill-opacity="1"></path><path clip-path="url(#clip560)" d="M44.7161 643.355 L47.5806 643.355 L47.5806 670.282 Q53.6281 669.9 56.8109 666.653 Q59.9619 663.375 59.9619 657.55 Q59.9619 654.177 59.1344 651.025 Q58.3069 647.843 56.6518 644.723 L62.1899 644.723 Q63.5267 647.874 64.227 651.185 Q64.9272 654.495 64.9272 657.9 Q64.9272 666.431 59.9619 671.428 Q54.9967 676.393 46.5303 676.393 Q37.7774 676.393 32.6531 671.682 Q27.4968 666.94 27.4968 658.919 Q27.4968 651.726 32.1438 647.556 Q36.7589 643.355 44.7161 643.355 M42.9973 649.211 Q38.1912 649.275 35.3266 651.917 Q32.4621 654.527 32.4621 658.855 Q32.4621 663.757 35.2312 666.717 Q38.0002 669.645 43.0292 670.091 L42.9973 649.211 Z" fill="#000000" fill-rule="evenodd" fill-opacity="1"></path><path clip-path="url(#clip560)" d="M42.4881 604.11 L64.0042 604.11 L64.0042 609.967 L42.679 609.967 Q37.6183 609.967 35.1038 611.94 Q32.5894 613.913 32.5894 617.86 Q32.5894 622.603 35.6131 625.34 Q38.6368 628.077 43.8567 628.077 L64.0042 628.077 L64.0042 633.965 L28.3562 633.965 L28.3562 628.077 L33.8944 628.077 Q30.6797 625.976 29.0883 623.144 Q27.4968 620.279 27.4968 616.555 Q27.4968 610.412 31.3163 607.261 Q35.1038 604.11 42.4881 604.11 Z" fill="#000000" fill-rule="evenodd" fill-opacity="1"></path><path clip-path="url(#clip560)" d="M29.4065 569.704 L34.9447 569.704 Q33.6716 572.186 33.035 574.86 Q32.3984 577.533 32.3984 580.398 Q32.3984 584.758 33.7352 586.955 Q35.072 589.119 37.7456 589.119 Q39.7826 589.119 40.9603 587.559 Q42.1061 586 43.1565 581.289 L43.6021 579.284 Q44.9389 573.046 47.3897 570.436 Q49.8086 567.794 54.1691 567.794 Q59.1344 567.794 62.0308 571.741 Q64.9272 575.656 64.9272 582.53 Q64.9272 585.395 64.3543 588.514 Q63.8132 591.602 62.6992 595.039 L56.6518 595.039 Q58.3387 591.793 59.198 588.642 Q60.0256 585.491 60.0256 582.403 Q60.0256 578.265 58.6251 576.037 Q57.1929 573.809 54.6147 573.809 Q52.2276 573.809 50.9545 575.433 Q49.6813 577.024 48.5037 582.467 L48.0262 584.504 Q46.8804 589.947 44.5251 592.366 Q42.138 594.784 38.0002 594.784 Q32.9713 594.784 30.2341 591.22 Q27.4968 587.655 27.4968 581.098 Q27.4968 577.852 27.9743 574.987 Q28.4517 572.123 29.4065 569.704 Z" fill="#000000" fill-rule="evenodd" fill-opacity="1"></path><path clip-path="url(#clip560)" d="M28.3562 558.468 L28.3562 552.612 L64.0042 552.612 L64.0042 558.468 L28.3562 558.468 M14.479 558.468 L14.479 552.612 L21.895 552.612 L21.895 558.468 L14.479 558.468 Z" fill="#000000" fill-rule="evenodd" fill-opacity="1"></path><path clip-path="url(#clip560)" d="M18.2347 534.565 L28.3562 534.565 L28.3562 522.502 L32.9077 522.502 L32.9077 534.565 L52.2594 534.565 Q56.6199 534.565 57.8613 533.387 Q59.1026 532.178 59.1026 528.517 L59.1026 522.502 L64.0042 522.502 L64.0042 528.517 Q64.0042 535.297 61.4897 537.875 Q58.9434 540.453 52.2594 540.453 L32.9077 540.453 L32.9077 544.75 L28.3562 544.75 L28.3562 540.453 L18.2347 540.453 L18.2347 534.565 Z" fill="#000000" fill-rule="evenodd" fill-opacity="1"></path><path clip-path="url(#clip560)" d="M67.3143 499.967 Q73.68 502.45 75.6216 504.805 Q77.5631 507.161 77.5631 511.107 L77.5631 515.786 L72.6615 515.786 L72.6615 512.349 Q72.6615 509.93 71.5157 508.593 Q70.3699 507.256 66.1048 505.633 L63.4312 504.582 L28.3562 519.001 L28.3562 512.794 L56.238 501.654 L28.3562 490.514 L28.3562 484.308 L67.3143 499.967 Z" fill="#000000" fill-rule="evenodd" fill-opacity="1"></path><polyline clip-path="url(#clip562)" style="stroke:#009af9; stroke-linecap:round; stroke-linejoin:round; stroke-width:4; stroke-opacity:1; fill:none" points="
  301.869,930.882 326.759,976.56 351.648,989.477 376.537,1017.43 401.427,1064.85 426.316,1116.38 451.206,1151.59 476.095,1156.04 500.984,1127.52 525.874,1074.1 
  550.763,1007.75 575.653,938.044 600.542,868.524 625.431,797.479 650.321,721.616 675.21,640.005 700.1,556.205 724.989,477.509 749.878,412.166 774.768,366.336 
  799.657,342.347 824.547,339.047 849.436,353.685 874.325,384.023 899.215,429.443 924.104,490.454 948.994,567.075 973.883,657.172 998.772,755.757 1023.66,855.676 
  1048.55,949.224 1073.44,1029.77 1098.33,1092.58 1123.22,1134.6 1148.11,1153.66 1173,1147.97 1197.89,1116.23 1222.78,1058.47 1247.67,977.038 1272.56,876.892 
  1297.45,765.062 1322.33,649.508 1347.22,538.044 1372.11,437.846 1397,355.475 1421.89,296.888 1446.78,266.875 1471.67,267.938 1496.56,299.297 1521.45,356.9 
  1546.34,434.681 1571.23,526.37 1596.12,626.586 1621.01,730.505 1645.9,832.665 1670.79,926.305 1695.68,1004.32 1720.57,1061.4 1745.45,1095.75 1770.34,1108.85 
  1795.23,1103.41 1820.12,1081.18 1845.01,1042.44 1869.9,987.513 1894.79,918.93 1919.68,842.246 1944.57,764.523 1969.46,691.627 1994.35,626.146 2019.24,567.516 
  2044.13,514.291 2069.02,466.751 2093.91,428.197 2118.8,403.791 2143.68,397.475 2168.57,409.224 2193.46,434.064 2218.35,464.318 2243.24,495.551 2268.13,537.26 
  2293.02,930.882 
  "></polyline>
<polyline clip-path="url(#clip562)" style="stroke:#e26f46; stroke-linecap:round; stroke-linejoin:round; stroke-width:4; stroke-opacity:1; fill:none" stroke-dasharray="16, 10" points="
  301.869,96.9989 326.759,246.344 351.648,330.546 376.537,385.906 401.427,444.211 426.316,524.282 451.206,628.186 476.095,744.168 500.984,855.8 525.874,950.259 
  550.763,1022.45 575.653,1074.47 600.542,1111.37 625.431,1136.65 650.321,1149.97 675.21,1147.61 700.1,1125.16 724.989,1080.52 749.878,1015.36 774.768,934.769 
  799.657,845.37 824.547,753.195 849.436,662.53 874.325,576.072 899.215,496.105 924.104,425.715 948.994,369.209 973.883,331.49 998.772,316.728 1023.66,327.121 
  1048.55,362.4 1073.44,420.195 1098.33,496.878 1123.22,588.276 1148.11,689.817 1173,796.222 1197.89,901.156 1222.78,997.386 1247.67,1077.57 1272.56,1135.41 
  1297.45,1166.55 1322.33,1168.87 1347.22,1142.18 1372.11,1087.91 1397,1009.05 1421.89,910.651 1446.78,800.052 1471.67,686.372 1496.56,578.842 1521.45,484.785 
  1546.34,408.44 1571.23,351.475 1596.12,314.824 1621.01,300.288 1645.9,310.358 1670.79,346.124 1695.68,404.823 1720.57,479.225 1745.45,559.78 1770.34,638.273 
  1795.23,710.508 1820.12,776.179 1845.01,836.274 1869.9,890.116 1894.79,934.205 1919.68,963.567 1944.57,974.429 1969.46,966.382 1994.35,942.801 2019.24,909.439 
  2044.13,872.275 2069.02,835.659 2093.91,801.423 2118.8,769.259 2143.68,737.787 2168.57,706.25 2193.46,676.457 2218.35,654.002 2243.24,650.111 2268.13,685.867 
  2293.02,96.9989 
  "></polyline>
<polyline clip-path="url(#clip562)" style="stroke:#3da44d; stroke-linecap:round; stroke-linejoin:round; stroke-width:4; stroke-opacity:1; fill:none" points="
  301.869,499.054 326.759,459.525 351.648,452.221 376.537,429.134 401.427,385.678 426.316,337.208 451.206,304.368 476.095,301.904 500.984,332.27 525.874,387.45 
  550.763,455.247 575.653,525.756 600.542,595.147 625.431,664.963 650.321,738.382 675.21,816.118 700.1,894.227 724.989,964.953 749.878,1019.75 774.768,1052.55 
  799.657,1061.47 824.547,1048.36 849.436,1016.61 874.325,969.008 899.215,906.652 924.104,829.646 948.994,738.807 973.883,637.277 998.772,531.028 1023.66,427.963 
  1048.55,336.2 1073.44,262.48 1098.33,211.465 1123.22,186.062 1148.11,188.207 1173,219.379 1197.89,280.326 1222.78,370.151 1247.67,485.401 1272.56,619.824 
  1297.45,765.062 1322.33,911.909 1347.22,1051.44 1372.11,1175.49 1397,1276.61 1421.89,1348.03 1446.78,1384.24 1471.67,1382.19 1496.56,1342.4 1521.45,1269.03 
  1546.34,1168.62 1571.23,1048.22 1596.12,914.263 1621.01,772.752 1645.9,630.428 1670.79,495.413 1695.68,376.27 1720.57,279.852 1745.45,209.564 1770.34,165.47 
  1795.23,146.215 1820.12,151.101 1845.01,180.491 1869.9,234.277 1894.79,309.741 1919.68,400.805 1944.57,499.568 1969.46,599.02 1994.35,695.108 2019.24,786.623 
  2044.13,872.987 2069.02,951.786 2093.91,1017.66 2118.8,1063.69 2143.68,1084.66 2168.57,1079.9 2193.46,1054.37 2218.35,1016.35 2243.24,971.496 2268.13,912.112 
  2293.02,499.054 
  "></polyline>
<polyline clip-path="url(#clip562)" style="stroke:#c271d2; stroke-linecap:round; stroke-linejoin:round; stroke-width:4; stroke-opacity:1; fill:none" stroke-dasharray="16, 10" points="
  301.869,1332.94 326.759,1180.89 351.648,1095.88 376.537,1041.25 401.427,984.807 426.316,907.252 451.206,806.174 476.095,693.227 500.984,585.012 525.874,494.677 
  550.763,427.574 575.653,381.653 600.542,351.7 625.431,333.977 650.321,328.693 675.21,339.542 700.1,370.816 724.989,424.277 749.878,497.545 774.768,584.615 
  799.657,678.026 824.547,771.167 849.436,859.475 874.325,940.137 899.215,1010.77 924.104,1068.15 948.994,1107.93 973.883,1125.4 998.772,1116.89 1023.66,1081 
  1048.55,1018.99 1073.44,934.22 1098.33,831.313 1123.22,715.399 1148.11,591.999 1173,467.348 1197.89,348.687 1222.78,244.04 1247.67,161.336 1272.56,107.232 
  1297.45,86.1857 1322.33,100.189 1347.22,149.064 1372.11,230.838 1397,341.724 1421.89,475.69 1446.78,624.191 1471.67,776.792 1496.56,922.872 1521.45,1053.72 
  1546.34,1163.77 1571.23,1250.09 1596.12,1310.61 1621.01,1342.52 1645.9,1342.54 1670.79,1309.07 1695.68,1244.71 1720.57,1156.88 1745.45,1055.7 1770.34,950.261 
  1795.23,845.869 1820.12,744.145 1845.01,645.588 1869.9,552.519 1894.79,470.201 1919.68,405.424 1944.57,363.694 1969.46,346.916 1994.35,352.832 2019.24,376.325 
  2044.13,411.539 2069.02,453.75 2093.91,500.292 2118.8,550.217 2143.68,603.245 2168.57,658.111 2193.46,710.713 2218.35,753.075 2243.24,771.758 2268.13,743.948 
  2293.02,1332.94 
  "></polyline>
<path clip-path="url(#clip560)" d="
M1923.33 1377.32 L2282.4 1377.32 L2282.4 1118.12 L1923.33 1118.12  Z
  " fill="#ffffff" fill-rule="evenodd" fill-opacity="1"></path>
<polyline clip-path="url(#clip560)" style="stroke:#000000; stroke-linecap:round; stroke-linejoin:round; stroke-width:4; stroke-opacity:1; fill:none" points="
  1923.33,1377.32 2282.4,1377.32 2282.4,1118.12 1923.33,1118.12 1923.33,1377.32 
  "></polyline>
<polyline clip-path="url(#clip560)" style="stroke:#009af9; stroke-linecap:round; stroke-linejoin:round; stroke-width:4; stroke-opacity:1; fill:none" points="
  1946.78,1169.96 2087.49,1169.96 
  "></polyline>
<path clip-path="url(#clip560)" d="M2126.13 1165.29 Q2125.41 1164.87 2124.55 1164.69 Q2123.72 1164.48 2122.7 1164.48 Q2119.09 1164.48 2117.15 1166.84 Q2115.22 1169.18 2115.22 1173.58 L2115.22 1187.24 L2110.94 1187.24 L2110.94 1161.31 L2115.22 1161.31 L2115.22 1165.34 Q2116.57 1162.98 2118.72 1161.84 Q2120.87 1160.68 2123.95 1160.68 Q2124.39 1160.68 2124.92 1160.75 Q2125.46 1160.8 2126.1 1160.92 L2126.13 1165.29 Z" fill="#000000" fill-rule="evenodd" fill-opacity="1"></path><path clip-path="url(#clip560)" d="M2151.73 1173.21 L2151.73 1175.29 L2132.15 1175.29 Q2132.42 1179.69 2134.78 1182 Q2137.17 1184.3 2141.4 1184.3 Q2143.86 1184.3 2146.15 1183.69 Q2148.46 1183.09 2150.73 1181.89 L2150.73 1185.92 Q2148.44 1186.89 2146.03 1187.4 Q2143.63 1187.91 2141.15 1187.91 Q2134.95 1187.91 2131.31 1184.3 Q2127.7 1180.68 2127.7 1174.53 Q2127.7 1168.16 2131.13 1164.43 Q2134.58 1160.68 2140.41 1160.68 Q2145.64 1160.68 2148.67 1164.06 Q2151.73 1167.42 2151.73 1173.21 M2147.47 1171.96 Q2147.42 1168.46 2145.5 1166.38 Q2143.6 1164.3 2140.46 1164.3 Q2136.89 1164.3 2134.74 1166.31 Q2132.61 1168.32 2132.28 1171.98 L2147.47 1171.96 Z" fill="#000000" fill-rule="evenodd" fill-opacity="1"></path><path clip-path="url(#clip560)" d="M2168.95 1151.26 Q2165.85 1156.59 2164.34 1161.8 Q2162.84 1167 2162.84 1172.35 Q2162.84 1177.7 2164.34 1182.95 Q2165.87 1188.18 2168.95 1193.49 L2165.25 1193.49 Q2161.78 1188.05 2160.04 1182.79 Q2158.33 1177.54 2158.33 1172.35 Q2158.33 1167.19 2160.04 1161.96 Q2161.75 1156.73 2165.25 1151.26 L2168.95 1151.26 Z" fill="#000000" fill-rule="evenodd" fill-opacity="1"></path><path clip-path="url(#clip560)" d="M2187.26 1164.69 Q2183.74 1164.69 2181.84 1167.24 Q2179.85 1169.9 2179.85 1174.3 Q2179.85 1178.95 2181.82 1181.63 Q2183.81 1184.3 2187.26 1184.3 Q2190.66 1184.3 2192.65 1181.61 Q2194.65 1178.93 2194.65 1174.3 Q2194.65 1170.06 2192.65 1167.24 Q2190.83 1164.69 2187.26 1164.69 M2187.26 1161.31 L2201.4 1161.31 L2201.4 1165.57 L2196.64 1165.57 Q2199.16 1169.18 2199.16 1174.3 Q2199.16 1180.66 2195.99 1184.27 Q2192.82 1187.91 2187.26 1187.91 Q2181.68 1187.91 2178.53 1184.27 Q2175.36 1180.66 2175.36 1174.3 Q2175.36 1167.88 2178.53 1164.3 Q2181.15 1161.31 2187.26 1161.31 Z" fill="#000000" fill-rule="evenodd" fill-opacity="1"></path><path clip-path="url(#clip560)" d="M2208.67 1183.3 L2216.31 1183.3 L2216.31 1156.93 L2208 1158.6 L2208 1154.34 L2216.27 1152.68 L2220.94 1152.68 L2220.94 1183.3 L2228.58 1183.3 L2228.58 1187.24 L2208.67 1187.24 L2208.67 1183.3 Z" fill="#000000" fill-rule="evenodd" fill-opacity="1"></path><path clip-path="url(#clip560)" d="M2236.75 1151.26 L2240.46 1151.26 Q2243.93 1156.73 2245.64 1161.96 Q2247.38 1167.19 2247.38 1172.35 Q2247.38 1177.54 2245.64 1182.79 Q2243.93 1188.05 2240.46 1193.49 L2236.75 1193.49 Q2239.83 1188.18 2241.33 1182.95 Q2242.86 1177.7 2242.86 1172.35 Q2242.86 1167 2241.33 1161.8 Q2239.83 1156.59 2236.75 1151.26 Z" fill="#000000" fill-rule="evenodd" fill-opacity="1"></path><polyline clip-path="url(#clip560)" style="stroke:#e26f46; stroke-linecap:round; stroke-linejoin:round; stroke-width:4; stroke-opacity:1; fill:none" stroke-dasharray="16, 10" points="
  1946.78,1221.8 2087.49,1221.8 
  "></polyline>
<path clip-path="url(#clip560)" d="M2110.94 1213.15 L2115.2 1213.15 L2115.2 1239.08 L2110.94 1239.08 L2110.94 1213.15 M2110.94 1203.06 L2115.2 1203.06 L2115.2 1208.45 L2110.94 1208.45 L2110.94 1203.06 Z" fill="#000000" fill-rule="evenodd" fill-opacity="1"></path><path clip-path="url(#clip560)" d="M2144.3 1218.13 Q2145.9 1215.26 2148.12 1213.89 Q2150.34 1212.52 2153.35 1212.52 Q2157.4 1212.52 2159.6 1215.37 Q2161.8 1218.2 2161.8 1223.43 L2161.8 1239.08 L2157.52 1239.08 L2157.52 1223.57 Q2157.52 1219.84 2156.2 1218.03 Q2154.88 1216.23 2152.17 1216.23 Q2148.86 1216.23 2146.94 1218.43 Q2145.02 1220.63 2145.02 1224.42 L2145.02 1239.08 L2140.73 1239.08 L2140.73 1223.57 Q2140.73 1219.82 2139.41 1218.03 Q2138.09 1216.23 2135.34 1216.23 Q2132.08 1216.23 2130.15 1218.45 Q2128.23 1220.65 2128.23 1224.42 L2128.23 1239.08 L2123.95 1239.08 L2123.95 1213.15 L2128.23 1213.15 L2128.23 1217.18 Q2129.69 1214.79 2131.73 1213.66 Q2133.77 1212.52 2136.57 1212.52 Q2139.39 1212.52 2141.36 1213.96 Q2143.35 1215.39 2144.3 1218.13 Z" fill="#000000" fill-rule="evenodd" fill-opacity="1"></path><path clip-path="url(#clip560)" d="M2180.53 1203.1 Q2177.42 1208.43 2175.92 1213.64 Q2174.41 1218.84 2174.41 1224.19 Q2174.41 1229.54 2175.92 1234.79 Q2177.45 1240.02 2180.53 1245.33 L2176.82 1245.33 Q2173.35 1239.89 2171.61 1234.63 Q2169.9 1229.38 2169.9 1224.19 Q2169.9 1219.03 2171.61 1213.8 Q2173.33 1208.57 2176.82 1203.1 L2180.53 1203.1 Z" fill="#000000" fill-rule="evenodd" fill-opacity="1"></path><path clip-path="url(#clip560)" d="M2198.84 1216.53 Q2195.32 1216.53 2193.42 1219.08 Q2191.43 1221.74 2191.43 1226.14 Q2191.43 1230.79 2193.4 1233.47 Q2195.39 1236.14 2198.84 1236.14 Q2202.24 1236.14 2204.23 1233.45 Q2206.22 1230.77 2206.22 1226.14 Q2206.22 1221.9 2204.23 1219.08 Q2202.4 1216.53 2198.84 1216.53 M2198.84 1213.15 L2212.98 1213.15 L2212.98 1217.41 L2208.21 1217.41 Q2210.73 1221.02 2210.73 1226.14 Q2210.73 1232.5 2207.56 1236.11 Q2204.39 1239.75 2198.84 1239.75 Q2193.26 1239.75 2190.11 1236.11 Q2186.94 1232.5 2186.94 1226.14 Q2186.94 1219.72 2190.11 1216.14 Q2192.72 1213.15 2198.84 1213.15 Z" fill="#000000" fill-rule="evenodd" fill-opacity="1"></path><path clip-path="url(#clip560)" d="M2220.25 1235.14 L2227.89 1235.14 L2227.89 1208.77 L2219.58 1210.44 L2219.58 1206.18 L2227.84 1204.52 L2232.52 1204.52 L2232.52 1235.14 L2240.15 1235.14 L2240.15 1239.08 L2220.25 1239.08 L2220.25 1235.14 Z" fill="#000000" fill-rule="evenodd" fill-opacity="1"></path><path clip-path="url(#clip560)" d="M2248.33 1203.1 L2252.03 1203.1 Q2255.5 1208.57 2257.21 1213.8 Q2258.95 1219.03 2258.95 1224.19 Q2258.95 1229.38 2257.21 1234.63 Q2255.5 1239.89 2252.03 1245.33 L2248.33 1245.33 Q2251.4 1240.02 2252.91 1234.79 Q2254.44 1229.54 2254.44 1224.19 Q2254.44 1218.84 2252.91 1213.64 Q2251.4 1208.43 2248.33 1203.1 Z" fill="#000000" fill-rule="evenodd" fill-opacity="1"></path><polyline clip-path="url(#clip560)" style="stroke:#3da44d; stroke-linecap:round; stroke-linejoin:round; stroke-width:4; stroke-opacity:1; fill:none" points="
  1946.78,1273.64 2087.49,1273.64 
  "></polyline>
<path clip-path="url(#clip560)" d="M2126.13 1268.97 Q2125.41 1268.55 2124.55 1268.37 Q2123.72 1268.16 2122.7 1268.16 Q2119.09 1268.16 2117.15 1270.52 Q2115.22 1272.86 2115.22 1277.26 L2115.22 1290.92 L2110.94 1290.92 L2110.94 1264.99 L2115.22 1264.99 L2115.22 1269.02 Q2116.57 1266.66 2118.72 1265.52 Q2120.87 1264.36 2123.95 1264.36 Q2124.39 1264.36 2124.92 1264.43 Q2125.46 1264.48 2126.1 1264.6 L2126.13 1268.97 Z" fill="#000000" fill-rule="evenodd" fill-opacity="1"></path><path clip-path="url(#clip560)" d="M2151.73 1276.89 L2151.73 1278.97 L2132.15 1278.97 Q2132.42 1283.37 2134.78 1285.68 Q2137.17 1287.98 2141.4 1287.98 Q2143.86 1287.98 2146.15 1287.37 Q2148.46 1286.77 2150.73 1285.57 L2150.73 1289.6 Q2148.44 1290.57 2146.03 1291.08 Q2143.63 1291.59 2141.15 1291.59 Q2134.95 1291.59 2131.31 1287.98 Q2127.7 1284.36 2127.7 1278.21 Q2127.7 1271.84 2131.13 1268.11 Q2134.58 1264.36 2140.41 1264.36 Q2145.64 1264.36 2148.67 1267.74 Q2151.73 1271.1 2151.73 1276.89 M2147.47 1275.64 Q2147.42 1272.14 2145.5 1270.06 Q2143.6 1267.98 2140.46 1267.98 Q2136.89 1267.98 2134.74 1269.99 Q2132.61 1272 2132.28 1275.66 L2147.47 1275.64 Z" fill="#000000" fill-rule="evenodd" fill-opacity="1"></path><path clip-path="url(#clip560)" d="M2168.95 1254.94 Q2165.85 1260.27 2164.34 1265.48 Q2162.84 1270.68 2162.84 1276.03 Q2162.84 1281.38 2164.34 1286.63 Q2165.87 1291.86 2168.95 1297.17 L2165.25 1297.17 Q2161.78 1291.73 2160.04 1286.47 Q2158.33 1281.22 2158.33 1276.03 Q2158.33 1270.87 2160.04 1265.64 Q2161.75 1260.41 2165.25 1254.94 L2168.95 1254.94 Z" fill="#000000" fill-rule="evenodd" fill-opacity="1"></path><path clip-path="url(#clip560)" d="M2187.26 1268.37 Q2183.74 1268.37 2181.84 1270.92 Q2179.85 1273.58 2179.85 1277.98 Q2179.85 1282.63 2181.82 1285.31 Q2183.81 1287.98 2187.26 1287.98 Q2190.66 1287.98 2192.65 1285.29 Q2194.65 1282.61 2194.65 1277.98 Q2194.65 1273.74 2192.65 1270.92 Q2190.83 1268.37 2187.26 1268.37 M2187.26 1264.99 L2201.4 1264.99 L2201.4 1269.25 L2196.64 1269.25 Q2199.16 1272.86 2199.16 1277.98 Q2199.16 1284.34 2195.99 1287.95 Q2192.82 1291.59 2187.26 1291.59 Q2181.68 1291.59 2178.53 1287.95 Q2175.36 1284.34 2175.36 1277.98 Q2175.36 1271.56 2178.53 1267.98 Q2181.15 1264.99 2187.26 1264.99 Z" fill="#000000" fill-rule="evenodd" fill-opacity="1"></path><path clip-path="url(#clip560)" d="M2211.89 1286.98 L2228.21 1286.98 L2228.21 1290.92 L2206.27 1290.92 L2206.27 1286.98 Q2208.93 1284.23 2213.51 1279.6 Q2218.12 1274.94 2219.3 1273.6 Q2221.54 1271.08 2222.42 1269.34 Q2223.33 1267.58 2223.33 1265.89 Q2223.33 1263.14 2221.38 1261.4 Q2219.46 1259.67 2216.36 1259.67 Q2214.16 1259.67 2211.71 1260.43 Q2209.27 1261.19 2206.5 1262.74 L2206.5 1258.02 Q2209.32 1256.89 2211.77 1256.31 Q2214.23 1255.73 2216.27 1255.73 Q2221.64 1255.73 2224.83 1258.42 Q2228.02 1261.1 2228.02 1265.59 Q2228.02 1267.72 2227.21 1269.64 Q2226.43 1271.54 2224.32 1274.13 Q2223.74 1274.8 2220.64 1278.02 Q2217.54 1281.22 2211.89 1286.98 Z" fill="#000000" fill-rule="evenodd" fill-opacity="1"></path><path clip-path="url(#clip560)" d="M2236.75 1254.94 L2240.46 1254.94 Q2243.93 1260.41 2245.64 1265.64 Q2247.38 1270.87 2247.38 1276.03 Q2247.38 1281.22 2245.64 1286.47 Q2243.93 1291.73 2240.46 1297.17 L2236.75 1297.17 Q2239.83 1291.86 2241.33 1286.63 Q2242.86 1281.38 2242.86 1276.03 Q2242.86 1270.68 2241.33 1265.48 Q2239.83 1260.27 2236.75 1254.94 Z" fill="#000000" fill-rule="evenodd" fill-opacity="1"></path><polyline clip-path="url(#clip560)" style="stroke:#c271d2; stroke-linecap:round; stroke-linejoin:round; stroke-width:4; stroke-opacity:1; fill:none" stroke-dasharray="16, 10" points="
  1946.78,1325.48 2087.49,1325.48 
  "></polyline>
<path clip-path="url(#clip560)" d="M2110.94 1316.83 L2115.2 1316.83 L2115.2 1342.76 L2110.94 1342.76 L2110.94 1316.83 M2110.94 1306.74 L2115.2 1306.74 L2115.2 1312.13 L2110.94 1312.13 L2110.94 1306.74 Z" fill="#000000" fill-rule="evenodd" fill-opacity="1"></path><path clip-path="url(#clip560)" d="M2144.3 1321.81 Q2145.9 1318.94 2148.12 1317.57 Q2150.34 1316.2 2153.35 1316.2 Q2157.4 1316.2 2159.6 1319.05 Q2161.8 1321.88 2161.8 1327.11 L2161.8 1342.76 L2157.52 1342.76 L2157.52 1327.25 Q2157.52 1323.52 2156.2 1321.71 Q2154.88 1319.91 2152.17 1319.91 Q2148.86 1319.91 2146.94 1322.11 Q2145.02 1324.31 2145.02 1328.1 L2145.02 1342.76 L2140.73 1342.76 L2140.73 1327.25 Q2140.73 1323.5 2139.41 1321.71 Q2138.09 1319.91 2135.34 1319.91 Q2132.08 1319.91 2130.15 1322.13 Q2128.23 1324.33 2128.23 1328.1 L2128.23 1342.76 L2123.95 1342.76 L2123.95 1316.83 L2128.23 1316.83 L2128.23 1320.86 Q2129.69 1318.47 2131.73 1317.34 Q2133.77 1316.2 2136.57 1316.2 Q2139.39 1316.2 2141.36 1317.64 Q2143.35 1319.07 2144.3 1321.81 Z" fill="#000000" fill-rule="evenodd" fill-opacity="1"></path><path clip-path="url(#clip560)" d="M2180.53 1306.78 Q2177.42 1312.11 2175.92 1317.32 Q2174.41 1322.52 2174.41 1327.87 Q2174.41 1333.22 2175.92 1338.47 Q2177.45 1343.7 2180.53 1349.01 L2176.82 1349.01 Q2173.35 1343.57 2171.61 1338.31 Q2169.9 1333.06 2169.9 1327.87 Q2169.9 1322.71 2171.61 1317.48 Q2173.33 1312.25 2176.82 1306.78 L2180.53 1306.78 Z" fill="#000000" fill-rule="evenodd" fill-opacity="1"></path><path clip-path="url(#clip560)" d="M2198.84 1320.21 Q2195.32 1320.21 2193.42 1322.76 Q2191.43 1325.42 2191.43 1329.82 Q2191.43 1334.47 2193.4 1337.15 Q2195.39 1339.82 2198.84 1339.82 Q2202.24 1339.82 2204.23 1337.13 Q2206.22 1334.45 2206.22 1329.82 Q2206.22 1325.58 2204.23 1322.76 Q2202.4 1320.21 2198.84 1320.21 M2198.84 1316.83 L2212.98 1316.83 L2212.98 1321.09 L2208.21 1321.09 Q2210.73 1324.7 2210.73 1329.82 Q2210.73 1336.18 2207.56 1339.79 Q2204.39 1343.43 2198.84 1343.43 Q2193.26 1343.43 2190.11 1339.79 Q2186.94 1336.18 2186.94 1329.82 Q2186.94 1323.4 2190.11 1319.82 Q2192.72 1316.83 2198.84 1316.83 Z" fill="#000000" fill-rule="evenodd" fill-opacity="1"></path><path clip-path="url(#clip560)" d="M2223.46 1338.82 L2239.78 1338.82 L2239.78 1342.76 L2217.84 1342.76 L2217.84 1338.82 Q2220.5 1336.07 2225.08 1331.44 Q2229.69 1326.78 2230.87 1325.44 Q2233.12 1322.92 2234 1321.18 Q2234.9 1319.42 2234.9 1317.73 Q2234.9 1314.98 2232.96 1313.24 Q2231.03 1311.51 2227.93 1311.51 Q2225.73 1311.51 2223.28 1312.27 Q2220.85 1313.03 2218.07 1314.58 L2218.07 1309.86 Q2220.9 1308.73 2223.35 1308.15 Q2225.8 1307.57 2227.84 1307.57 Q2233.21 1307.57 2236.4 1310.26 Q2239.6 1312.94 2239.6 1317.43 Q2239.6 1319.56 2238.79 1321.48 Q2238 1323.38 2235.9 1325.97 Q2235.32 1326.64 2232.21 1329.86 Q2229.11 1333.06 2223.46 1338.82 Z" fill="#000000" fill-rule="evenodd" fill-opacity="1"></path><path clip-path="url(#clip560)" d="M2248.33 1306.78 L2252.03 1306.78 Q2255.5 1312.25 2257.21 1317.48 Q2258.95 1322.71 2258.95 1327.87 Q2258.95 1333.06 2257.21 1338.31 Q2255.5 1343.57 2252.03 1349.01 L2248.33 1349.01 Q2251.4 1343.7 2252.91 1338.47 Q2254.44 1333.22 2254.44 1327.87 Q2254.44 1322.52 2252.91 1317.32 Q2251.4 1312.11 2248.33 1306.78 Z" fill="#000000" fill-rule="evenodd" fill-opacity="1"></path></svg>